<?xml version="1.0" encoding="utf-8" standalone="no"?>
<!DOCTYPE svg PUBLIC "-//W3C//DTD SVG 1.1//EN"
  "http://www.w3.org/Graphics/SVG/1.1/DTD/svg11.dtd">
<svg xmlns:xlink="http://www.w3.org/1999/xlink" width="576pt" height="707.04pt" viewBox="0 0 576 707.04" xmlns="http://www.w3.org/2000/svg" version="1.1">
 <metadata>
  <rdf:RDF xmlns:dc="http://purl.org/dc/elements/1.1/" xmlns:cc="http://creativecommons.org/ns#" xmlns:rdf="http://www.w3.org/1999/02/22-rdf-syntax-ns#">
   <cc:Work>
    <dc:type rdf:resource="http://purl.org/dc/dcmitype/StillImage"/>
    <dc:date>2025-07-09T08:36:47.091756</dc:date>
    <dc:format>image/svg+xml</dc:format>
    <dc:creator>
     <cc:Agent>
      <dc:title>Matplotlib v3.7.5, https://matplotlib.org/</dc:title>
     </cc:Agent>
    </dc:creator>
   </cc:Work>
  </rdf:RDF>
 </metadata>
 <defs>
  <style type="text/css">*{stroke-linejoin: round; stroke-linecap: butt}</style>
 </defs>
 <g id="figure_1">
  <g id="patch_1">
   <path d="M 0 707.04 
L 576 707.04 
L 576 0 
L 0 0 
z
" style="fill: #ffffff"/>
  </g>
  <g id="axes_1">
   <g id="patch_2">
    <path d="M 130.14 304.29234 
L 512.28 304.29234 
L 512.28 54.7956 
L 130.14 54.7956 
z
" style="fill: #ffffff"/>
   </g>
   <g id="matplotlib.axis_1">
    <g id="xtick_1">
     <g id="line2d_1">
      <path d="M 130.14 304.29234 
L 130.14 54.7956 
" clip-path="url(#p3e04170635)" style="fill: none; stroke: #cccccc; stroke-linecap: round"/>
     </g>
    </g>
    <g id="xtick_2">
     <g id="line2d_2">
      <path d="M 172.6 304.29234 
L 172.6 54.7956 
" clip-path="url(#p3e04170635)" style="fill: none; stroke: #cccccc; stroke-linecap: round"/>
     </g>
    </g>
    <g id="xtick_3">
     <g id="line2d_3">
      <path d="M 215.06 304.29234 
L 215.06 54.7956 
" clip-path="url(#p3e04170635)" style="fill: none; stroke: #cccccc; stroke-linecap: round"/>
     </g>
    </g>
    <g id="xtick_4">
     <g id="line2d_4">
      <path d="M 257.52 304.29234 
L 257.52 54.7956 
" clip-path="url(#p3e04170635)" style="fill: none; stroke: #cccccc; stroke-linecap: round"/>
     </g>
    </g>
    <g id="xtick_5">
     <g id="line2d_5">
      <path d="M 299.98 304.29234 
L 299.98 54.7956 
" clip-path="url(#p3e04170635)" style="fill: none; stroke: #cccccc; stroke-linecap: round"/>
     </g>
    </g>
    <g id="xtick_6">
     <g id="line2d_6">
      <path d="M 342.44 304.29234 
L 342.44 54.7956 
" clip-path="url(#p3e04170635)" style="fill: none; stroke: #cccccc; stroke-linecap: round"/>
     </g>
    </g>
    <g id="xtick_7">
     <g id="line2d_7">
      <path d="M 384.9 304.29234 
L 384.9 54.7956 
" clip-path="url(#p3e04170635)" style="fill: none; stroke: #cccccc; stroke-linecap: round"/>
     </g>
    </g>
    <g id="xtick_8">
     <g id="line2d_8">
      <path d="M 427.36 304.29234 
L 427.36 54.7956 
" clip-path="url(#p3e04170635)" style="fill: none; stroke: #cccccc; stroke-linecap: round"/>
     </g>
    </g>
    <g id="xtick_9">
     <g id="line2d_9">
      <path d="M 469.82 304.29234 
L 469.82 54.7956 
" clip-path="url(#p3e04170635)" style="fill: none; stroke: #cccccc; stroke-linecap: round"/>
     </g>
    </g>
    <g id="xtick_10">
     <g id="line2d_10">
      <path d="M 512.28 304.29234 
L 512.28 54.7956 
" clip-path="url(#p3e04170635)" style="fill: none; stroke: #cccccc; stroke-linecap: round"/>
     </g>
    </g>
   </g>
   <g id="matplotlib.axis_2">
    <g id="ytick_1">
     <g id="line2d_11">
      <path d="M 130.14 304.29234 
L 512.28 304.29234 
" clip-path="url(#p3e04170635)" style="fill: none; stroke: #cccccc; stroke-linecap: round"/>
     </g>
     <g id="text_1">
      <!-- −6 -->
      <g style="fill: #262626" transform="translate(100.000937 309.611246) scale(0.14 -0.14)">
       <defs>
        <path id="DejaVuSans-2212" d="M 678 2272 
L 4684 2272 
L 4684 1741 
L 678 1741 
L 678 2272 
z
" transform="scale(0.015625)"/>
        <path id="DejaVuSans-36" d="M 2113 2584 
Q 1688 2584 1439 2293 
Q 1191 2003 1191 1497 
Q 1191 994 1439 701 
Q 1688 409 2113 409 
Q 2538 409 2786 701 
Q 3034 994 3034 1497 
Q 3034 2003 2786 2293 
Q 2538 2584 2113 2584 
z
M 3366 4563 
L 3366 3988 
Q 3128 4100 2886 4159 
Q 2644 4219 2406 4219 
Q 1781 4219 1451 3797 
Q 1122 3375 1075 2522 
Q 1259 2794 1537 2939 
Q 1816 3084 2150 3084 
Q 2853 3084 3261 2657 
Q 3669 2231 3669 1497 
Q 3669 778 3244 343 
Q 2819 -91 2113 -91 
Q 1303 -91 875 529 
Q 447 1150 447 2328 
Q 447 3434 972 4092 
Q 1497 4750 2381 4750 
Q 2619 4750 2861 4703 
Q 3103 4656 3366 4563 
z
" transform="scale(0.015625)"/>
       </defs>
       <use xlink:href="#DejaVuSans-2212"/>
       <use xlink:href="#DejaVuSans-36" x="83.789062"/>
      </g>
     </g>
    </g>
    <g id="ytick_2">
     <g id="line2d_12">
      <path d="M 130.14 268.649949 
L 512.28 268.649949 
" clip-path="url(#p3e04170635)" style="fill: none; stroke: #cccccc; stroke-linecap: round"/>
     </g>
     <g id="text_2">
      <!-- −5 -->
      <g style="fill: #262626" transform="translate(100.000937 273.968855) scale(0.14 -0.14)">
       <defs>
        <path id="DejaVuSans-35" d="M 691 4666 
L 3169 4666 
L 3169 4134 
L 1269 4134 
L 1269 2991 
Q 1406 3038 1543 3061 
Q 1681 3084 1819 3084 
Q 2600 3084 3056 2656 
Q 3513 2228 3513 1497 
Q 3513 744 3044 326 
Q 2575 -91 1722 -91 
Q 1428 -91 1123 -41 
Q 819 9 494 109 
L 494 744 
Q 775 591 1075 516 
Q 1375 441 1709 441 
Q 2250 441 2565 725 
Q 2881 1009 2881 1497 
Q 2881 1984 2565 2268 
Q 2250 2553 1709 2553 
Q 1456 2553 1204 2497 
Q 953 2441 691 2322 
L 691 4666 
z
" transform="scale(0.015625)"/>
       </defs>
       <use xlink:href="#DejaVuSans-2212"/>
       <use xlink:href="#DejaVuSans-35" x="83.789062"/>
      </g>
     </g>
    </g>
    <g id="ytick_3">
     <g id="line2d_13">
      <path d="M 130.14 233.007557 
L 512.28 233.007557 
" clip-path="url(#p3e04170635)" style="fill: none; stroke: #cccccc; stroke-linecap: round"/>
     </g>
     <g id="text_3">
      <!-- −4 -->
      <g style="fill: #262626" transform="translate(100.000937 238.326463) scale(0.14 -0.14)">
       <defs>
        <path id="DejaVuSans-34" d="M 2419 4116 
L 825 1625 
L 2419 1625 
L 2419 4116 
z
M 2253 4666 
L 3047 4666 
L 3047 1625 
L 3713 1625 
L 3713 1100 
L 3047 1100 
L 3047 0 
L 2419 0 
L 2419 1100 
L 313 1100 
L 313 1709 
L 2253 4666 
z
" transform="scale(0.015625)"/>
       </defs>
       <use xlink:href="#DejaVuSans-2212"/>
       <use xlink:href="#DejaVuSans-34" x="83.789062"/>
      </g>
     </g>
    </g>
    <g id="ytick_4">
     <g id="line2d_14">
      <path d="M 130.14 197.365166 
L 512.28 197.365166 
" clip-path="url(#p3e04170635)" style="fill: none; stroke: #cccccc; stroke-linecap: round"/>
     </g>
     <g id="text_4">
      <!-- −3 -->
      <g style="fill: #262626" transform="translate(100.000937 202.684072) scale(0.14 -0.14)">
       <defs>
        <path id="DejaVuSans-33" d="M 2597 2516 
Q 3050 2419 3304 2112 
Q 3559 1806 3559 1356 
Q 3559 666 3084 287 
Q 2609 -91 1734 -91 
Q 1441 -91 1130 -33 
Q 819 25 488 141 
L 488 750 
Q 750 597 1062 519 
Q 1375 441 1716 441 
Q 2309 441 2620 675 
Q 2931 909 2931 1356 
Q 2931 1769 2642 2001 
Q 2353 2234 1838 2234 
L 1294 2234 
L 1294 2753 
L 1863 2753 
Q 2328 2753 2575 2939 
Q 2822 3125 2822 3475 
Q 2822 3834 2567 4026 
Q 2313 4219 1838 4219 
Q 1578 4219 1281 4162 
Q 984 4106 628 3988 
L 628 4550 
Q 988 4650 1302 4700 
Q 1616 4750 1894 4750 
Q 2613 4750 3031 4423 
Q 3450 4097 3450 3541 
Q 3450 3153 3228 2886 
Q 3006 2619 2597 2516 
z
" transform="scale(0.015625)"/>
       </defs>
       <use xlink:href="#DejaVuSans-2212"/>
       <use xlink:href="#DejaVuSans-33" x="83.789062"/>
      </g>
     </g>
    </g>
    <g id="ytick_5">
     <g id="line2d_15">
      <path d="M 130.14 161.722774 
L 512.28 161.722774 
" clip-path="url(#p3e04170635)" style="fill: none; stroke: #cccccc; stroke-linecap: round"/>
     </g>
     <g id="text_5">
      <!-- −2 -->
      <g style="fill: #262626" transform="translate(100.000937 167.041681) scale(0.14 -0.14)">
       <defs>
        <path id="DejaVuSans-32" d="M 1228 531 
L 3431 531 
L 3431 0 
L 469 0 
L 469 531 
Q 828 903 1448 1529 
Q 2069 2156 2228 2338 
Q 2531 2678 2651 2914 
Q 2772 3150 2772 3378 
Q 2772 3750 2511 3984 
Q 2250 4219 1831 4219 
Q 1534 4219 1204 4116 
Q 875 4013 500 3803 
L 500 4441 
Q 881 4594 1212 4672 
Q 1544 4750 1819 4750 
Q 2544 4750 2975 4387 
Q 3406 4025 3406 3419 
Q 3406 3131 3298 2873 
Q 3191 2616 2906 2266 
Q 2828 2175 2409 1742 
Q 1991 1309 1228 531 
z
" transform="scale(0.015625)"/>
       </defs>
       <use xlink:href="#DejaVuSans-2212"/>
       <use xlink:href="#DejaVuSans-32" x="83.789062"/>
      </g>
     </g>
    </g>
    <g id="ytick_6">
     <g id="line2d_16">
      <path d="M 130.14 126.080383 
L 512.28 126.080383 
" clip-path="url(#p3e04170635)" style="fill: none; stroke: #cccccc; stroke-linecap: round"/>
     </g>
     <g id="text_6">
      <!-- −1 -->
      <g style="fill: #262626" transform="translate(100.000937 131.399289) scale(0.14 -0.14)">
       <defs>
        <path id="DejaVuSans-31" d="M 794 531 
L 1825 531 
L 1825 4091 
L 703 3866 
L 703 4441 
L 1819 4666 
L 2450 4666 
L 2450 531 
L 3481 531 
L 3481 0 
L 794 0 
L 794 531 
z
" transform="scale(0.015625)"/>
       </defs>
       <use xlink:href="#DejaVuSans-2212"/>
       <use xlink:href="#DejaVuSans-31" x="83.789062"/>
      </g>
     </g>
    </g>
    <g id="ytick_7">
     <g id="line2d_17">
      <path d="M 130.14 90.437991 
L 512.28 90.437991 
" clip-path="url(#p3e04170635)" style="fill: none; stroke: #cccccc; stroke-linecap: round"/>
     </g>
     <g id="text_7">
      <!-- 0 -->
      <g style="fill: #262626" transform="translate(111.7325 95.756898) scale(0.14 -0.14)">
       <defs>
        <path id="DejaVuSans-30" d="M 2034 4250 
Q 1547 4250 1301 3770 
Q 1056 3291 1056 2328 
Q 1056 1369 1301 889 
Q 1547 409 2034 409 
Q 2525 409 2770 889 
Q 3016 1369 3016 2328 
Q 3016 3291 2770 3770 
Q 2525 4250 2034 4250 
z
M 2034 4750 
Q 2819 4750 3233 4129 
Q 3647 3509 3647 2328 
Q 3647 1150 3233 529 
Q 2819 -91 2034 -91 
Q 1250 -91 836 529 
Q 422 1150 422 2328 
Q 422 3509 836 4129 
Q 1250 4750 2034 4750 
z
" transform="scale(0.015625)"/>
       </defs>
       <use xlink:href="#DejaVuSans-30"/>
      </g>
     </g>
    </g>
    <g id="ytick_8">
     <g id="line2d_18">
      <path d="M 130.14 54.7956 
L 512.28 54.7956 
" clip-path="url(#p3e04170635)" style="fill: none; stroke: #cccccc; stroke-linecap: round"/>
     </g>
     <g id="text_8">
      <!-- 1 -->
      <g style="fill: #262626" transform="translate(111.7325 60.114506) scale(0.14 -0.14)">
       <use xlink:href="#DejaVuSans-31"/>
      </g>
     </g>
    </g>
    <g id="text_9">
     <!-- Force (N) -->
     <g style="fill: #262626" transform="translate(92.673437 215.95022) rotate(-90) scale(0.16 -0.16)">
      <defs>
       <path id="DejaVuSans-46" d="M 628 4666 
L 3309 4666 
L 3309 4134 
L 1259 4134 
L 1259 2759 
L 3109 2759 
L 3109 2228 
L 1259 2228 
L 1259 0 
L 628 0 
L 628 4666 
z
" transform="scale(0.015625)"/>
       <path id="DejaVuSans-6f" d="M 1959 3097 
Q 1497 3097 1228 2736 
Q 959 2375 959 1747 
Q 959 1119 1226 758 
Q 1494 397 1959 397 
Q 2419 397 2687 759 
Q 2956 1122 2956 1747 
Q 2956 2369 2687 2733 
Q 2419 3097 1959 3097 
z
M 1959 3584 
Q 2709 3584 3137 3096 
Q 3566 2609 3566 1747 
Q 3566 888 3137 398 
Q 2709 -91 1959 -91 
Q 1206 -91 779 398 
Q 353 888 353 1747 
Q 353 2609 779 3096 
Q 1206 3584 1959 3584 
z
" transform="scale(0.015625)"/>
       <path id="DejaVuSans-72" d="M 2631 2963 
Q 2534 3019 2420 3045 
Q 2306 3072 2169 3072 
Q 1681 3072 1420 2755 
Q 1159 2438 1159 1844 
L 1159 0 
L 581 0 
L 581 3500 
L 1159 3500 
L 1159 2956 
Q 1341 3275 1631 3429 
Q 1922 3584 2338 3584 
Q 2397 3584 2469 3576 
Q 2541 3569 2628 3553 
L 2631 2963 
z
" transform="scale(0.015625)"/>
       <path id="DejaVuSans-63" d="M 3122 3366 
L 3122 2828 
Q 2878 2963 2633 3030 
Q 2388 3097 2138 3097 
Q 1578 3097 1268 2742 
Q 959 2388 959 1747 
Q 959 1106 1268 751 
Q 1578 397 2138 397 
Q 2388 397 2633 464 
Q 2878 531 3122 666 
L 3122 134 
Q 2881 22 2623 -34 
Q 2366 -91 2075 -91 
Q 1284 -91 818 406 
Q 353 903 353 1747 
Q 353 2603 823 3093 
Q 1294 3584 2113 3584 
Q 2378 3584 2631 3529 
Q 2884 3475 3122 3366 
z
" transform="scale(0.015625)"/>
       <path id="DejaVuSans-65" d="M 3597 1894 
L 3597 1613 
L 953 1613 
Q 991 1019 1311 708 
Q 1631 397 2203 397 
Q 2534 397 2845 478 
Q 3156 559 3463 722 
L 3463 178 
Q 3153 47 2828 -22 
Q 2503 -91 2169 -91 
Q 1331 -91 842 396 
Q 353 884 353 1716 
Q 353 2575 817 3079 
Q 1281 3584 2069 3584 
Q 2775 3584 3186 3129 
Q 3597 2675 3597 1894 
z
M 3022 2063 
Q 3016 2534 2758 2815 
Q 2500 3097 2075 3097 
Q 1594 3097 1305 2825 
Q 1016 2553 972 2059 
L 3022 2063 
z
" transform="scale(0.015625)"/>
       <path id="DejaVuSans-20" transform="scale(0.015625)"/>
       <path id="DejaVuSans-28" d="M 1984 4856 
Q 1566 4138 1362 3434 
Q 1159 2731 1159 2009 
Q 1159 1288 1364 580 
Q 1569 -128 1984 -844 
L 1484 -844 
Q 1016 -109 783 600 
Q 550 1309 550 2009 
Q 550 2706 781 3412 
Q 1013 4119 1484 4856 
L 1984 4856 
z
" transform="scale(0.015625)"/>
       <path id="DejaVuSans-4e" d="M 628 4666 
L 1478 4666 
L 3547 763 
L 3547 4666 
L 4159 4666 
L 4159 0 
L 3309 0 
L 1241 3903 
L 1241 0 
L 628 0 
L 628 4666 
z
" transform="scale(0.015625)"/>
       <path id="DejaVuSans-29" d="M 513 4856 
L 1013 4856 
Q 1481 4119 1714 3412 
Q 1947 2706 1947 2009 
Q 1947 1309 1714 600 
Q 1481 -109 1013 -844 
L 513 -844 
Q 928 -128 1133 580 
Q 1338 1288 1338 2009 
Q 1338 2731 1133 3434 
Q 928 4138 513 4856 
z
" transform="scale(0.015625)"/>
      </defs>
      <use xlink:href="#DejaVuSans-46"/>
      <use xlink:href="#DejaVuSans-6f" x="53.894531"/>
      <use xlink:href="#DejaVuSans-72" x="115.076172"/>
      <use xlink:href="#DejaVuSans-63" x="153.939453"/>
      <use xlink:href="#DejaVuSans-65" x="208.919922"/>
      <use xlink:href="#DejaVuSans-20" x="270.443359"/>
      <use xlink:href="#DejaVuSans-28" x="302.230469"/>
      <use xlink:href="#DejaVuSans-4e" x="341.244141"/>
      <use xlink:href="#DejaVuSans-29" x="416.048828"/>
     </g>
    </g>
   </g>
   <g id="line2d_19">
    <path d="M 130.14 90.4412 
L 138.632 90.437272 
L 140.755 91.308125 
L 142.878 91.677974 
L 145.001 91.301702 
L 149.247 91.017906 
L 155.616 90.928199 
L 193.83 90.907843 
L 348.809 90.784236 
L 367.916 90.746738 
L 370.039 90.472949 
L 372.162 91.665917 
L 374.285 90.440692 
L 382.777 90.435419 
L 384.9 91.395265 
L 387.023 90.451293 
L 389.146 91.387232 
L 391.269 90.440973 
L 401.884 90.435411 
L 404.007 99.654736 
L 406.13 90.435323 
L 440.098 90.43578 
L 442.221 89.520122 
L 444.344 90.442049 
L 452.836 90.384967 
L 454.959 91.399744 
L 457.082 90.442325 
L 476.189 90.435983 
L 478.312 86.677025 
L 480.435 90.435926 
L 508.034 90.436635 
L 508.034 90.436635 
" clip-path="url(#p3e04170635)" style="fill: none; stroke: #ff0000; stroke-opacity: 0.7; stroke-width: 1.5; stroke-linecap: round"/>
   </g>
   <g id="line2d_20">
    <path d="M 130.14 90.437444 
L 138.632 90.438079 
L 140.755 90.2173 
L 142.878 90.72901 
L 145.001 90.763213 
L 149.247 90.38398 
L 157.739 90.30484 
L 208.691 90.306124 
L 348.809 90.290492 
L 367.916 90.172806 
L 370.039 90.399415 
L 372.162 89.626399 
L 374.285 90.436992 
L 382.777 90.436906 
L 384.9 89.69736 
L 387.023 90.405506 
L 389.146 89.400569 
L 391.269 90.437313 
L 401.884 90.436742 
L 404.007 94.755295 
L 406.13 90.437227 
L 440.098 90.436681 
L 442.221 84.950038 
L 444.344 90.440695 
L 452.836 90.384215 
L 454.959 88.031129 
L 457.082 90.441044 
L 476.189 90.436582 
L 478.312 84.034773 
L 480.435 90.43679 
L 508.034 90.436954 
L 508.034 90.436954 
" clip-path="url(#p3e04170635)" style="fill: none; stroke: #008000; stroke-opacity: 0.7; stroke-width: 1.5; stroke-linecap: round"/>
   </g>
   <g id="line2d_21">
    <path d="M 130.14 90.431976 
L 138.632 90.439326 
L 140.755 106.197299 
L 142.878 114.250142 
L 145.001 106.657715 
L 147.124 103.540437 
L 149.247 101.882299 
L 151.37 101.259079 
L 153.493 100.98173 
L 157.739 100.797525 
L 168.354 100.754107 
L 204.445 100.722116 
L 327.579 100.65387 
L 350.932 100.705806 
L 361.547 100.619479 
L 363.67 101.023948 
L 365.793 99.984548 
L 367.916 103.151484 
L 370.039 92.102995 
L 372.162 135.747961 
L 374.285 90.432118 
L 382.777 90.442298 
L 384.9 126.308379 
L 387.023 91.592125 
L 389.146 137.900452 
L 391.269 90.431642 
L 401.884 90.442431 
L 404.007 267.504393 
L 406.13 90.435026 
L 437.975 90.442569 
L 440.098 90.44249 
L 442.221 249.290752 
L 444.344 90.432482 
L 450.713 90.442209 
L 452.836 90.68776 
L 454.959 188.376915 
L 457.082 90.431795 
L 476.189 90.441487 
L 478.312 224.877653 
L 480.435 90.435545 
L 525.018 90.441425 
L 544.125 90.44262 
L 546.248 182.76492 
L 548.371 192.481858 
L 550.494 300.306358 
L 552.617 195.312095 
L 552.617 195.312095 
" clip-path="url(#p3e04170635)" style="fill: none; stroke: #0000ff; stroke-opacity: 0.7; stroke-width: 1.5; stroke-linecap: round"/>
   </g>
   <g id="line2d_22"/>
   <g id="line2d_23"/>
   <g id="line2d_24"/>
   <g id="patch_3">
    <path d="M 130.14 304.29234 
L 130.14 54.7956 
" style="fill: none; stroke: #cccccc; stroke-width: 1.25; stroke-linejoin: miter; stroke-linecap: square"/>
   </g>
   <g id="patch_4">
    <path d="M 512.28 304.29234 
L 512.28 54.7956 
" style="fill: none; stroke: #cccccc; stroke-width: 1.25; stroke-linejoin: miter; stroke-linecap: square"/>
   </g>
   <g id="patch_5">
    <path d="M 130.14 304.29234 
L 512.28 304.29234 
" style="fill: none; stroke: #cccccc; stroke-width: 1.25; stroke-linejoin: miter; stroke-linecap: square"/>
   </g>
   <g id="patch_6">
    <path d="M 130.14 54.7956 
L 512.28 54.7956 
" style="fill: none; stroke: #cccccc; stroke-width: 1.25; stroke-linejoin: miter; stroke-linecap: square"/>
   </g>
   <g id="legend_1">
    <g id="patch_7">
     <path d="M 441.341562 127.643725 
L 502.48 127.643725 
Q 505.28 127.643725 505.28 124.843725 
L 505.28 64.5956 
Q 505.28 61.7956 502.48 61.7956 
L 441.341562 61.7956 
Q 438.541562 61.7956 438.541562 64.5956 
L 438.541562 124.843725 
Q 438.541562 127.643725 441.341562 127.643725 
z
" style="fill: #ffffff; opacity: 0.6; stroke: #cccccc; stroke-linejoin: miter"/>
    </g>
    <g id="line2d_25">
     <path d="M 444.141562 73.133413 
L 458.141562 73.133413 
L 472.141562 73.133413 
" style="fill: none; stroke: #ff0000; stroke-opacity: 0.7; stroke-width: 1.5; stroke-linecap: round"/>
    </g>
    <g id="text_10">
     <!-- Fx -->
     <g style="fill: #262626" transform="translate(483.341562 78.033413) scale(0.14 -0.14)">
      <defs>
       <path id="DejaVuSans-78" d="M 3513 3500 
L 2247 1797 
L 3578 0 
L 2900 0 
L 1881 1375 
L 863 0 
L 184 0 
L 1544 1831 
L 300 3500 
L 978 3500 
L 1906 2253 
L 2834 3500 
L 3513 3500 
z
" transform="scale(0.015625)"/>
      </defs>
      <use xlink:href="#DejaVuSans-46"/>
      <use xlink:href="#DejaVuSans-78" x="57.519531"/>
     </g>
    </g>
    <g id="line2d_26">
     <path d="M 444.141562 93.682787 
L 458.141562 93.682787 
L 472.141562 93.682787 
" style="fill: none; stroke: #008000; stroke-opacity: 0.7; stroke-width: 1.5; stroke-linecap: round"/>
    </g>
    <g id="text_11">
     <!-- Fy -->
     <g style="fill: #262626" transform="translate(483.341562 98.582787) scale(0.14 -0.14)">
      <defs>
       <path id="DejaVuSans-79" d="M 2059 -325 
Q 1816 -950 1584 -1140 
Q 1353 -1331 966 -1331 
L 506 -1331 
L 506 -850 
L 844 -850 
Q 1081 -850 1212 -737 
Q 1344 -625 1503 -206 
L 1606 56 
L 191 3500 
L 800 3500 
L 1894 763 
L 2988 3500 
L 3597 3500 
L 2059 -325 
z
" transform="scale(0.015625)"/>
      </defs>
      <use xlink:href="#DejaVuSans-46"/>
      <use xlink:href="#DejaVuSans-79" x="48.394531"/>
     </g>
    </g>
    <g id="line2d_27">
     <path d="M 444.141562 114.232163 
L 458.141562 114.232163 
L 472.141562 114.232163 
" style="fill: none; stroke: #0000ff; stroke-opacity: 0.7; stroke-width: 1.5; stroke-linecap: round"/>
    </g>
    <g id="text_12">
     <!-- Fz -->
     <g style="fill: #262626" transform="translate(483.341562 119.132163) scale(0.14 -0.14)">
      <defs>
       <path id="DejaVuSans-7a" d="M 353 3500 
L 3084 3500 
L 3084 2975 
L 922 459 
L 3084 459 
L 3084 0 
L 275 0 
L 275 525 
L 2438 3041 
L 353 3041 
L 353 3500 
z
" transform="scale(0.015625)"/>
      </defs>
      <use xlink:href="#DejaVuSans-46"/>
      <use xlink:href="#DejaVuSans-7a" x="57.519531"/>
     </g>
    </g>
   </g>
  </g>
  <g id="axes_2">
   <g id="patch_8">
    <path d="M 130.14 616.71564 
L 512.28 616.71564 
L 512.28 367.2189 
L 130.14 367.2189 
z
" style="fill: #ffffff"/>
   </g>
   <g id="matplotlib.axis_3">
    <g id="xtick_11">
     <g id="line2d_28">
      <path d="M 130.14 616.71564 
L 130.14 367.2189 
" clip-path="url(#p0507646401)" style="fill: none; stroke: #cccccc; stroke-linecap: round"/>
     </g>
     <g id="text_13">
      <!-- 0 -->
      <g style="fill: #262626" transform="translate(125.68625 636.853453) scale(0.14 -0.14)">
       <use xlink:href="#DejaVuSans-30"/>
      </g>
     </g>
    </g>
    <g id="xtick_12">
     <g id="line2d_29">
      <path d="M 172.6 616.71564 
L 172.6 367.2189 
" clip-path="url(#p0507646401)" style="fill: none; stroke: #cccccc; stroke-linecap: round"/>
     </g>
     <g id="text_14">
      <!-- 20 -->
      <g style="fill: #262626" transform="translate(163.6925 636.853453) scale(0.14 -0.14)">
       <use xlink:href="#DejaVuSans-32"/>
       <use xlink:href="#DejaVuSans-30" x="63.623047"/>
      </g>
     </g>
    </g>
    <g id="xtick_13">
     <g id="line2d_30">
      <path d="M 215.06 616.71564 
L 215.06 367.2189 
" clip-path="url(#p0507646401)" style="fill: none; stroke: #cccccc; stroke-linecap: round"/>
     </g>
     <g id="text_15">
      <!-- 40 -->
      <g style="fill: #262626" transform="translate(206.1525 636.853453) scale(0.14 -0.14)">
       <use xlink:href="#DejaVuSans-34"/>
       <use xlink:href="#DejaVuSans-30" x="63.623047"/>
      </g>
     </g>
    </g>
    <g id="xtick_14">
     <g id="line2d_31">
      <path d="M 257.52 616.71564 
L 257.52 367.2189 
" clip-path="url(#p0507646401)" style="fill: none; stroke: #cccccc; stroke-linecap: round"/>
     </g>
     <g id="text_16">
      <!-- 60 -->
      <g style="fill: #262626" transform="translate(248.6125 636.853453) scale(0.14 -0.14)">
       <use xlink:href="#DejaVuSans-36"/>
       <use xlink:href="#DejaVuSans-30" x="63.623047"/>
      </g>
     </g>
    </g>
    <g id="xtick_15">
     <g id="line2d_32">
      <path d="M 299.98 616.71564 
L 299.98 367.2189 
" clip-path="url(#p0507646401)" style="fill: none; stroke: #cccccc; stroke-linecap: round"/>
     </g>
     <g id="text_17">
      <!-- 80 -->
      <g style="fill: #262626" transform="translate(291.0725 636.853453) scale(0.14 -0.14)">
       <defs>
        <path id="DejaVuSans-38" d="M 2034 2216 
Q 1584 2216 1326 1975 
Q 1069 1734 1069 1313 
Q 1069 891 1326 650 
Q 1584 409 2034 409 
Q 2484 409 2743 651 
Q 3003 894 3003 1313 
Q 3003 1734 2745 1975 
Q 2488 2216 2034 2216 
z
M 1403 2484 
Q 997 2584 770 2862 
Q 544 3141 544 3541 
Q 544 4100 942 4425 
Q 1341 4750 2034 4750 
Q 2731 4750 3128 4425 
Q 3525 4100 3525 3541 
Q 3525 3141 3298 2862 
Q 3072 2584 2669 2484 
Q 3125 2378 3379 2068 
Q 3634 1759 3634 1313 
Q 3634 634 3220 271 
Q 2806 -91 2034 -91 
Q 1263 -91 848 271 
Q 434 634 434 1313 
Q 434 1759 690 2068 
Q 947 2378 1403 2484 
z
M 1172 3481 
Q 1172 3119 1398 2916 
Q 1625 2713 2034 2713 
Q 2441 2713 2670 2916 
Q 2900 3119 2900 3481 
Q 2900 3844 2670 4047 
Q 2441 4250 2034 4250 
Q 1625 4250 1398 4047 
Q 1172 3844 1172 3481 
z
" transform="scale(0.015625)"/>
       </defs>
       <use xlink:href="#DejaVuSans-38"/>
       <use xlink:href="#DejaVuSans-30" x="63.623047"/>
      </g>
     </g>
    </g>
    <g id="xtick_16">
     <g id="line2d_33">
      <path d="M 342.44 616.71564 
L 342.44 367.2189 
" clip-path="url(#p0507646401)" style="fill: none; stroke: #cccccc; stroke-linecap: round"/>
     </g>
     <g id="text_18">
      <!-- 100 -->
      <g style="fill: #262626" transform="translate(329.07875 636.853453) scale(0.14 -0.14)">
       <use xlink:href="#DejaVuSans-31"/>
       <use xlink:href="#DejaVuSans-30" x="63.623047"/>
       <use xlink:href="#DejaVuSans-30" x="127.246094"/>
      </g>
     </g>
    </g>
    <g id="xtick_17">
     <g id="line2d_34">
      <path d="M 384.9 616.71564 
L 384.9 367.2189 
" clip-path="url(#p0507646401)" style="fill: none; stroke: #cccccc; stroke-linecap: round"/>
     </g>
     <g id="text_19">
      <!-- 120 -->
      <g style="fill: #262626" transform="translate(371.53875 636.853453) scale(0.14 -0.14)">
       <use xlink:href="#DejaVuSans-31"/>
       <use xlink:href="#DejaVuSans-32" x="63.623047"/>
       <use xlink:href="#DejaVuSans-30" x="127.246094"/>
      </g>
     </g>
    </g>
    <g id="xtick_18">
     <g id="line2d_35">
      <path d="M 427.36 616.71564 
L 427.36 367.2189 
" clip-path="url(#p0507646401)" style="fill: none; stroke: #cccccc; stroke-linecap: round"/>
     </g>
     <g id="text_20">
      <!-- 140 -->
      <g style="fill: #262626" transform="translate(413.99875 636.853453) scale(0.14 -0.14)">
       <use xlink:href="#DejaVuSans-31"/>
       <use xlink:href="#DejaVuSans-34" x="63.623047"/>
       <use xlink:href="#DejaVuSans-30" x="127.246094"/>
      </g>
     </g>
    </g>
    <g id="xtick_19">
     <g id="line2d_36">
      <path d="M 469.82 616.71564 
L 469.82 367.2189 
" clip-path="url(#p0507646401)" style="fill: none; stroke: #cccccc; stroke-linecap: round"/>
     </g>
     <g id="text_21">
      <!-- 160 -->
      <g style="fill: #262626" transform="translate(456.45875 636.853453) scale(0.14 -0.14)">
       <use xlink:href="#DejaVuSans-31"/>
       <use xlink:href="#DejaVuSans-36" x="63.623047"/>
       <use xlink:href="#DejaVuSans-30" x="127.246094"/>
      </g>
     </g>
    </g>
    <g id="xtick_20">
     <g id="line2d_37">
      <path d="M 512.28 616.71564 
L 512.28 367.2189 
" clip-path="url(#p0507646401)" style="fill: none; stroke: #cccccc; stroke-linecap: round"/>
     </g>
     <g id="text_22">
      <!-- 180 -->
      <g style="fill: #262626" transform="translate(498.91875 636.853453) scale(0.14 -0.14)">
       <use xlink:href="#DejaVuSans-31"/>
       <use xlink:href="#DejaVuSans-38" x="63.623047"/>
       <use xlink:href="#DejaVuSans-30" x="127.246094"/>
      </g>
     </g>
    </g>
    <g id="text_23">
     <!-- Steps -->
     <g style="fill: #262626" transform="translate(298.82625 655.922515) scale(0.16 -0.16)">
      <defs>
       <path id="DejaVuSans-53" d="M 3425 4513 
L 3425 3897 
Q 3066 4069 2747 4153 
Q 2428 4238 2131 4238 
Q 1616 4238 1336 4038 
Q 1056 3838 1056 3469 
Q 1056 3159 1242 3001 
Q 1428 2844 1947 2747 
L 2328 2669 
Q 3034 2534 3370 2195 
Q 3706 1856 3706 1288 
Q 3706 609 3251 259 
Q 2797 -91 1919 -91 
Q 1588 -91 1214 -16 
Q 841 59 441 206 
L 441 856 
Q 825 641 1194 531 
Q 1563 422 1919 422 
Q 2459 422 2753 634 
Q 3047 847 3047 1241 
Q 3047 1584 2836 1778 
Q 2625 1972 2144 2069 
L 1759 2144 
Q 1053 2284 737 2584 
Q 422 2884 422 3419 
Q 422 4038 858 4394 
Q 1294 4750 2059 4750 
Q 2388 4750 2728 4690 
Q 3069 4631 3425 4513 
z
" transform="scale(0.015625)"/>
       <path id="DejaVuSans-74" d="M 1172 4494 
L 1172 3500 
L 2356 3500 
L 2356 3053 
L 1172 3053 
L 1172 1153 
Q 1172 725 1289 603 
Q 1406 481 1766 481 
L 2356 481 
L 2356 0 
L 1766 0 
Q 1100 0 847 248 
Q 594 497 594 1153 
L 594 3053 
L 172 3053 
L 172 3500 
L 594 3500 
L 594 4494 
L 1172 4494 
z
" transform="scale(0.015625)"/>
       <path id="DejaVuSans-70" d="M 1159 525 
L 1159 -1331 
L 581 -1331 
L 581 3500 
L 1159 3500 
L 1159 2969 
Q 1341 3281 1617 3432 
Q 1894 3584 2278 3584 
Q 2916 3584 3314 3078 
Q 3713 2572 3713 1747 
Q 3713 922 3314 415 
Q 2916 -91 2278 -91 
Q 1894 -91 1617 61 
Q 1341 213 1159 525 
z
M 3116 1747 
Q 3116 2381 2855 2742 
Q 2594 3103 2138 3103 
Q 1681 3103 1420 2742 
Q 1159 2381 1159 1747 
Q 1159 1113 1420 752 
Q 1681 391 2138 391 
Q 2594 391 2855 752 
Q 3116 1113 3116 1747 
z
" transform="scale(0.015625)"/>
       <path id="DejaVuSans-73" d="M 2834 3397 
L 2834 2853 
Q 2591 2978 2328 3040 
Q 2066 3103 1784 3103 
Q 1356 3103 1142 2972 
Q 928 2841 928 2578 
Q 928 2378 1081 2264 
Q 1234 2150 1697 2047 
L 1894 2003 
Q 2506 1872 2764 1633 
Q 3022 1394 3022 966 
Q 3022 478 2636 193 
Q 2250 -91 1575 -91 
Q 1294 -91 989 -36 
Q 684 19 347 128 
L 347 722 
Q 666 556 975 473 
Q 1284 391 1588 391 
Q 1994 391 2212 530 
Q 2431 669 2431 922 
Q 2431 1156 2273 1281 
Q 2116 1406 1581 1522 
L 1381 1569 
Q 847 1681 609 1914 
Q 372 2147 372 2553 
Q 372 3047 722 3315 
Q 1072 3584 1716 3584 
Q 2034 3584 2315 3537 
Q 2597 3491 2834 3397 
z
" transform="scale(0.015625)"/>
      </defs>
      <use xlink:href="#DejaVuSans-53"/>
      <use xlink:href="#DejaVuSans-74" x="63.476562"/>
      <use xlink:href="#DejaVuSans-65" x="102.685547"/>
      <use xlink:href="#DejaVuSans-70" x="164.208984"/>
      <use xlink:href="#DejaVuSans-73" x="227.685547"/>
     </g>
    </g>
   </g>
   <g id="matplotlib.axis_4">
    <g id="ytick_9">
     <g id="line2d_38">
      <path d="M 130.14 616.71564 
L 512.28 616.71564 
" clip-path="url(#p0507646401)" style="fill: none; stroke: #cccccc; stroke-linecap: round"/>
     </g>
     <g id="text_24">
      <!-- −0.100 -->
      <g style="fill: #262626" transform="translate(68.829062 622.034546) scale(0.14 -0.14)">
       <defs>
        <path id="DejaVuSans-2e" d="M 684 794 
L 1344 794 
L 1344 0 
L 684 0 
L 684 794 
z
" transform="scale(0.015625)"/>
       </defs>
       <use xlink:href="#DejaVuSans-2212"/>
       <use xlink:href="#DejaVuSans-30" x="83.789062"/>
       <use xlink:href="#DejaVuSans-2e" x="147.412109"/>
       <use xlink:href="#DejaVuSans-31" x="179.199219"/>
       <use xlink:href="#DejaVuSans-30" x="242.822266"/>
       <use xlink:href="#DejaVuSans-30" x="306.445312"/>
      </g>
     </g>
    </g>
    <g id="ytick_10">
     <g id="line2d_39">
      <path d="M 130.14 585.528548 
L 512.28 585.528548 
" clip-path="url(#p0507646401)" style="fill: none; stroke: #cccccc; stroke-linecap: round"/>
     </g>
     <g id="text_25">
      <!-- −0.075 -->
      <g style="fill: #262626" transform="translate(68.829062 590.847454) scale(0.14 -0.14)">
       <defs>
        <path id="DejaVuSans-37" d="M 525 4666 
L 3525 4666 
L 3525 4397 
L 1831 0 
L 1172 0 
L 2766 4134 
L 525 4134 
L 525 4666 
z
" transform="scale(0.015625)"/>
       </defs>
       <use xlink:href="#DejaVuSans-2212"/>
       <use xlink:href="#DejaVuSans-30" x="83.789062"/>
       <use xlink:href="#DejaVuSans-2e" x="147.412109"/>
       <use xlink:href="#DejaVuSans-30" x="179.199219"/>
       <use xlink:href="#DejaVuSans-37" x="242.822266"/>
       <use xlink:href="#DejaVuSans-35" x="306.445312"/>
      </g>
     </g>
    </g>
    <g id="ytick_11">
     <g id="line2d_40">
      <path d="M 130.14 554.341455 
L 512.28 554.341455 
" clip-path="url(#p0507646401)" style="fill: none; stroke: #cccccc; stroke-linecap: round"/>
     </g>
     <g id="text_26">
      <!-- −0.050 -->
      <g style="fill: #262626" transform="translate(68.829062 559.660361) scale(0.14 -0.14)">
       <use xlink:href="#DejaVuSans-2212"/>
       <use xlink:href="#DejaVuSans-30" x="83.789062"/>
       <use xlink:href="#DejaVuSans-2e" x="147.412109"/>
       <use xlink:href="#DejaVuSans-30" x="179.199219"/>
       <use xlink:href="#DejaVuSans-35" x="242.822266"/>
       <use xlink:href="#DejaVuSans-30" x="306.445312"/>
      </g>
     </g>
    </g>
    <g id="ytick_12">
     <g id="line2d_41">
      <path d="M 130.14 523.154363 
L 512.28 523.154363 
" clip-path="url(#p0507646401)" style="fill: none; stroke: #cccccc; stroke-linecap: round"/>
     </g>
     <g id="text_27">
      <!-- −0.025 -->
      <g style="fill: #262626" transform="translate(68.829062 528.473269) scale(0.14 -0.14)">
       <use xlink:href="#DejaVuSans-2212"/>
       <use xlink:href="#DejaVuSans-30" x="83.789062"/>
       <use xlink:href="#DejaVuSans-2e" x="147.412109"/>
       <use xlink:href="#DejaVuSans-30" x="179.199219"/>
       <use xlink:href="#DejaVuSans-32" x="242.822266"/>
       <use xlink:href="#DejaVuSans-35" x="306.445312"/>
      </g>
     </g>
    </g>
    <g id="ytick_13">
     <g id="line2d_42">
      <path d="M 130.14 491.96727 
L 512.28 491.96727 
" clip-path="url(#p0507646401)" style="fill: none; stroke: #cccccc; stroke-linecap: round"/>
     </g>
     <g id="text_28">
      <!-- 0.000 -->
      <g style="fill: #262626" transform="translate(80.560625 497.286176) scale(0.14 -0.14)">
       <use xlink:href="#DejaVuSans-30"/>
       <use xlink:href="#DejaVuSans-2e" x="63.623047"/>
       <use xlink:href="#DejaVuSans-30" x="95.410156"/>
       <use xlink:href="#DejaVuSans-30" x="159.033203"/>
       <use xlink:href="#DejaVuSans-30" x="222.65625"/>
      </g>
     </g>
    </g>
    <g id="ytick_14">
     <g id="line2d_43">
      <path d="M 130.14 460.780178 
L 512.28 460.780178 
" clip-path="url(#p0507646401)" style="fill: none; stroke: #cccccc; stroke-linecap: round"/>
     </g>
     <g id="text_29">
      <!-- 0.025 -->
      <g style="fill: #262626" transform="translate(80.560625 466.099084) scale(0.14 -0.14)">
       <use xlink:href="#DejaVuSans-30"/>
       <use xlink:href="#DejaVuSans-2e" x="63.623047"/>
       <use xlink:href="#DejaVuSans-30" x="95.410156"/>
       <use xlink:href="#DejaVuSans-32" x="159.033203"/>
       <use xlink:href="#DejaVuSans-35" x="222.65625"/>
      </g>
     </g>
    </g>
    <g id="ytick_15">
     <g id="line2d_44">
      <path d="M 130.14 429.593085 
L 512.28 429.593085 
" clip-path="url(#p0507646401)" style="fill: none; stroke: #cccccc; stroke-linecap: round"/>
     </g>
     <g id="text_30">
      <!-- 0.050 -->
      <g style="fill: #262626" transform="translate(80.560625 434.911991) scale(0.14 -0.14)">
       <use xlink:href="#DejaVuSans-30"/>
       <use xlink:href="#DejaVuSans-2e" x="63.623047"/>
       <use xlink:href="#DejaVuSans-30" x="95.410156"/>
       <use xlink:href="#DejaVuSans-35" x="159.033203"/>
       <use xlink:href="#DejaVuSans-30" x="222.65625"/>
      </g>
     </g>
    </g>
    <g id="ytick_16">
     <g id="line2d_45">
      <path d="M 130.14 398.405993 
L 512.28 398.405993 
" clip-path="url(#p0507646401)" style="fill: none; stroke: #cccccc; stroke-linecap: round"/>
     </g>
     <g id="text_31">
      <!-- 0.075 -->
      <g style="fill: #262626" transform="translate(80.560625 403.724899) scale(0.14 -0.14)">
       <use xlink:href="#DejaVuSans-30"/>
       <use xlink:href="#DejaVuSans-2e" x="63.623047"/>
       <use xlink:href="#DejaVuSans-30" x="95.410156"/>
       <use xlink:href="#DejaVuSans-37" x="159.033203"/>
       <use xlink:href="#DejaVuSans-35" x="222.65625"/>
      </g>
     </g>
    </g>
    <g id="ytick_17">
     <g id="line2d_46">
      <path d="M 130.14 367.2189 
L 512.28 367.2189 
" clip-path="url(#p0507646401)" style="fill: none; stroke: #cccccc; stroke-linecap: round"/>
     </g>
     <g id="text_32">
      <!-- 0.100 -->
      <g style="fill: #262626" transform="translate(80.560625 372.537806) scale(0.14 -0.14)">
       <use xlink:href="#DejaVuSans-30"/>
       <use xlink:href="#DejaVuSans-2e" x="63.623047"/>
       <use xlink:href="#DejaVuSans-31" x="95.410156"/>
       <use xlink:href="#DejaVuSans-30" x="159.033203"/>
       <use xlink:href="#DejaVuSans-30" x="222.65625"/>
      </g>
     </g>
    </g>
    <g id="text_33">
     <!-- Torque (N·m) -->
     <g style="fill: #262626" transform="translate(61.501562 543.71352) rotate(-90) scale(0.16 -0.16)">
      <defs>
       <path id="DejaVuSans-54" d="M -19 4666 
L 3928 4666 
L 3928 4134 
L 2272 4134 
L 2272 0 
L 1638 0 
L 1638 4134 
L -19 4134 
L -19 4666 
z
" transform="scale(0.015625)"/>
       <path id="DejaVuSans-71" d="M 947 1747 
Q 947 1113 1208 752 
Q 1469 391 1925 391 
Q 2381 391 2643 752 
Q 2906 1113 2906 1747 
Q 2906 2381 2643 2742 
Q 2381 3103 1925 3103 
Q 1469 3103 1208 2742 
Q 947 2381 947 1747 
z
M 2906 525 
Q 2725 213 2448 61 
Q 2172 -91 1784 -91 
Q 1150 -91 751 415 
Q 353 922 353 1747 
Q 353 2572 751 3078 
Q 1150 3584 1784 3584 
Q 2172 3584 2448 3432 
Q 2725 3281 2906 2969 
L 2906 3500 
L 3481 3500 
L 3481 -1331 
L 2906 -1331 
L 2906 525 
z
" transform="scale(0.015625)"/>
       <path id="DejaVuSans-75" d="M 544 1381 
L 544 3500 
L 1119 3500 
L 1119 1403 
Q 1119 906 1312 657 
Q 1506 409 1894 409 
Q 2359 409 2629 706 
Q 2900 1003 2900 1516 
L 2900 3500 
L 3475 3500 
L 3475 0 
L 2900 0 
L 2900 538 
Q 2691 219 2414 64 
Q 2138 -91 1772 -91 
Q 1169 -91 856 284 
Q 544 659 544 1381 
z
M 1991 3584 
L 1991 3584 
z
" transform="scale(0.015625)"/>
       <path id="DejaVuSans-b7" d="M 684 2619 
L 1344 2619 
L 1344 1825 
L 684 1825 
L 684 2619 
z
" transform="scale(0.015625)"/>
       <path id="DejaVuSans-6d" d="M 3328 2828 
Q 3544 3216 3844 3400 
Q 4144 3584 4550 3584 
Q 5097 3584 5394 3201 
Q 5691 2819 5691 2113 
L 5691 0 
L 5113 0 
L 5113 2094 
Q 5113 2597 4934 2840 
Q 4756 3084 4391 3084 
Q 3944 3084 3684 2787 
Q 3425 2491 3425 1978 
L 3425 0 
L 2847 0 
L 2847 2094 
Q 2847 2600 2669 2842 
Q 2491 3084 2119 3084 
Q 1678 3084 1418 2786 
Q 1159 2488 1159 1978 
L 1159 0 
L 581 0 
L 581 3500 
L 1159 3500 
L 1159 2956 
Q 1356 3278 1631 3431 
Q 1906 3584 2284 3584 
Q 2666 3584 2933 3390 
Q 3200 3197 3328 2828 
z
" transform="scale(0.015625)"/>
      </defs>
      <use xlink:href="#DejaVuSans-54"/>
      <use xlink:href="#DejaVuSans-6f" x="44.083984"/>
      <use xlink:href="#DejaVuSans-72" x="105.265625"/>
      <use xlink:href="#DejaVuSans-71" x="144.628906"/>
      <use xlink:href="#DejaVuSans-75" x="208.105469"/>
      <use xlink:href="#DejaVuSans-65" x="271.484375"/>
      <use xlink:href="#DejaVuSans-20" x="333.007812"/>
      <use xlink:href="#DejaVuSans-28" x="364.794922"/>
      <use xlink:href="#DejaVuSans-4e" x="403.808594"/>
      <use xlink:href="#DejaVuSans-b7" x="478.613281"/>
      <use xlink:href="#DejaVuSans-6d" x="510.400391"/>
      <use xlink:href="#DejaVuSans-29" x="607.8125"/>
     </g>
    </g>
   </g>
   <g id="line2d_47">
    <path d="M 130.14 491.967326 
L 138.632 491.96726 
L 140.755 496.935337 
L 142.878 497.879811 
L 145.001 495.91439 
L 147.124 495.44204 
L 151.37 495.221266 
L 157.739 495.147615 
L 204.445 495.004604 
L 272.381 494.464256 
L 319.087 493.887407 
L 363.67 493.233844 
L 365.793 493.078013 
L 367.916 493.395018 
L 370.039 492.14954 
L 372.162 496.538369 
L 374.285 491.967191 
L 382.777 491.967017 
L 384.9 494.775176 
L 387.023 492.052149 
L 389.146 495.100892 
L 391.269 491.967207 
L 401.884 491.967033 
L 404.007 487.02996 
L 406.13 491.966989 
L 440.098 491.967107 
L 442.221 482.881678 
L 444.344 491.967095 
L 452.836 491.967691 
L 454.959 484.635759 
L 457.082 491.967101 
L 476.189 491.967147 
L 478.312 474.641923 
L 480.435 491.967105 
L 544.125 491.967214 
L 546.248 294.515736 
L 548.371 197.801266 
L 550.494 267.816642 
L 551.836916 -1 
L 551.836916 -1 
" clip-path="url(#p0507646401)" style="fill: none; stroke: #ff0000; stroke-opacity: 0.7; stroke-width: 1.5; stroke-linecap: round"/>
   </g>
   <g id="line2d_48">
    <path d="M 130.14 491.967064 
L 138.632 491.967316 
L 140.755 497.336961 
L 142.878 499.548266 
L 145.001 497.161028 
L 147.124 496.156581 
L 149.247 495.699063 
L 153.493 495.468743 
L 161.985 495.433828 
L 253.274 495.753547 
L 340.317 496.437021 
L 361.547 496.663213 
L 363.67 496.879927 
L 365.793 496.432242 
L 367.916 497.939158 
L 370.039 492.759785 
L 372.162 513.064756 
L 374.285 491.967048 
L 382.777 491.967366 
L 384.9 509.758289 
L 387.023 492.54077 
L 389.146 514.85056 
L 391.269 491.967015 
L 401.884 491.967349 
L 404.007 566.620367 
L 406.13 491.967498 
L 440.098 491.967319 
L 442.221 579.233541 
L 444.344 491.966953 
L 452.836 491.967963 
L 454.959 537.308419 
L 457.082 491.966938 
L 476.189 491.967316 
L 478.312 562.176691 
L 480.435 491.967451 
L 544.125 491.96735 
L 546.248 76.248847 
L 547.086148 -1 
L 547.086148 -1 
" clip-path="url(#p0507646401)" style="fill: none; stroke: #008000; stroke-opacity: 0.7; stroke-width: 1.5; stroke-linecap: round"/>
   </g>
   <g id="line2d_49">
    <path d="M 130.14 491.967256 
L 138.632 491.967244 
L 140.755 488.651158 
L 142.878 489.277068 
L 145.001 488.988 
L 149.247 489.583295 
L 153.493 489.751375 
L 166.231 489.793602 
L 244.782 489.814651 
L 361.547 489.803639 
L 363.67 489.715795 
L 365.793 489.9345 
L 367.916 489.259184 
L 370.039 491.611271 
L 372.162 482.349994 
L 374.285 491.966422 
L 382.777 491.966874 
L 384.9 484.315023 
L 387.023 491.719239 
L 389.146 481.850292 
L 391.269 491.966403 
L 401.884 491.966892 
L 404.007 457.494196 
L 406.13 491.965265 
L 440.098 491.966963 
L 442.221 457.80695 
L 444.344 491.966208 
L 452.836 491.909911 
L 454.959 471.150277 
L 457.082 491.966054 
L 476.189 491.967025 
L 478.312 463.0385 
L 480.435 491.96577 
L 544.125 491.967135 
L 546.248 364.520154 
L 548.371 326.101829 
L 550.494 156.189572 
L 552.617 161.066087 
L 552.617 161.066087 
" clip-path="url(#p0507646401)" style="fill: none; stroke: #0000ff; stroke-opacity: 0.7; stroke-width: 1.5; stroke-linecap: round"/>
   </g>
   <g id="line2d_50"/>
   <g id="line2d_51"/>
   <g id="line2d_52"/>
   <g id="patch_9">
    <path d="M 130.14 616.71564 
L 130.14 367.2189 
" style="fill: none; stroke: #cccccc; stroke-width: 1.25; stroke-linejoin: miter; stroke-linecap: square"/>
   </g>
   <g id="patch_10">
    <path d="M 512.28 616.71564 
L 512.28 367.2189 
" style="fill: none; stroke: #cccccc; stroke-width: 1.25; stroke-linejoin: miter; stroke-linecap: square"/>
   </g>
   <g id="patch_11">
    <path d="M 130.14 616.71564 
L 512.28 616.71564 
" style="fill: none; stroke: #cccccc; stroke-width: 1.25; stroke-linejoin: miter; stroke-linecap: square"/>
   </g>
   <g id="patch_12">
    <path d="M 130.14 367.2189 
L 512.28 367.2189 
" style="fill: none; stroke: #cccccc; stroke-width: 1.25; stroke-linejoin: miter; stroke-linecap: square"/>
   </g>
   <g id="legend_2">
    <g id="patch_13">
     <path d="M 440.842812 440.067025 
L 502.48 440.067025 
Q 505.28 440.067025 505.28 437.267025 
L 505.28 377.0189 
Q 505.28 374.2189 502.48 374.2189 
L 440.842812 374.2189 
Q 438.042812 374.2189 438.042812 377.0189 
L 438.042812 437.267025 
Q 438.042812 440.067025 440.842812 440.067025 
z
" style="fill: #ffffff; opacity: 0.6; stroke: #cccccc; stroke-linejoin: miter"/>
    </g>
    <g id="line2d_53">
     <path d="M 443.642812 385.556713 
L 457.642812 385.556713 
L 471.642812 385.556713 
" style="fill: none; stroke: #ff0000; stroke-opacity: 0.7; stroke-width: 1.5; stroke-linecap: round"/>
    </g>
    <g id="text_34">
     <!-- Tx -->
     <g style="fill: #262626" transform="translate(482.842812 390.456713) scale(0.14 -0.14)">
      <use xlink:href="#DejaVuSans-54"/>
      <use xlink:href="#DejaVuSans-78" x="61.083984"/>
     </g>
    </g>
    <g id="line2d_54">
     <path d="M 443.642812 406.106088 
L 457.642812 406.106088 
L 471.642812 406.106088 
" style="fill: none; stroke: #008000; stroke-opacity: 0.7; stroke-width: 1.5; stroke-linecap: round"/>
    </g>
    <g id="text_35">
     <!-- Ty -->
     <g style="fill: #262626" transform="translate(482.842812 411.006088) scale(0.14 -0.14)">
      <use xlink:href="#DejaVuSans-54"/>
      <use xlink:href="#DejaVuSans-79" x="45.458984"/>
     </g>
    </g>
    <g id="line2d_55">
     <path d="M 443.642812 426.655463 
L 457.642812 426.655463 
L 471.642812 426.655463 
" style="fill: none; stroke: #0000ff; stroke-opacity: 0.7; stroke-width: 1.5; stroke-linecap: round"/>
    </g>
    <g id="text_36">
     <!-- Tz -->
     <g style="fill: #262626" transform="translate(482.842812 431.555463) scale(0.14 -0.14)">
      <use xlink:href="#DejaVuSans-54"/>
      <use xlink:href="#DejaVuSans-7a" x="61.083984"/>
     </g>
    </g>
   </g>
  </g>
 </g>
 <defs>
  <clipPath id="p3e04170635">
   <rect x="130.14" y="54.7956" width="382.14" height="249.49674"/>
  </clipPath>
  <clipPath id="p0507646401">
   <rect x="130.14" y="367.2189" width="382.14" height="249.49674"/>
  </clipPath>
 </defs>
</svg>
