<?xml version="1.0" encoding="utf-8" standalone="no"?>
<!DOCTYPE svg PUBLIC "-//W3C//DTD SVG 1.1//EN"
  "http://www.w3.org/Graphics/SVG/1.1/DTD/svg11.dtd">
<svg xmlns:xlink="http://www.w3.org/1999/xlink" width="576pt" height="707.04pt" viewBox="0 0 576 707.04" xmlns="http://www.w3.org/2000/svg" version="1.1">
 <metadata>
  <rdf:RDF xmlns:dc="http://purl.org/dc/elements/1.1/" xmlns:cc="http://creativecommons.org/ns#" xmlns:rdf="http://www.w3.org/1999/02/22-rdf-syntax-ns#">
   <cc:Work>
    <dc:type rdf:resource="http://purl.org/dc/dcmitype/StillImage"/>
    <dc:date>2025-07-04T14:19:37.317458</dc:date>
    <dc:format>image/svg+xml</dc:format>
    <dc:creator>
     <cc:Agent>
      <dc:title>Matplotlib v3.7.5, https://matplotlib.org/</dc:title>
     </cc:Agent>
    </dc:creator>
   </cc:Work>
  </rdf:RDF>
 </metadata>
 <defs>
  <style type="text/css">*{stroke-linejoin: round; stroke-linecap: butt}</style>
 </defs>
 <g id="figure_1">
  <g id="patch_1">
   <path d="M 0 707.04 
L 576 707.04 
L 576 0 
L 0 0 
z
" style="fill: #ffffff"/>
  </g>
  <g id="axes_1">
   <g id="patch_2">
    <path d="M 67.59 323.20566 
L 551.07 323.20566 
L 551.07 21.91824 
L 67.59 21.91824 
z
" style="fill: #ffffff"/>
   </g>
   <g id="matplotlib.axis_1">
    <g id="xtick_1">
     <g id="line2d_1">
      <path d="M 67.59 323.20566 
L 67.59 21.91824 
" clip-path="url(#p797ef85687)" style="fill: none; stroke: #cccccc; stroke-linecap: round"/>
     </g>
    </g>
    <g id="xtick_2">
     <g id="line2d_2">
      <path d="M 91.764 323.20566 
L 91.764 21.91824 
" clip-path="url(#p797ef85687)" style="fill: none; stroke: #cccccc; stroke-linecap: round"/>
     </g>
    </g>
    <g id="xtick_3">
     <g id="line2d_3">
      <path d="M 115.938 323.20566 
L 115.938 21.91824 
" clip-path="url(#p797ef85687)" style="fill: none; stroke: #cccccc; stroke-linecap: round"/>
     </g>
    </g>
    <g id="xtick_4">
     <g id="line2d_4">
      <path d="M 140.112 323.20566 
L 140.112 21.91824 
" clip-path="url(#p797ef85687)" style="fill: none; stroke: #cccccc; stroke-linecap: round"/>
     </g>
    </g>
    <g id="xtick_5">
     <g id="line2d_5">
      <path d="M 164.286 323.20566 
L 164.286 21.91824 
" clip-path="url(#p797ef85687)" style="fill: none; stroke: #cccccc; stroke-linecap: round"/>
     </g>
    </g>
    <g id="xtick_6">
     <g id="line2d_6">
      <path d="M 188.46 323.20566 
L 188.46 21.91824 
" clip-path="url(#p797ef85687)" style="fill: none; stroke: #cccccc; stroke-linecap: round"/>
     </g>
    </g>
    <g id="xtick_7">
     <g id="line2d_7">
      <path d="M 212.634 323.20566 
L 212.634 21.91824 
" clip-path="url(#p797ef85687)" style="fill: none; stroke: #cccccc; stroke-linecap: round"/>
     </g>
    </g>
    <g id="xtick_8">
     <g id="line2d_8">
      <path d="M 236.808 323.20566 
L 236.808 21.91824 
" clip-path="url(#p797ef85687)" style="fill: none; stroke: #cccccc; stroke-linecap: round"/>
     </g>
    </g>
    <g id="xtick_9">
     <g id="line2d_9">
      <path d="M 260.982 323.20566 
L 260.982 21.91824 
" clip-path="url(#p797ef85687)" style="fill: none; stroke: #cccccc; stroke-linecap: round"/>
     </g>
    </g>
    <g id="xtick_10">
     <g id="line2d_10">
      <path d="M 285.156 323.20566 
L 285.156 21.91824 
" clip-path="url(#p797ef85687)" style="fill: none; stroke: #cccccc; stroke-linecap: round"/>
     </g>
    </g>
    <g id="xtick_11">
     <g id="line2d_11">
      <path d="M 309.33 323.20566 
L 309.33 21.91824 
" clip-path="url(#p797ef85687)" style="fill: none; stroke: #cccccc; stroke-linecap: round"/>
     </g>
    </g>
    <g id="xtick_12">
     <g id="line2d_12">
      <path d="M 333.504 323.20566 
L 333.504 21.91824 
" clip-path="url(#p797ef85687)" style="fill: none; stroke: #cccccc; stroke-linecap: round"/>
     </g>
    </g>
    <g id="xtick_13">
     <g id="line2d_13">
      <path d="M 357.678 323.20566 
L 357.678 21.91824 
" clip-path="url(#p797ef85687)" style="fill: none; stroke: #cccccc; stroke-linecap: round"/>
     </g>
    </g>
    <g id="xtick_14">
     <g id="line2d_14">
      <path d="M 381.852 323.20566 
L 381.852 21.91824 
" clip-path="url(#p797ef85687)" style="fill: none; stroke: #cccccc; stroke-linecap: round"/>
     </g>
    </g>
    <g id="xtick_15">
     <g id="line2d_15">
      <path d="M 406.026 323.20566 
L 406.026 21.91824 
" clip-path="url(#p797ef85687)" style="fill: none; stroke: #cccccc; stroke-linecap: round"/>
     </g>
    </g>
    <g id="xtick_16">
     <g id="line2d_16">
      <path d="M 430.2 323.20566 
L 430.2 21.91824 
" clip-path="url(#p797ef85687)" style="fill: none; stroke: #cccccc; stroke-linecap: round"/>
     </g>
    </g>
    <g id="xtick_17">
     <g id="line2d_17">
      <path d="M 454.374 323.20566 
L 454.374 21.91824 
" clip-path="url(#p797ef85687)" style="fill: none; stroke: #cccccc; stroke-linecap: round"/>
     </g>
    </g>
    <g id="xtick_18">
     <g id="line2d_18">
      <path d="M 478.548 323.20566 
L 478.548 21.91824 
" clip-path="url(#p797ef85687)" style="fill: none; stroke: #cccccc; stroke-linecap: round"/>
     </g>
    </g>
    <g id="xtick_19">
     <g id="line2d_19">
      <path d="M 502.722 323.20566 
L 502.722 21.91824 
" clip-path="url(#p797ef85687)" style="fill: none; stroke: #cccccc; stroke-linecap: round"/>
     </g>
    </g>
    <g id="xtick_20">
     <g id="line2d_20">
      <path d="M 526.896 323.20566 
L 526.896 21.91824 
" clip-path="url(#p797ef85687)" style="fill: none; stroke: #cccccc; stroke-linecap: round"/>
     </g>
    </g>
    <g id="xtick_21">
     <g id="line2d_21">
      <path d="M 551.07 323.20566 
L 551.07 21.91824 
" clip-path="url(#p797ef85687)" style="fill: none; stroke: #cccccc; stroke-linecap: round"/>
     </g>
    </g>
   </g>
   <g id="matplotlib.axis_2">
    <g id="ytick_1">
     <g id="line2d_22">
      <path d="M 67.59 323.20566 
L 551.07 323.20566 
" clip-path="url(#p797ef85687)" style="fill: none; stroke: #cccccc; stroke-linecap: round"/>
     </g>
     <g id="text_1">
      <!-- −60 -->
      <g style="fill: #262626" transform="translate(34.874844 327.384801) scale(0.11 -0.11)">
       <defs>
        <path id="DejaVuSans-2212" d="M 678 2272 
L 4684 2272 
L 4684 1741 
L 678 1741 
L 678 2272 
z
" transform="scale(0.015625)"/>
        <path id="DejaVuSans-36" d="M 2113 2584 
Q 1688 2584 1439 2293 
Q 1191 2003 1191 1497 
Q 1191 994 1439 701 
Q 1688 409 2113 409 
Q 2538 409 2786 701 
Q 3034 994 3034 1497 
Q 3034 2003 2786 2293 
Q 2538 2584 2113 2584 
z
M 3366 4563 
L 3366 3988 
Q 3128 4100 2886 4159 
Q 2644 4219 2406 4219 
Q 1781 4219 1451 3797 
Q 1122 3375 1075 2522 
Q 1259 2794 1537 2939 
Q 1816 3084 2150 3084 
Q 2853 3084 3261 2657 
Q 3669 2231 3669 1497 
Q 3669 778 3244 343 
Q 2819 -91 2113 -91 
Q 1303 -91 875 529 
Q 447 1150 447 2328 
Q 447 3434 972 4092 
Q 1497 4750 2381 4750 
Q 2619 4750 2861 4703 
Q 3103 4656 3366 4563 
z
" transform="scale(0.015625)"/>
        <path id="DejaVuSans-30" d="M 2034 4250 
Q 1547 4250 1301 3770 
Q 1056 3291 1056 2328 
Q 1056 1369 1301 889 
Q 1547 409 2034 409 
Q 2525 409 2770 889 
Q 3016 1369 3016 2328 
Q 3016 3291 2770 3770 
Q 2525 4250 2034 4250 
z
M 2034 4750 
Q 2819 4750 3233 4129 
Q 3647 3509 3647 2328 
Q 3647 1150 3233 529 
Q 2819 -91 2034 -91 
Q 1250 -91 836 529 
Q 422 1150 422 2328 
Q 422 3509 836 4129 
Q 1250 4750 2034 4750 
z
" transform="scale(0.015625)"/>
       </defs>
       <use xlink:href="#DejaVuSans-2212"/>
       <use xlink:href="#DejaVuSans-36" x="83.789062"/>
       <use xlink:href="#DejaVuSans-30" x="147.412109"/>
      </g>
     </g>
    </g>
    <g id="ytick_2">
     <g id="line2d_23">
      <path d="M 67.59 280.1646 
L 551.07 280.1646 
" clip-path="url(#p797ef85687)" style="fill: none; stroke: #cccccc; stroke-linecap: round"/>
     </g>
     <g id="text_2">
      <!-- −40 -->
      <g style="fill: #262626" transform="translate(34.874844 284.343741) scale(0.11 -0.11)">
       <defs>
        <path id="DejaVuSans-34" d="M 2419 4116 
L 825 1625 
L 2419 1625 
L 2419 4116 
z
M 2253 4666 
L 3047 4666 
L 3047 1625 
L 3713 1625 
L 3713 1100 
L 3047 1100 
L 3047 0 
L 2419 0 
L 2419 1100 
L 313 1100 
L 313 1709 
L 2253 4666 
z
" transform="scale(0.015625)"/>
       </defs>
       <use xlink:href="#DejaVuSans-2212"/>
       <use xlink:href="#DejaVuSans-34" x="83.789062"/>
       <use xlink:href="#DejaVuSans-30" x="147.412109"/>
      </g>
     </g>
    </g>
    <g id="ytick_3">
     <g id="line2d_24">
      <path d="M 67.59 237.12354 
L 551.07 237.12354 
" clip-path="url(#p797ef85687)" style="fill: none; stroke: #cccccc; stroke-linecap: round"/>
     </g>
     <g id="text_3">
      <!-- −20 -->
      <g style="fill: #262626" transform="translate(34.874844 241.302681) scale(0.11 -0.11)">
       <defs>
        <path id="DejaVuSans-32" d="M 1228 531 
L 3431 531 
L 3431 0 
L 469 0 
L 469 531 
Q 828 903 1448 1529 
Q 2069 2156 2228 2338 
Q 2531 2678 2651 2914 
Q 2772 3150 2772 3378 
Q 2772 3750 2511 3984 
Q 2250 4219 1831 4219 
Q 1534 4219 1204 4116 
Q 875 4013 500 3803 
L 500 4441 
Q 881 4594 1212 4672 
Q 1544 4750 1819 4750 
Q 2544 4750 2975 4387 
Q 3406 4025 3406 3419 
Q 3406 3131 3298 2873 
Q 3191 2616 2906 2266 
Q 2828 2175 2409 1742 
Q 1991 1309 1228 531 
z
" transform="scale(0.015625)"/>
       </defs>
       <use xlink:href="#DejaVuSans-2212"/>
       <use xlink:href="#DejaVuSans-32" x="83.789062"/>
       <use xlink:href="#DejaVuSans-30" x="147.412109"/>
      </g>
     </g>
    </g>
    <g id="ytick_4">
     <g id="line2d_25">
      <path d="M 67.59 194.08248 
L 551.07 194.08248 
" clip-path="url(#p797ef85687)" style="fill: none; stroke: #cccccc; stroke-linecap: round"/>
     </g>
     <g id="text_4">
      <!-- 0 -->
      <g style="fill: #262626" transform="translate(51.09125 198.261621) scale(0.11 -0.11)">
       <use xlink:href="#DejaVuSans-30"/>
      </g>
     </g>
    </g>
    <g id="ytick_5">
     <g id="line2d_26">
      <path d="M 67.59 151.04142 
L 551.07 151.04142 
" clip-path="url(#p797ef85687)" style="fill: none; stroke: #cccccc; stroke-linecap: round"/>
     </g>
     <g id="text_5">
      <!-- 20 -->
      <g style="fill: #262626" transform="translate(44.0925 155.220561) scale(0.11 -0.11)">
       <use xlink:href="#DejaVuSans-32"/>
       <use xlink:href="#DejaVuSans-30" x="63.623047"/>
      </g>
     </g>
    </g>
    <g id="ytick_6">
     <g id="line2d_27">
      <path d="M 67.59 108.00036 
L 551.07 108.00036 
" clip-path="url(#p797ef85687)" style="fill: none; stroke: #cccccc; stroke-linecap: round"/>
     </g>
     <g id="text_6">
      <!-- 40 -->
      <g style="fill: #262626" transform="translate(44.0925 112.179501) scale(0.11 -0.11)">
       <use xlink:href="#DejaVuSans-34"/>
       <use xlink:href="#DejaVuSans-30" x="63.623047"/>
      </g>
     </g>
    </g>
    <g id="ytick_7">
     <g id="line2d_28">
      <path d="M 67.59 64.9593 
L 551.07 64.9593 
" clip-path="url(#p797ef85687)" style="fill: none; stroke: #cccccc; stroke-linecap: round"/>
     </g>
     <g id="text_7">
      <!-- 60 -->
      <g style="fill: #262626" transform="translate(44.0925 69.138441) scale(0.11 -0.11)">
       <use xlink:href="#DejaVuSans-36"/>
       <use xlink:href="#DejaVuSans-30" x="63.623047"/>
      </g>
     </g>
    </g>
    <g id="ytick_8">
     <g id="line2d_29">
      <path d="M 67.59 21.91824 
L 551.07 21.91824 
" clip-path="url(#p797ef85687)" style="fill: none; stroke: #cccccc; stroke-linecap: round"/>
     </g>
     <g id="text_8">
      <!-- 80 -->
      <g style="fill: #262626" transform="translate(44.0925 26.097381) scale(0.11 -0.11)">
       <defs>
        <path id="DejaVuSans-38" d="M 2034 2216 
Q 1584 2216 1326 1975 
Q 1069 1734 1069 1313 
Q 1069 891 1326 650 
Q 1584 409 2034 409 
Q 2484 409 2743 651 
Q 3003 894 3003 1313 
Q 3003 1734 2745 1975 
Q 2488 2216 2034 2216 
z
M 1403 2484 
Q 997 2584 770 2862 
Q 544 3141 544 3541 
Q 544 4100 942 4425 
Q 1341 4750 2034 4750 
Q 2731 4750 3128 4425 
Q 3525 4100 3525 3541 
Q 3525 3141 3298 2862 
Q 3072 2584 2669 2484 
Q 3125 2378 3379 2068 
Q 3634 1759 3634 1313 
Q 3634 634 3220 271 
Q 2806 -91 2034 -91 
Q 1263 -91 848 271 
Q 434 634 434 1313 
Q 434 1759 690 2068 
Q 947 2378 1403 2484 
z
M 1172 3481 
Q 1172 3119 1398 2916 
Q 1625 2713 2034 2713 
Q 2441 2713 2670 2916 
Q 2900 3119 2900 3481 
Q 2900 3844 2670 4047 
Q 2441 4250 2034 4250 
Q 1625 4250 1398 4047 
Q 1172 3844 1172 3481 
z
" transform="scale(0.015625)"/>
       </defs>
       <use xlink:href="#DejaVuSans-38"/>
       <use xlink:href="#DejaVuSans-30" x="63.623047"/>
      </g>
     </g>
    </g>
    <g id="text_9">
     <!-- Force (N) -->
     <g style="fill: #262626" transform="translate(28.379219 199.866638) rotate(-90) scale(0.12 -0.12)">
      <defs>
       <path id="DejaVuSans-46" d="M 628 4666 
L 3309 4666 
L 3309 4134 
L 1259 4134 
L 1259 2759 
L 3109 2759 
L 3109 2228 
L 1259 2228 
L 1259 0 
L 628 0 
L 628 4666 
z
" transform="scale(0.015625)"/>
       <path id="DejaVuSans-6f" d="M 1959 3097 
Q 1497 3097 1228 2736 
Q 959 2375 959 1747 
Q 959 1119 1226 758 
Q 1494 397 1959 397 
Q 2419 397 2687 759 
Q 2956 1122 2956 1747 
Q 2956 2369 2687 2733 
Q 2419 3097 1959 3097 
z
M 1959 3584 
Q 2709 3584 3137 3096 
Q 3566 2609 3566 1747 
Q 3566 888 3137 398 
Q 2709 -91 1959 -91 
Q 1206 -91 779 398 
Q 353 888 353 1747 
Q 353 2609 779 3096 
Q 1206 3584 1959 3584 
z
" transform="scale(0.015625)"/>
       <path id="DejaVuSans-72" d="M 2631 2963 
Q 2534 3019 2420 3045 
Q 2306 3072 2169 3072 
Q 1681 3072 1420 2755 
Q 1159 2438 1159 1844 
L 1159 0 
L 581 0 
L 581 3500 
L 1159 3500 
L 1159 2956 
Q 1341 3275 1631 3429 
Q 1922 3584 2338 3584 
Q 2397 3584 2469 3576 
Q 2541 3569 2628 3553 
L 2631 2963 
z
" transform="scale(0.015625)"/>
       <path id="DejaVuSans-63" d="M 3122 3366 
L 3122 2828 
Q 2878 2963 2633 3030 
Q 2388 3097 2138 3097 
Q 1578 3097 1268 2742 
Q 959 2388 959 1747 
Q 959 1106 1268 751 
Q 1578 397 2138 397 
Q 2388 397 2633 464 
Q 2878 531 3122 666 
L 3122 134 
Q 2881 22 2623 -34 
Q 2366 -91 2075 -91 
Q 1284 -91 818 406 
Q 353 903 353 1747 
Q 353 2603 823 3093 
Q 1294 3584 2113 3584 
Q 2378 3584 2631 3529 
Q 2884 3475 3122 3366 
z
" transform="scale(0.015625)"/>
       <path id="DejaVuSans-65" d="M 3597 1894 
L 3597 1613 
L 953 1613 
Q 991 1019 1311 708 
Q 1631 397 2203 397 
Q 2534 397 2845 478 
Q 3156 559 3463 722 
L 3463 178 
Q 3153 47 2828 -22 
Q 2503 -91 2169 -91 
Q 1331 -91 842 396 
Q 353 884 353 1716 
Q 353 2575 817 3079 
Q 1281 3584 2069 3584 
Q 2775 3584 3186 3129 
Q 3597 2675 3597 1894 
z
M 3022 2063 
Q 3016 2534 2758 2815 
Q 2500 3097 2075 3097 
Q 1594 3097 1305 2825 
Q 1016 2553 972 2059 
L 3022 2063 
z
" transform="scale(0.015625)"/>
       <path id="DejaVuSans-20" transform="scale(0.015625)"/>
       <path id="DejaVuSans-28" d="M 1984 4856 
Q 1566 4138 1362 3434 
Q 1159 2731 1159 2009 
Q 1159 1288 1364 580 
Q 1569 -128 1984 -844 
L 1484 -844 
Q 1016 -109 783 600 
Q 550 1309 550 2009 
Q 550 2706 781 3412 
Q 1013 4119 1484 4856 
L 1984 4856 
z
" transform="scale(0.015625)"/>
       <path id="DejaVuSans-4e" d="M 628 4666 
L 1478 4666 
L 3547 763 
L 3547 4666 
L 4159 4666 
L 4159 0 
L 3309 0 
L 1241 3903 
L 1241 0 
L 628 0 
L 628 4666 
z
" transform="scale(0.015625)"/>
       <path id="DejaVuSans-29" d="M 513 4856 
L 1013 4856 
Q 1481 4119 1714 3412 
Q 1947 2706 1947 2009 
Q 1947 1309 1714 600 
Q 1481 -109 1013 -844 
L 513 -844 
Q 928 -128 1133 580 
Q 1338 1288 1338 2009 
Q 1338 2731 1133 3434 
Q 928 4138 513 4856 
z
" transform="scale(0.015625)"/>
      </defs>
      <use xlink:href="#DejaVuSans-46"/>
      <use xlink:href="#DejaVuSans-6f" x="53.894531"/>
      <use xlink:href="#DejaVuSans-72" x="115.076172"/>
      <use xlink:href="#DejaVuSans-63" x="153.939453"/>
      <use xlink:href="#DejaVuSans-65" x="208.919922"/>
      <use xlink:href="#DejaVuSans-20" x="270.443359"/>
      <use xlink:href="#DejaVuSans-28" x="302.230469"/>
      <use xlink:href="#DejaVuSans-4e" x="341.244141"/>
      <use xlink:href="#DejaVuSans-29" x="416.048828"/>
     </g>
    </g>
   </g>
   <g id="line2d_30">
    <path d="M 67.59 194.082508 
L 91.764 194.082507 
L 115.938 194.082508 
L 140.112 194.082507 
L 164.286 194.082508 
L 188.46 194.082507 
L 212.634 194.082508 
L 236.808 191.217855 
L 260.982 193.232959 
L 285.156 45.30855 
L 309.33 178.641694 
L 333.504 47.32101 
L 357.678 155.495886 
L 381.852 194.082501 
L 406.026 194.082508 
L 430.2 194.082507 
L 454.374 194.082507 
L 478.548 194.082507 
L 502.722 194.082508 
L 526.896 194.082507 
L 551.07 194.082508 
" clip-path="url(#p797ef85687)" style="fill: none; stroke: #ff0000; stroke-opacity: 0.7; stroke-width: 1.5; stroke-linecap: round"/>
   </g>
   <g id="line2d_31">
    <path d="M 67.59 194.082486 
L 91.764 194.082487 
L 115.938 194.082486 
L 140.112 194.082487 
L 164.286 194.082486 
L 188.46 194.082487 
L 212.634 194.082486 
L 236.808 193.1676 
L 260.982 193.454788 
L 285.156 139.228267 
L 309.33 155.160838 
L 333.504 112.191176 
L 357.678 114.763782 
L 381.852 194.082454 
L 406.026 194.082487 
L 430.2 194.082488 
L 454.374 194.082487 
L 478.548 194.082487 
L 502.722 194.082487 
L 526.896 194.082487 
L 551.07 194.082487 
" clip-path="url(#p797ef85687)" style="fill: none; stroke: #008000; stroke-opacity: 0.7; stroke-width: 1.5; stroke-linecap: round"/>
   </g>
   <g id="line2d_32">
    <path d="M 67.59 194.082482 
L 91.764 194.082482 
L 115.938 194.082482 
L 140.112 194.082482 
L 164.286 194.082482 
L 188.46 194.082482 
L 212.634 194.082482 
L 236.808 193.44815 
L 260.982 193.694913 
L 285.156 170.456978 
L 309.33 180.536343 
L 333.504 130.758946 
L 357.678 154.110766 
L 381.852 194.082483 
L 406.026 194.082482 
L 430.2 194.082482 
L 454.374 194.082482 
L 478.548 194.082482 
L 502.722 194.082482 
L 526.896 194.082482 
L 551.07 194.082482 
" clip-path="url(#p797ef85687)" style="fill: none; stroke: #0000ff; stroke-opacity: 0.7; stroke-width: 1.5; stroke-linecap: round"/>
   </g>
   <g id="line2d_33"/>
   <g id="line2d_34"/>
   <g id="line2d_35"/>
   <g id="patch_3">
    <path d="M 67.59 323.20566 
L 67.59 21.91824 
" style="fill: none; stroke: #cccccc; stroke-width: 1.25; stroke-linejoin: miter; stroke-linecap: square"/>
   </g>
   <g id="patch_4">
    <path d="M 551.07 323.20566 
L 551.07 21.91824 
" style="fill: none; stroke: #cccccc; stroke-width: 1.25; stroke-linejoin: miter; stroke-linecap: square"/>
   </g>
   <g id="patch_5">
    <path d="M 67.59 323.20566 
L 551.07 323.20566 
" style="fill: none; stroke: #cccccc; stroke-width: 1.25; stroke-linejoin: miter; stroke-linecap: square"/>
   </g>
   <g id="patch_6">
    <path d="M 67.59 21.91824 
L 551.07 21.91824 
" style="fill: none; stroke: #cccccc; stroke-width: 1.25; stroke-linejoin: miter; stroke-linecap: square"/>
   </g>
   <g id="legend_1">
    <g id="patch_7">
     <path d="M 512.53375 65.54574 
L 547.47 65.54574 
Q 549.07 65.54574 549.07 63.94574 
L 549.07 29.51824 
Q 549.07 27.91824 547.47 27.91824 
L 512.53375 27.91824 
Q 510.93375 27.91824 510.93375 29.51824 
L 510.93375 63.94574 
Q 510.93375 65.54574 512.53375 65.54574 
z
" style="fill: #4c4c4c; opacity: 0.5; stroke: #4c4c4c; stroke-linejoin: miter"/>
    </g>
    <g id="patch_8">
     <path d="M 510.53375 63.54574 
L 545.47 63.54574 
Q 547.07 63.54574 547.07 61.94574 
L 547.07 27.51824 
Q 547.07 25.91824 545.47 25.91824 
L 510.53375 25.91824 
Q 508.93375 25.91824 508.93375 27.51824 
L 508.93375 61.94574 
Q 508.93375 63.54574 510.53375 63.54574 
z
" style="fill: #ffffff; stroke: #cccccc; stroke-linejoin: miter"/>
    </g>
    <g id="line2d_36">
     <path d="M 512.13375 32.39699 
L 520.13375 32.39699 
L 528.13375 32.39699 
" style="fill: none; stroke: #ff0000; stroke-opacity: 0.7; stroke-width: 1.5; stroke-linecap: round"/>
    </g>
    <g id="text_10">
     <!-- Fx -->
     <g style="fill: #262626" transform="translate(534.53375 35.19699) scale(0.08 -0.08)">
      <defs>
       <path id="DejaVuSans-78" d="M 3513 3500 
L 2247 1797 
L 3578 0 
L 2900 0 
L 1881 1375 
L 863 0 
L 184 0 
L 1544 1831 
L 300 3500 
L 978 3500 
L 1906 2253 
L 2834 3500 
L 3513 3500 
z
" transform="scale(0.015625)"/>
      </defs>
      <use xlink:href="#DejaVuSans-46"/>
      <use xlink:href="#DejaVuSans-78" x="57.519531"/>
     </g>
    </g>
    <g id="line2d_37">
     <path d="M 512.13375 44.13949 
L 520.13375 44.13949 
L 528.13375 44.13949 
" style="fill: none; stroke: #008000; stroke-opacity: 0.7; stroke-width: 1.5; stroke-linecap: round"/>
    </g>
    <g id="text_11">
     <!-- Fy -->
     <g style="fill: #262626" transform="translate(534.53375 46.93949) scale(0.08 -0.08)">
      <defs>
       <path id="DejaVuSans-79" d="M 2059 -325 
Q 1816 -950 1584 -1140 
Q 1353 -1331 966 -1331 
L 506 -1331 
L 506 -850 
L 844 -850 
Q 1081 -850 1212 -737 
Q 1344 -625 1503 -206 
L 1606 56 
L 191 3500 
L 800 3500 
L 1894 763 
L 2988 3500 
L 3597 3500 
L 2059 -325 
z
" transform="scale(0.015625)"/>
      </defs>
      <use xlink:href="#DejaVuSans-46"/>
      <use xlink:href="#DejaVuSans-79" x="48.394531"/>
     </g>
    </g>
    <g id="line2d_38">
     <path d="M 512.13375 55.88199 
L 520.13375 55.88199 
L 528.13375 55.88199 
" style="fill: none; stroke: #0000ff; stroke-opacity: 0.7; stroke-width: 1.5; stroke-linecap: round"/>
    </g>
    <g id="text_12">
     <!-- Fz -->
     <g style="fill: #262626" transform="translate(534.53375 58.68199) scale(0.08 -0.08)">
      <defs>
       <path id="DejaVuSans-7a" d="M 353 3500 
L 3084 3500 
L 3084 2975 
L 922 459 
L 3084 459 
L 3084 0 
L 275 0 
L 275 525 
L 2438 3041 
L 353 3041 
L 353 3500 
z
" transform="scale(0.015625)"/>
      </defs>
      <use xlink:href="#DejaVuSans-46"/>
      <use xlink:href="#DejaVuSans-7a" x="57.519531"/>
     </g>
    </g>
   </g>
  </g>
  <g id="axes_2">
   <g id="patch_9">
    <path d="M 67.59 652.77468 
L 551.07 652.77468 
L 551.07 351.48726 
L 67.59 351.48726 
z
" style="fill: #ffffff"/>
   </g>
   <g id="matplotlib.axis_3">
    <g id="xtick_22">
     <g id="line2d_39">
      <path d="M 67.59 652.77468 
L 67.59 351.48726 
" clip-path="url(#p67dc3e124d)" style="fill: none; stroke: #cccccc; stroke-linecap: round"/>
     </g>
     <g id="text_13">
      <!-- 0 -->
      <g style="fill: #262626" transform="translate(64.090625 670.632961) scale(0.11 -0.11)">
       <use xlink:href="#DejaVuSans-30"/>
      </g>
     </g>
    </g>
    <g id="xtick_23">
     <g id="line2d_40">
      <path d="M 91.764 652.77468 
L 91.764 351.48726 
" clip-path="url(#p67dc3e124d)" style="fill: none; stroke: #cccccc; stroke-linecap: round"/>
     </g>
     <g id="text_14">
      <!-- 1 -->
      <g style="fill: #262626" transform="translate(88.264625 670.632961) scale(0.11 -0.11)">
       <defs>
        <path id="DejaVuSans-31" d="M 794 531 
L 1825 531 
L 1825 4091 
L 703 3866 
L 703 4441 
L 1819 4666 
L 2450 4666 
L 2450 531 
L 3481 531 
L 3481 0 
L 794 0 
L 794 531 
z
" transform="scale(0.015625)"/>
       </defs>
       <use xlink:href="#DejaVuSans-31"/>
      </g>
     </g>
    </g>
    <g id="xtick_24">
     <g id="line2d_41">
      <path d="M 115.938 652.77468 
L 115.938 351.48726 
" clip-path="url(#p67dc3e124d)" style="fill: none; stroke: #cccccc; stroke-linecap: round"/>
     </g>
     <g id="text_15">
      <!-- 2 -->
      <g style="fill: #262626" transform="translate(112.438625 670.632961) scale(0.11 -0.11)">
       <use xlink:href="#DejaVuSans-32"/>
      </g>
     </g>
    </g>
    <g id="xtick_25">
     <g id="line2d_42">
      <path d="M 140.112 652.77468 
L 140.112 351.48726 
" clip-path="url(#p67dc3e124d)" style="fill: none; stroke: #cccccc; stroke-linecap: round"/>
     </g>
     <g id="text_16">
      <!-- 3 -->
      <g style="fill: #262626" transform="translate(136.612625 670.632961) scale(0.11 -0.11)">
       <defs>
        <path id="DejaVuSans-33" d="M 2597 2516 
Q 3050 2419 3304 2112 
Q 3559 1806 3559 1356 
Q 3559 666 3084 287 
Q 2609 -91 1734 -91 
Q 1441 -91 1130 -33 
Q 819 25 488 141 
L 488 750 
Q 750 597 1062 519 
Q 1375 441 1716 441 
Q 2309 441 2620 675 
Q 2931 909 2931 1356 
Q 2931 1769 2642 2001 
Q 2353 2234 1838 2234 
L 1294 2234 
L 1294 2753 
L 1863 2753 
Q 2328 2753 2575 2939 
Q 2822 3125 2822 3475 
Q 2822 3834 2567 4026 
Q 2313 4219 1838 4219 
Q 1578 4219 1281 4162 
Q 984 4106 628 3988 
L 628 4550 
Q 988 4650 1302 4700 
Q 1616 4750 1894 4750 
Q 2613 4750 3031 4423 
Q 3450 4097 3450 3541 
Q 3450 3153 3228 2886 
Q 3006 2619 2597 2516 
z
" transform="scale(0.015625)"/>
       </defs>
       <use xlink:href="#DejaVuSans-33"/>
      </g>
     </g>
    </g>
    <g id="xtick_26">
     <g id="line2d_43">
      <path d="M 164.286 652.77468 
L 164.286 351.48726 
" clip-path="url(#p67dc3e124d)" style="fill: none; stroke: #cccccc; stroke-linecap: round"/>
     </g>
     <g id="text_17">
      <!-- 4 -->
      <g style="fill: #262626" transform="translate(160.786625 670.632961) scale(0.11 -0.11)">
       <use xlink:href="#DejaVuSans-34"/>
      </g>
     </g>
    </g>
    <g id="xtick_27">
     <g id="line2d_44">
      <path d="M 188.46 652.77468 
L 188.46 351.48726 
" clip-path="url(#p67dc3e124d)" style="fill: none; stroke: #cccccc; stroke-linecap: round"/>
     </g>
     <g id="text_18">
      <!-- 5 -->
      <g style="fill: #262626" transform="translate(184.960625 670.632961) scale(0.11 -0.11)">
       <defs>
        <path id="DejaVuSans-35" d="M 691 4666 
L 3169 4666 
L 3169 4134 
L 1269 4134 
L 1269 2991 
Q 1406 3038 1543 3061 
Q 1681 3084 1819 3084 
Q 2600 3084 3056 2656 
Q 3513 2228 3513 1497 
Q 3513 744 3044 326 
Q 2575 -91 1722 -91 
Q 1428 -91 1123 -41 
Q 819 9 494 109 
L 494 744 
Q 775 591 1075 516 
Q 1375 441 1709 441 
Q 2250 441 2565 725 
Q 2881 1009 2881 1497 
Q 2881 1984 2565 2268 
Q 2250 2553 1709 2553 
Q 1456 2553 1204 2497 
Q 953 2441 691 2322 
L 691 4666 
z
" transform="scale(0.015625)"/>
       </defs>
       <use xlink:href="#DejaVuSans-35"/>
      </g>
     </g>
    </g>
    <g id="xtick_28">
     <g id="line2d_45">
      <path d="M 212.634 652.77468 
L 212.634 351.48726 
" clip-path="url(#p67dc3e124d)" style="fill: none; stroke: #cccccc; stroke-linecap: round"/>
     </g>
     <g id="text_19">
      <!-- 6 -->
      <g style="fill: #262626" transform="translate(209.134625 670.632961) scale(0.11 -0.11)">
       <use xlink:href="#DejaVuSans-36"/>
      </g>
     </g>
    </g>
    <g id="xtick_29">
     <g id="line2d_46">
      <path d="M 236.808 652.77468 
L 236.808 351.48726 
" clip-path="url(#p67dc3e124d)" style="fill: none; stroke: #cccccc; stroke-linecap: round"/>
     </g>
     <g id="text_20">
      <!-- 7 -->
      <g style="fill: #262626" transform="translate(233.308625 670.632961) scale(0.11 -0.11)">
       <defs>
        <path id="DejaVuSans-37" d="M 525 4666 
L 3525 4666 
L 3525 4397 
L 1831 0 
L 1172 0 
L 2766 4134 
L 525 4134 
L 525 4666 
z
" transform="scale(0.015625)"/>
       </defs>
       <use xlink:href="#DejaVuSans-37"/>
      </g>
     </g>
    </g>
    <g id="xtick_30">
     <g id="line2d_47">
      <path d="M 260.982 652.77468 
L 260.982 351.48726 
" clip-path="url(#p67dc3e124d)" style="fill: none; stroke: #cccccc; stroke-linecap: round"/>
     </g>
     <g id="text_21">
      <!-- 8 -->
      <g style="fill: #262626" transform="translate(257.482625 670.632961) scale(0.11 -0.11)">
       <use xlink:href="#DejaVuSans-38"/>
      </g>
     </g>
    </g>
    <g id="xtick_31">
     <g id="line2d_48">
      <path d="M 285.156 652.77468 
L 285.156 351.48726 
" clip-path="url(#p67dc3e124d)" style="fill: none; stroke: #cccccc; stroke-linecap: round"/>
     </g>
     <g id="text_22">
      <!-- 9 -->
      <g style="fill: #262626" transform="translate(281.656625 670.632961) scale(0.11 -0.11)">
       <defs>
        <path id="DejaVuSans-39" d="M 703 97 
L 703 672 
Q 941 559 1184 500 
Q 1428 441 1663 441 
Q 2288 441 2617 861 
Q 2947 1281 2994 2138 
Q 2813 1869 2534 1725 
Q 2256 1581 1919 1581 
Q 1219 1581 811 2004 
Q 403 2428 403 3163 
Q 403 3881 828 4315 
Q 1253 4750 1959 4750 
Q 2769 4750 3195 4129 
Q 3622 3509 3622 2328 
Q 3622 1225 3098 567 
Q 2575 -91 1691 -91 
Q 1453 -91 1209 -44 
Q 966 3 703 97 
z
M 1959 2075 
Q 2384 2075 2632 2365 
Q 2881 2656 2881 3163 
Q 2881 3666 2632 3958 
Q 2384 4250 1959 4250 
Q 1534 4250 1286 3958 
Q 1038 3666 1038 3163 
Q 1038 2656 1286 2365 
Q 1534 2075 1959 2075 
z
" transform="scale(0.015625)"/>
       </defs>
       <use xlink:href="#DejaVuSans-39"/>
      </g>
     </g>
    </g>
    <g id="xtick_32">
     <g id="line2d_49">
      <path d="M 309.33 652.77468 
L 309.33 351.48726 
" clip-path="url(#p67dc3e124d)" style="fill: none; stroke: #cccccc; stroke-linecap: round"/>
     </g>
     <g id="text_23">
      <!-- 10 -->
      <g style="fill: #262626" transform="translate(302.33125 670.632961) scale(0.11 -0.11)">
       <use xlink:href="#DejaVuSans-31"/>
       <use xlink:href="#DejaVuSans-30" x="63.623047"/>
      </g>
     </g>
    </g>
    <g id="xtick_33">
     <g id="line2d_50">
      <path d="M 333.504 652.77468 
L 333.504 351.48726 
" clip-path="url(#p67dc3e124d)" style="fill: none; stroke: #cccccc; stroke-linecap: round"/>
     </g>
     <g id="text_24">
      <!-- 11 -->
      <g style="fill: #262626" transform="translate(326.50525 670.632961) scale(0.11 -0.11)">
       <use xlink:href="#DejaVuSans-31"/>
       <use xlink:href="#DejaVuSans-31" x="63.623047"/>
      </g>
     </g>
    </g>
    <g id="xtick_34">
     <g id="line2d_51">
      <path d="M 357.678 652.77468 
L 357.678 351.48726 
" clip-path="url(#p67dc3e124d)" style="fill: none; stroke: #cccccc; stroke-linecap: round"/>
     </g>
     <g id="text_25">
      <!-- 12 -->
      <g style="fill: #262626" transform="translate(350.67925 670.632961) scale(0.11 -0.11)">
       <use xlink:href="#DejaVuSans-31"/>
       <use xlink:href="#DejaVuSans-32" x="63.623047"/>
      </g>
     </g>
    </g>
    <g id="xtick_35">
     <g id="line2d_52">
      <path d="M 381.852 652.77468 
L 381.852 351.48726 
" clip-path="url(#p67dc3e124d)" style="fill: none; stroke: #cccccc; stroke-linecap: round"/>
     </g>
     <g id="text_26">
      <!-- 13 -->
      <g style="fill: #262626" transform="translate(374.85325 670.632961) scale(0.11 -0.11)">
       <use xlink:href="#DejaVuSans-31"/>
       <use xlink:href="#DejaVuSans-33" x="63.623047"/>
      </g>
     </g>
    </g>
    <g id="xtick_36">
     <g id="line2d_53">
      <path d="M 406.026 652.77468 
L 406.026 351.48726 
" clip-path="url(#p67dc3e124d)" style="fill: none; stroke: #cccccc; stroke-linecap: round"/>
     </g>
     <g id="text_27">
      <!-- 14 -->
      <g style="fill: #262626" transform="translate(399.02725 670.632961) scale(0.11 -0.11)">
       <use xlink:href="#DejaVuSans-31"/>
       <use xlink:href="#DejaVuSans-34" x="63.623047"/>
      </g>
     </g>
    </g>
    <g id="xtick_37">
     <g id="line2d_54">
      <path d="M 430.2 652.77468 
L 430.2 351.48726 
" clip-path="url(#p67dc3e124d)" style="fill: none; stroke: #cccccc; stroke-linecap: round"/>
     </g>
     <g id="text_28">
      <!-- 15 -->
      <g style="fill: #262626" transform="translate(423.20125 670.632961) scale(0.11 -0.11)">
       <use xlink:href="#DejaVuSans-31"/>
       <use xlink:href="#DejaVuSans-35" x="63.623047"/>
      </g>
     </g>
    </g>
    <g id="xtick_38">
     <g id="line2d_55">
      <path d="M 454.374 652.77468 
L 454.374 351.48726 
" clip-path="url(#p67dc3e124d)" style="fill: none; stroke: #cccccc; stroke-linecap: round"/>
     </g>
     <g id="text_29">
      <!-- 16 -->
      <g style="fill: #262626" transform="translate(447.37525 670.632961) scale(0.11 -0.11)">
       <use xlink:href="#DejaVuSans-31"/>
       <use xlink:href="#DejaVuSans-36" x="63.623047"/>
      </g>
     </g>
    </g>
    <g id="xtick_39">
     <g id="line2d_56">
      <path d="M 478.548 652.77468 
L 478.548 351.48726 
" clip-path="url(#p67dc3e124d)" style="fill: none; stroke: #cccccc; stroke-linecap: round"/>
     </g>
     <g id="text_30">
      <!-- 17 -->
      <g style="fill: #262626" transform="translate(471.54925 670.632961) scale(0.11 -0.11)">
       <use xlink:href="#DejaVuSans-31"/>
       <use xlink:href="#DejaVuSans-37" x="63.623047"/>
      </g>
     </g>
    </g>
    <g id="xtick_40">
     <g id="line2d_57">
      <path d="M 502.722 652.77468 
L 502.722 351.48726 
" clip-path="url(#p67dc3e124d)" style="fill: none; stroke: #cccccc; stroke-linecap: round"/>
     </g>
     <g id="text_31">
      <!-- 18 -->
      <g style="fill: #262626" transform="translate(495.72325 670.632961) scale(0.11 -0.11)">
       <use xlink:href="#DejaVuSans-31"/>
       <use xlink:href="#DejaVuSans-38" x="63.623047"/>
      </g>
     </g>
    </g>
    <g id="xtick_41">
     <g id="line2d_58">
      <path d="M 526.896 652.77468 
L 526.896 351.48726 
" clip-path="url(#p67dc3e124d)" style="fill: none; stroke: #cccccc; stroke-linecap: round"/>
     </g>
     <g id="text_32">
      <!-- 19 -->
      <g style="fill: #262626" transform="translate(519.89725 670.632961) scale(0.11 -0.11)">
       <use xlink:href="#DejaVuSans-31"/>
       <use xlink:href="#DejaVuSans-39" x="63.623047"/>
      </g>
     </g>
    </g>
    <g id="xtick_42">
     <g id="line2d_59">
      <path d="M 551.07 652.77468 
L 551.07 351.48726 
" clip-path="url(#p67dc3e124d)" style="fill: none; stroke: #cccccc; stroke-linecap: round"/>
     </g>
     <g id="text_33">
      <!-- 20 -->
      <g style="fill: #262626" transform="translate(544.07125 670.632961) scale(0.11 -0.11)">
       <use xlink:href="#DejaVuSans-32"/>
       <use xlink:href="#DejaVuSans-30" x="63.623047"/>
      </g>
     </g>
    </g>
    <g id="text_34">
     <!-- Time (ms) -->
     <g style="fill: #262626" transform="translate(279.090937 686.038743) scale(0.12 -0.12)">
      <defs>
       <path id="DejaVuSans-54" d="M -19 4666 
L 3928 4666 
L 3928 4134 
L 2272 4134 
L 2272 0 
L 1638 0 
L 1638 4134 
L -19 4134 
L -19 4666 
z
" transform="scale(0.015625)"/>
       <path id="DejaVuSans-69" d="M 603 3500 
L 1178 3500 
L 1178 0 
L 603 0 
L 603 3500 
z
M 603 4863 
L 1178 4863 
L 1178 4134 
L 603 4134 
L 603 4863 
z
" transform="scale(0.015625)"/>
       <path id="DejaVuSans-6d" d="M 3328 2828 
Q 3544 3216 3844 3400 
Q 4144 3584 4550 3584 
Q 5097 3584 5394 3201 
Q 5691 2819 5691 2113 
L 5691 0 
L 5113 0 
L 5113 2094 
Q 5113 2597 4934 2840 
Q 4756 3084 4391 3084 
Q 3944 3084 3684 2787 
Q 3425 2491 3425 1978 
L 3425 0 
L 2847 0 
L 2847 2094 
Q 2847 2600 2669 2842 
Q 2491 3084 2119 3084 
Q 1678 3084 1418 2786 
Q 1159 2488 1159 1978 
L 1159 0 
L 581 0 
L 581 3500 
L 1159 3500 
L 1159 2956 
Q 1356 3278 1631 3431 
Q 1906 3584 2284 3584 
Q 2666 3584 2933 3390 
Q 3200 3197 3328 2828 
z
" transform="scale(0.015625)"/>
       <path id="DejaVuSans-73" d="M 2834 3397 
L 2834 2853 
Q 2591 2978 2328 3040 
Q 2066 3103 1784 3103 
Q 1356 3103 1142 2972 
Q 928 2841 928 2578 
Q 928 2378 1081 2264 
Q 1234 2150 1697 2047 
L 1894 2003 
Q 2506 1872 2764 1633 
Q 3022 1394 3022 966 
Q 3022 478 2636 193 
Q 2250 -91 1575 -91 
Q 1294 -91 989 -36 
Q 684 19 347 128 
L 347 722 
Q 666 556 975 473 
Q 1284 391 1588 391 
Q 1994 391 2212 530 
Q 2431 669 2431 922 
Q 2431 1156 2273 1281 
Q 2116 1406 1581 1522 
L 1381 1569 
Q 847 1681 609 1914 
Q 372 2147 372 2553 
Q 372 3047 722 3315 
Q 1072 3584 1716 3584 
Q 2034 3584 2315 3537 
Q 2597 3491 2834 3397 
z
" transform="scale(0.015625)"/>
      </defs>
      <use xlink:href="#DejaVuSans-54"/>
      <use xlink:href="#DejaVuSans-69" x="57.958984"/>
      <use xlink:href="#DejaVuSans-6d" x="85.742188"/>
      <use xlink:href="#DejaVuSans-65" x="183.154297"/>
      <use xlink:href="#DejaVuSans-20" x="244.677734"/>
      <use xlink:href="#DejaVuSans-28" x="276.464844"/>
      <use xlink:href="#DejaVuSans-6d" x="315.478516"/>
      <use xlink:href="#DejaVuSans-73" x="412.890625"/>
      <use xlink:href="#DejaVuSans-29" x="464.990234"/>
     </g>
    </g>
   </g>
   <g id="matplotlib.axis_4">
    <g id="ytick_9">
     <g id="line2d_60">
      <path d="M 67.59 652.77468 
L 551.07 652.77468 
" clip-path="url(#p67dc3e124d)" style="fill: none; stroke: #cccccc; stroke-linecap: round"/>
     </g>
     <g id="text_35">
      <!-- −3 -->
      <g style="fill: #262626" transform="translate(41.873594 656.953821) scale(0.11 -0.11)">
       <use xlink:href="#DejaVuSans-2212"/>
       <use xlink:href="#DejaVuSans-33" x="83.789062"/>
      </g>
     </g>
    </g>
    <g id="ytick_10">
     <g id="line2d_61">
      <path d="M 67.59 602.56011 
L 551.07 602.56011 
" clip-path="url(#p67dc3e124d)" style="fill: none; stroke: #cccccc; stroke-linecap: round"/>
     </g>
     <g id="text_36">
      <!-- −2 -->
      <g style="fill: #262626" transform="translate(41.873594 606.739251) scale(0.11 -0.11)">
       <use xlink:href="#DejaVuSans-2212"/>
       <use xlink:href="#DejaVuSans-32" x="83.789062"/>
      </g>
     </g>
    </g>
    <g id="ytick_11">
     <g id="line2d_62">
      <path d="M 67.59 552.34554 
L 551.07 552.34554 
" clip-path="url(#p67dc3e124d)" style="fill: none; stroke: #cccccc; stroke-linecap: round"/>
     </g>
     <g id="text_37">
      <!-- −1 -->
      <g style="fill: #262626" transform="translate(41.873594 556.524681) scale(0.11 -0.11)">
       <use xlink:href="#DejaVuSans-2212"/>
       <use xlink:href="#DejaVuSans-31" x="83.789062"/>
      </g>
     </g>
    </g>
    <g id="ytick_12">
     <g id="line2d_63">
      <path d="M 67.59 502.13097 
L 551.07 502.13097 
" clip-path="url(#p67dc3e124d)" style="fill: none; stroke: #cccccc; stroke-linecap: round"/>
     </g>
     <g id="text_38">
      <!-- 0 -->
      <g style="fill: #262626" transform="translate(51.09125 506.310111) scale(0.11 -0.11)">
       <use xlink:href="#DejaVuSans-30"/>
      </g>
     </g>
    </g>
    <g id="ytick_13">
     <g id="line2d_64">
      <path d="M 67.59 451.9164 
L 551.07 451.9164 
" clip-path="url(#p67dc3e124d)" style="fill: none; stroke: #cccccc; stroke-linecap: round"/>
     </g>
     <g id="text_39">
      <!-- 1 -->
      <g style="fill: #262626" transform="translate(51.09125 456.095541) scale(0.11 -0.11)">
       <use xlink:href="#DejaVuSans-31"/>
      </g>
     </g>
    </g>
    <g id="ytick_14">
     <g id="line2d_65">
      <path d="M 67.59 401.70183 
L 551.07 401.70183 
" clip-path="url(#p67dc3e124d)" style="fill: none; stroke: #cccccc; stroke-linecap: round"/>
     </g>
     <g id="text_40">
      <!-- 2 -->
      <g style="fill: #262626" transform="translate(51.09125 405.880971) scale(0.11 -0.11)">
       <use xlink:href="#DejaVuSans-32"/>
      </g>
     </g>
    </g>
    <g id="ytick_15">
     <g id="line2d_66">
      <path d="M 67.59 351.48726 
L 551.07 351.48726 
" clip-path="url(#p67dc3e124d)" style="fill: none; stroke: #cccccc; stroke-linecap: round"/>
     </g>
     <g id="text_41">
      <!-- 3 -->
      <g style="fill: #262626" transform="translate(51.09125 355.666401) scale(0.11 -0.11)">
       <use xlink:href="#DejaVuSans-33"/>
      </g>
     </g>
    </g>
    <g id="text_42">
     <!-- Torque (N·m) -->
     <g style="fill: #262626" transform="translate(35.377969 540.940658) rotate(-90) scale(0.12 -0.12)">
      <defs>
       <path id="DejaVuSans-71" d="M 947 1747 
Q 947 1113 1208 752 
Q 1469 391 1925 391 
Q 2381 391 2643 752 
Q 2906 1113 2906 1747 
Q 2906 2381 2643 2742 
Q 2381 3103 1925 3103 
Q 1469 3103 1208 2742 
Q 947 2381 947 1747 
z
M 2906 525 
Q 2725 213 2448 61 
Q 2172 -91 1784 -91 
Q 1150 -91 751 415 
Q 353 922 353 1747 
Q 353 2572 751 3078 
Q 1150 3584 1784 3584 
Q 2172 3584 2448 3432 
Q 2725 3281 2906 2969 
L 2906 3500 
L 3481 3500 
L 3481 -1331 
L 2906 -1331 
L 2906 525 
z
" transform="scale(0.015625)"/>
       <path id="DejaVuSans-75" d="M 544 1381 
L 544 3500 
L 1119 3500 
L 1119 1403 
Q 1119 906 1312 657 
Q 1506 409 1894 409 
Q 2359 409 2629 706 
Q 2900 1003 2900 1516 
L 2900 3500 
L 3475 3500 
L 3475 0 
L 2900 0 
L 2900 538 
Q 2691 219 2414 64 
Q 2138 -91 1772 -91 
Q 1169 -91 856 284 
Q 544 659 544 1381 
z
M 1991 3584 
L 1991 3584 
z
" transform="scale(0.015625)"/>
       <path id="DejaVuSans-b7" d="M 684 2619 
L 1344 2619 
L 1344 1825 
L 684 1825 
L 684 2619 
z
" transform="scale(0.015625)"/>
      </defs>
      <use xlink:href="#DejaVuSans-54"/>
      <use xlink:href="#DejaVuSans-6f" x="44.083984"/>
      <use xlink:href="#DejaVuSans-72" x="105.265625"/>
      <use xlink:href="#DejaVuSans-71" x="144.628906"/>
      <use xlink:href="#DejaVuSans-75" x="208.105469"/>
      <use xlink:href="#DejaVuSans-65" x="271.484375"/>
      <use xlink:href="#DejaVuSans-20" x="333.007812"/>
      <use xlink:href="#DejaVuSans-28" x="364.794922"/>
      <use xlink:href="#DejaVuSans-4e" x="403.808594"/>
      <use xlink:href="#DejaVuSans-b7" x="478.613281"/>
      <use xlink:href="#DejaVuSans-6d" x="510.400391"/>
      <use xlink:href="#DejaVuSans-29" x="607.8125"/>
     </g>
    </g>
   </g>
   <g id="line2d_67">
    <path d="M 67.59 502.13097 
L 91.764 502.13097 
L 115.938 502.13097 
L 140.112 502.13097 
L 164.286 502.13097 
L 188.46 502.13097 
L 212.634 502.13097 
L 236.808 502.470533 
L 260.982 502.36294 
L 285.156 498.138369 
L 309.33 504.354026 
L 333.504 530.197045 
L 357.678 506.17408 
L 381.852 502.13097 
L 406.026 502.13097 
L 430.2 502.13097 
L 454.374 502.13097 
L 478.548 502.13097 
L 502.722 502.13097 
L 526.896 502.13097 
L 551.07 502.13097 
" clip-path="url(#p67dc3e124d)" style="fill: none; stroke: #ff0000; stroke-opacity: 0.7; stroke-width: 1.5; stroke-linecap: round"/>
   </g>
   <g id="line2d_68">
    <path d="M 67.59 502.13097 
L 91.764 502.13097 
L 115.938 502.13097 
L 140.112 502.13097 
L 164.286 502.13097 
L 188.46 502.13097 
L 212.634 502.13097 
L 236.808 502.519923 
L 260.982 502.649586 
L 285.156 548.58787 
L 309.33 539.493571 
L 333.504 603.564999 
L 357.678 583.951435 
L 381.852 502.13097 
L 406.026 502.13097 
L 430.2 502.13097 
L 454.374 502.13097 
L 478.548 502.13097 
L 502.722 502.13097 
L 526.896 502.13097 
L 551.07 502.13097 
" clip-path="url(#p67dc3e124d)" style="fill: none; stroke: #008000; stroke-opacity: 0.7; stroke-width: 1.5; stroke-linecap: round"/>
   </g>
   <g id="line2d_69">
    <path d="M 67.59 502.13097 
L 91.764 502.13097 
L 115.938 502.13097 
L 140.112 502.13097 
L 164.286 502.13097 
L 188.46 502.13097 
L 212.634 502.13097 
L 236.808 501.023227 
L 260.982 501.505074 
L 285.156 446.117971 
L 309.33 433.871185 
L 333.504 442.702096 
L 357.678 378.659502 
L 381.852 502.130966 
L 406.026 502.13097 
L 430.2 502.13097 
L 454.374 502.13097 
L 478.548 502.13097 
L 502.722 502.13097 
L 526.896 502.13097 
L 551.07 502.13097 
" clip-path="url(#p67dc3e124d)" style="fill: none; stroke: #0000ff; stroke-opacity: 0.7; stroke-width: 1.5; stroke-linecap: round"/>
   </g>
   <g id="line2d_70"/>
   <g id="line2d_71"/>
   <g id="line2d_72"/>
   <g id="patch_10">
    <path d="M 67.59 652.77468 
L 67.59 351.48726 
" style="fill: none; stroke: #cccccc; stroke-width: 1.25; stroke-linejoin: miter; stroke-linecap: square"/>
   </g>
   <g id="patch_11">
    <path d="M 551.07 652.77468 
L 551.07 351.48726 
" style="fill: none; stroke: #cccccc; stroke-width: 1.25; stroke-linejoin: miter; stroke-linecap: square"/>
   </g>
   <g id="patch_12">
    <path d="M 67.59 652.77468 
L 551.07 652.77468 
" style="fill: none; stroke: #cccccc; stroke-width: 1.25; stroke-linejoin: miter; stroke-linecap: square"/>
   </g>
   <g id="patch_13">
    <path d="M 67.59 351.48726 
L 551.07 351.48726 
" style="fill: none; stroke: #cccccc; stroke-width: 1.25; stroke-linejoin: miter; stroke-linecap: square"/>
   </g>
   <g id="legend_2">
    <g id="patch_14">
     <path d="M 512.24875 395.11476 
L 547.47 395.11476 
Q 549.07 395.11476 549.07 393.51476 
L 549.07 359.08726 
Q 549.07 357.48726 547.47 357.48726 
L 512.24875 357.48726 
Q 510.64875 357.48726 510.64875 359.08726 
L 510.64875 393.51476 
Q 510.64875 395.11476 512.24875 395.11476 
z
" style="fill: #4c4c4c; opacity: 0.5; stroke: #4c4c4c; stroke-linejoin: miter"/>
    </g>
    <g id="patch_15">
     <path d="M 510.24875 393.11476 
L 545.47 393.11476 
Q 547.07 393.11476 547.07 391.51476 
L 547.07 357.08726 
Q 547.07 355.48726 545.47 355.48726 
L 510.24875 355.48726 
Q 508.64875 355.48726 508.64875 357.08726 
L 508.64875 391.51476 
Q 508.64875 393.11476 510.24875 393.11476 
z
" style="fill: #ffffff; stroke: #cccccc; stroke-linejoin: miter"/>
    </g>
    <g id="line2d_73">
     <path d="M 511.84875 361.96601 
L 519.84875 361.96601 
L 527.84875 361.96601 
" style="fill: none; stroke: #ff0000; stroke-opacity: 0.7; stroke-width: 1.5; stroke-linecap: round"/>
    </g>
    <g id="text_43">
     <!-- Tx -->
     <g style="fill: #262626" transform="translate(534.24875 364.76601) scale(0.08 -0.08)">
      <use xlink:href="#DejaVuSans-54"/>
      <use xlink:href="#DejaVuSans-78" x="61.083984"/>
     </g>
    </g>
    <g id="line2d_74">
     <path d="M 511.84875 373.70851 
L 519.84875 373.70851 
L 527.84875 373.70851 
" style="fill: none; stroke: #008000; stroke-opacity: 0.7; stroke-width: 1.5; stroke-linecap: round"/>
    </g>
    <g id="text_44">
     <!-- Ty -->
     <g style="fill: #262626" transform="translate(534.24875 376.50851) scale(0.08 -0.08)">
      <use xlink:href="#DejaVuSans-54"/>
      <use xlink:href="#DejaVuSans-79" x="45.458984"/>
     </g>
    </g>
    <g id="line2d_75">
     <path d="M 511.84875 385.45101 
L 519.84875 385.45101 
L 527.84875 385.45101 
" style="fill: none; stroke: #0000ff; stroke-opacity: 0.7; stroke-width: 1.5; stroke-linecap: round"/>
    </g>
    <g id="text_45">
     <!-- Tz -->
     <g style="fill: #262626" transform="translate(534.24875 388.25101) scale(0.08 -0.08)">
      <use xlink:href="#DejaVuSans-54"/>
      <use xlink:href="#DejaVuSans-7a" x="61.083984"/>
     </g>
    </g>
   </g>
  </g>
 </g>
 <defs>
  <clipPath id="p797ef85687">
   <rect x="67.59" y="21.91824" width="483.48" height="301.28742"/>
  </clipPath>
  <clipPath id="p67dc3e124d">
   <rect x="67.59" y="351.48726" width="483.48" height="301.28742"/>
  </clipPath>
 </defs>
</svg>
