<?xml version="1.0" encoding="utf-8" standalone="no"?>
<!DOCTYPE svg PUBLIC "-//W3C//DTD SVG 1.1//EN"
  "http://www.w3.org/Graphics/SVG/1.1/DTD/svg11.dtd">
<svg xmlns:xlink="http://www.w3.org/1999/xlink" width="576pt" height="707.04pt" viewBox="0 0 576 707.04" xmlns="http://www.w3.org/2000/svg" version="1.1">
 <metadata>
  <rdf:RDF xmlns:dc="http://purl.org/dc/elements/1.1/" xmlns:cc="http://creativecommons.org/ns#" xmlns:rdf="http://www.w3.org/1999/02/22-rdf-syntax-ns#">
   <cc:Work>
    <dc:type rdf:resource="http://purl.org/dc/dcmitype/StillImage"/>
    <dc:date>2025-07-09T08:20:40.306001</dc:date>
    <dc:format>image/svg+xml</dc:format>
    <dc:creator>
     <cc:Agent>
      <dc:title>Matplotlib v3.7.5, https://matplotlib.org/</dc:title>
     </cc:Agent>
    </dc:creator>
   </cc:Work>
  </rdf:RDF>
 </metadata>
 <defs>
  <style type="text/css">*{stroke-linejoin: round; stroke-linecap: butt}</style>
 </defs>
 <g id="figure_1">
  <g id="patch_1">
   <path d="M 0 707.04 
L 576 707.04 
L 576 0 
L 0 0 
z
" style="fill: #ffffff"/>
  </g>
  <g id="axes_1">
   <g id="patch_2">
    <path d="M 112.32 308.35782 
L 525.6 308.35782 
L 525.6 54.7956 
L 112.32 54.7956 
z
" style="fill: #ffffff"/>
   </g>
   <g id="matplotlib.axis_1">
    <g id="xtick_1">
     <g id="line2d_1">
      <path d="M 112.32 308.35782 
L 112.32 54.7956 
" clip-path="url(#p137fe52c66)" style="fill: none; stroke: #cccccc; stroke-linecap: round"/>
     </g>
    </g>
    <g id="xtick_2">
     <g id="line2d_2">
      <path d="M 187.461818 308.35782 
L 187.461818 54.7956 
" clip-path="url(#p137fe52c66)" style="fill: none; stroke: #cccccc; stroke-linecap: round"/>
     </g>
    </g>
    <g id="xtick_3">
     <g id="line2d_3">
      <path d="M 262.603636 308.35782 
L 262.603636 54.7956 
" clip-path="url(#p137fe52c66)" style="fill: none; stroke: #cccccc; stroke-linecap: round"/>
     </g>
    </g>
    <g id="xtick_4">
     <g id="line2d_4">
      <path d="M 337.745455 308.35782 
L 337.745455 54.7956 
" clip-path="url(#p137fe52c66)" style="fill: none; stroke: #cccccc; stroke-linecap: round"/>
     </g>
    </g>
    <g id="xtick_5">
     <g id="line2d_5">
      <path d="M 412.887273 308.35782 
L 412.887273 54.7956 
" clip-path="url(#p137fe52c66)" style="fill: none; stroke: #cccccc; stroke-linecap: round"/>
     </g>
    </g>
    <g id="xtick_6">
     <g id="line2d_6">
      <path d="M 488.029091 308.35782 
L 488.029091 54.7956 
" clip-path="url(#p137fe52c66)" style="fill: none; stroke: #cccccc; stroke-linecap: round"/>
     </g>
    </g>
   </g>
   <g id="matplotlib.axis_2">
    <g id="ytick_1">
     <g id="line2d_7">
      <path d="M 112.32 292.510181 
L 525.6 292.510181 
" clip-path="url(#p137fe52c66)" style="fill: none; stroke: #cccccc; stroke-linecap: round"/>
     </g>
     <g id="text_1">
      <!-- −20 -->
      <g style="fill: #262626" transform="translate(73.273438 297.829088) scale(0.14 -0.14)">
       <defs>
        <path id="DejaVuSans-2212" d="M 678 2272 
L 4684 2272 
L 4684 1741 
L 678 1741 
L 678 2272 
z
" transform="scale(0.015625)"/>
        <path id="DejaVuSans-32" d="M 1228 531 
L 3431 531 
L 3431 0 
L 469 0 
L 469 531 
Q 828 903 1448 1529 
Q 2069 2156 2228 2338 
Q 2531 2678 2651 2914 
Q 2772 3150 2772 3378 
Q 2772 3750 2511 3984 
Q 2250 4219 1831 4219 
Q 1534 4219 1204 4116 
Q 875 4013 500 3803 
L 500 4441 
Q 881 4594 1212 4672 
Q 1544 4750 1819 4750 
Q 2544 4750 2975 4387 
Q 3406 4025 3406 3419 
Q 3406 3131 3298 2873 
Q 3191 2616 2906 2266 
Q 2828 2175 2409 1742 
Q 1991 1309 1228 531 
z
" transform="scale(0.015625)"/>
        <path id="DejaVuSans-30" d="M 2034 4250 
Q 1547 4250 1301 3770 
Q 1056 3291 1056 2328 
Q 1056 1369 1301 889 
Q 1547 409 2034 409 
Q 2525 409 2770 889 
Q 3016 1369 3016 2328 
Q 3016 3291 2770 3770 
Q 2525 4250 2034 4250 
z
M 2034 4750 
Q 2819 4750 3233 4129 
Q 3647 3509 3647 2328 
Q 3647 1150 3233 529 
Q 2819 -91 2034 -91 
Q 1250 -91 836 529 
Q 422 1150 422 2328 
Q 422 3509 836 4129 
Q 1250 4750 2034 4750 
z
" transform="scale(0.015625)"/>
       </defs>
       <use xlink:href="#DejaVuSans-2212"/>
       <use xlink:href="#DejaVuSans-32" x="83.789062"/>
       <use xlink:href="#DejaVuSans-30" x="147.412109"/>
      </g>
     </g>
    </g>
    <g id="ytick_2">
     <g id="line2d_8">
      <path d="M 112.32 252.891084 
L 525.6 252.891084 
" clip-path="url(#p137fe52c66)" style="fill: none; stroke: #cccccc; stroke-linecap: round"/>
     </g>
     <g id="text_2">
      <!-- −15 -->
      <g style="fill: #262626" transform="translate(73.273438 258.209991) scale(0.14 -0.14)">
       <defs>
        <path id="DejaVuSans-31" d="M 794 531 
L 1825 531 
L 1825 4091 
L 703 3866 
L 703 4441 
L 1819 4666 
L 2450 4666 
L 2450 531 
L 3481 531 
L 3481 0 
L 794 0 
L 794 531 
z
" transform="scale(0.015625)"/>
        <path id="DejaVuSans-35" d="M 691 4666 
L 3169 4666 
L 3169 4134 
L 1269 4134 
L 1269 2991 
Q 1406 3038 1543 3061 
Q 1681 3084 1819 3084 
Q 2600 3084 3056 2656 
Q 3513 2228 3513 1497 
Q 3513 744 3044 326 
Q 2575 -91 1722 -91 
Q 1428 -91 1123 -41 
Q 819 9 494 109 
L 494 744 
Q 775 591 1075 516 
Q 1375 441 1709 441 
Q 2250 441 2565 725 
Q 2881 1009 2881 1497 
Q 2881 1984 2565 2268 
Q 2250 2553 1709 2553 
Q 1456 2553 1204 2497 
Q 953 2441 691 2322 
L 691 4666 
z
" transform="scale(0.015625)"/>
       </defs>
       <use xlink:href="#DejaVuSans-2212"/>
       <use xlink:href="#DejaVuSans-31" x="83.789062"/>
       <use xlink:href="#DejaVuSans-35" x="147.412109"/>
      </g>
     </g>
    </g>
    <g id="ytick_3">
     <g id="line2d_9">
      <path d="M 112.32 213.271988 
L 525.6 213.271988 
" clip-path="url(#p137fe52c66)" style="fill: none; stroke: #cccccc; stroke-linecap: round"/>
     </g>
     <g id="text_3">
      <!-- −10 -->
      <g style="fill: #262626" transform="translate(73.273438 218.590894) scale(0.14 -0.14)">
       <use xlink:href="#DejaVuSans-2212"/>
       <use xlink:href="#DejaVuSans-31" x="83.789062"/>
       <use xlink:href="#DejaVuSans-30" x="147.412109"/>
      </g>
     </g>
    </g>
    <g id="ytick_4">
     <g id="line2d_10">
      <path d="M 112.32 173.652891 
L 525.6 173.652891 
" clip-path="url(#p137fe52c66)" style="fill: none; stroke: #cccccc; stroke-linecap: round"/>
     </g>
     <g id="text_4">
      <!-- −5 -->
      <g style="fill: #262626" transform="translate(82.180937 178.971797) scale(0.14 -0.14)">
       <use xlink:href="#DejaVuSans-2212"/>
       <use xlink:href="#DejaVuSans-35" x="83.789062"/>
      </g>
     </g>
    </g>
    <g id="ytick_5">
     <g id="line2d_11">
      <path d="M 112.32 134.033794 
L 525.6 134.033794 
" clip-path="url(#p137fe52c66)" style="fill: none; stroke: #cccccc; stroke-linecap: round"/>
     </g>
     <g id="text_5">
      <!-- 0 -->
      <g style="fill: #262626" transform="translate(93.9125 139.3527) scale(0.14 -0.14)">
       <use xlink:href="#DejaVuSans-30"/>
      </g>
     </g>
    </g>
    <g id="ytick_6">
     <g id="line2d_12">
      <path d="M 112.32 94.414697 
L 525.6 94.414697 
" clip-path="url(#p137fe52c66)" style="fill: none; stroke: #cccccc; stroke-linecap: round"/>
     </g>
     <g id="text_6">
      <!-- 5 -->
      <g style="fill: #262626" transform="translate(93.9125 99.733603) scale(0.14 -0.14)">
       <use xlink:href="#DejaVuSans-35"/>
      </g>
     </g>
    </g>
    <g id="ytick_7">
     <g id="line2d_13">
      <path d="M 112.32 54.7956 
L 525.6 54.7956 
" clip-path="url(#p137fe52c66)" style="fill: none; stroke: #cccccc; stroke-linecap: round"/>
     </g>
     <g id="text_7">
      <!-- 10 -->
      <g style="fill: #262626" transform="translate(85.005 60.114506) scale(0.14 -0.14)">
       <use xlink:href="#DejaVuSans-31"/>
       <use xlink:href="#DejaVuSans-30" x="63.623047"/>
      </g>
     </g>
    </g>
    <g id="text_8">
     <!-- Force (N) -->
     <g style="fill: #262626" transform="translate(65.945937 217.98296) rotate(-90) scale(0.16 -0.16)">
      <defs>
       <path id="DejaVuSans-46" d="M 628 4666 
L 3309 4666 
L 3309 4134 
L 1259 4134 
L 1259 2759 
L 3109 2759 
L 3109 2228 
L 1259 2228 
L 1259 0 
L 628 0 
L 628 4666 
z
" transform="scale(0.015625)"/>
       <path id="DejaVuSans-6f" d="M 1959 3097 
Q 1497 3097 1228 2736 
Q 959 2375 959 1747 
Q 959 1119 1226 758 
Q 1494 397 1959 397 
Q 2419 397 2687 759 
Q 2956 1122 2956 1747 
Q 2956 2369 2687 2733 
Q 2419 3097 1959 3097 
z
M 1959 3584 
Q 2709 3584 3137 3096 
Q 3566 2609 3566 1747 
Q 3566 888 3137 398 
Q 2709 -91 1959 -91 
Q 1206 -91 779 398 
Q 353 888 353 1747 
Q 353 2609 779 3096 
Q 1206 3584 1959 3584 
z
" transform="scale(0.015625)"/>
       <path id="DejaVuSans-72" d="M 2631 2963 
Q 2534 3019 2420 3045 
Q 2306 3072 2169 3072 
Q 1681 3072 1420 2755 
Q 1159 2438 1159 1844 
L 1159 0 
L 581 0 
L 581 3500 
L 1159 3500 
L 1159 2956 
Q 1341 3275 1631 3429 
Q 1922 3584 2338 3584 
Q 2397 3584 2469 3576 
Q 2541 3569 2628 3553 
L 2631 2963 
z
" transform="scale(0.015625)"/>
       <path id="DejaVuSans-63" d="M 3122 3366 
L 3122 2828 
Q 2878 2963 2633 3030 
Q 2388 3097 2138 3097 
Q 1578 3097 1268 2742 
Q 959 2388 959 1747 
Q 959 1106 1268 751 
Q 1578 397 2138 397 
Q 2388 397 2633 464 
Q 2878 531 3122 666 
L 3122 134 
Q 2881 22 2623 -34 
Q 2366 -91 2075 -91 
Q 1284 -91 818 406 
Q 353 903 353 1747 
Q 353 2603 823 3093 
Q 1294 3584 2113 3584 
Q 2378 3584 2631 3529 
Q 2884 3475 3122 3366 
z
" transform="scale(0.015625)"/>
       <path id="DejaVuSans-65" d="M 3597 1894 
L 3597 1613 
L 953 1613 
Q 991 1019 1311 708 
Q 1631 397 2203 397 
Q 2534 397 2845 478 
Q 3156 559 3463 722 
L 3463 178 
Q 3153 47 2828 -22 
Q 2503 -91 2169 -91 
Q 1331 -91 842 396 
Q 353 884 353 1716 
Q 353 2575 817 3079 
Q 1281 3584 2069 3584 
Q 2775 3584 3186 3129 
Q 3597 2675 3597 1894 
z
M 3022 2063 
Q 3016 2534 2758 2815 
Q 2500 3097 2075 3097 
Q 1594 3097 1305 2825 
Q 1016 2553 972 2059 
L 3022 2063 
z
" transform="scale(0.015625)"/>
       <path id="DejaVuSans-20" transform="scale(0.015625)"/>
       <path id="DejaVuSans-28" d="M 1984 4856 
Q 1566 4138 1362 3434 
Q 1159 2731 1159 2009 
Q 1159 1288 1364 580 
Q 1569 -128 1984 -844 
L 1484 -844 
Q 1016 -109 783 600 
Q 550 1309 550 2009 
Q 550 2706 781 3412 
Q 1013 4119 1484 4856 
L 1984 4856 
z
" transform="scale(0.015625)"/>
       <path id="DejaVuSans-4e" d="M 628 4666 
L 1478 4666 
L 3547 763 
L 3547 4666 
L 4159 4666 
L 4159 0 
L 3309 0 
L 1241 3903 
L 1241 0 
L 628 0 
L 628 4666 
z
" transform="scale(0.015625)"/>
       <path id="DejaVuSans-29" d="M 513 4856 
L 1013 4856 
Q 1481 4119 1714 3412 
Q 1947 2706 1947 2009 
Q 1947 1309 1714 600 
Q 1481 -109 1013 -844 
L 513 -844 
Q 928 -128 1133 580 
Q 1338 1288 1338 2009 
Q 1338 2731 1133 3434 
Q 928 4138 513 4856 
z
" transform="scale(0.015625)"/>
      </defs>
      <use xlink:href="#DejaVuSans-46"/>
      <use xlink:href="#DejaVuSans-6f" x="53.894531"/>
      <use xlink:href="#DejaVuSans-72" x="115.076172"/>
      <use xlink:href="#DejaVuSans-63" x="153.939453"/>
      <use xlink:href="#DejaVuSans-65" x="208.919922"/>
      <use xlink:href="#DejaVuSans-20" x="270.443359"/>
      <use xlink:href="#DejaVuSans-28" x="302.230469"/>
      <use xlink:href="#DejaVuSans-4e" x="341.244141"/>
      <use xlink:href="#DejaVuSans-29" x="416.048828"/>
     </g>
    </g>
   </g>
   <g id="line2d_14">
    <path d="M 112.32 134.033198 
L 116.077091 134.033197 
L 119.834182 134.033207 
L 123.591273 134.033226 
L 127.348364 134.033253 
L 131.105455 134.033063 
L 134.862545 134.033117 
L 138.619636 134.033173 
L 142.376727 134.033223 
L 146.133818 134.033262 
L 149.890909 134.033284 
L 153.648 134.033282 
L 157.405091 134.033253 
L 161.162182 134.033223 
L 164.919273 134.033171 
L 168.676364 134.033102 
L 172.433455 134.03327 
L 176.190545 134.033207 
L 179.947636 217.722562 
L 183.704727 188.403865 
L 187.461818 134.031514 
L 191.218909 134.033012 
L 194.976 134.032901 
L 198.733091 134.032807 
L 202.490182 134.032756 
L 206.247273 134.032749 
L 210.004364 134.032785 
L 213.761455 134.03286 
L 217.518545 134.032676 
L 221.275636 134.032872 
L 225.032727 134.033094 
L 228.789818 134.03313 
L 232.546909 134.033388 
L 236.304 134.033596 
L 240.061091 134.033737 
L 243.818182 134.033802 
L 247.575273 134.03379 
L 251.332364 134.033702 
L 255.089455 134.033551 
L 258.846545 134.033352 
L 262.603636 134.033126 
L 266.360727 134.032887 
L 270.117818 134.033024 
L 273.874909 134.032871 
L 277.632 140.306879 
L 281.389091 134.034509 
L 285.146182 134.032933 
L 288.903273 134.032911 
L 292.660364 134.032928 
L 296.417455 134.032677 
L 300.174545 135.181002 
L 303.931636 134.034286 
L 307.688727 134.032993 
L 311.445818 134.033166 
L 315.202909 134.033158 
L 318.96 134.03336 
L 322.717091 134.033512 
L 326.474182 134.033605 
L 330.231273 134.033634 
L 333.988364 134.033601 
L 337.745455 134.033511 
L 341.502545 134.033377 
L 345.259636 133.601075 
L 349.016727 134.033223 
L 352.773818 134.03318 
L 356.530909 134.033049 
L 360.288 134.032957 
L 364.045091 134.030122 
L 367.802182 134.032802 
L 371.559273 105.984284 
L 375.316364 120.594887 
L 379.073455 134.031271 
L 382.830545 134.032759 
L 386.587636 134.03288 
L 390.344727 134.033285 
L 394.101818 134.033612 
L 397.858909 134.033828 
L 401.616 134.034076 
L 405.373091 134.034161 
L 409.130182 134.034145 
L 412.887273 134.034033 
L 416.644364 134.033837 
L 420.401455 134.033575 
L 424.158545 134.033577 
L 427.915636 134.033332 
L 431.672727 134.033106 
L 435.429818 134.032904 
L 439.186909 134.032746 
L 442.944 134.032645 
L 446.701091 134.032608 
L 450.458182 134.032635 
L 454.215273 134.032721 
L 457.972364 85.699241 
L 461.729455 133.965595 
L 465.486545 134.032833 
L 469.243636 134.033189 
L 473.000727 134.033586 
L 476.757818 134.033808 
L 480.514909 134.034018 
L 484.272 134.034165 
L 488.029091 134.03424 
L 491.786182 134.034324 
L 495.543273 134.034164 
L 499.300364 134.033919 
L 503.057455 134.033613 
L 506.814545 134.033587 
L 510.571636 134.03332 
L 514.328727 134.033077 
L 518.085818 134.032867 
L 521.842909 134.032708 
L 525.6 134.032614 
L 529.357091 134.03259 
L 533.114182 134.032635 
L 536.871273 134.032758 
" clip-path="url(#p137fe52c66)" style="fill: none; stroke: #ff0000; stroke-opacity: 0.7; stroke-width: 1.5; stroke-linecap: round"/>
   </g>
   <g id="line2d_15">
    <path d="M 112.32 134.033419 
L 116.077091 134.033403 
L 119.834182 134.033392 
L 123.591273 134.033389 
L 127.348364 134.033394 
L 131.105455 134.033269 
L 134.862545 134.033296 
L 138.619636 134.033328 
L 142.376727 134.033361 
L 146.133818 134.033392 
L 149.890909 134.033419 
L 153.648 134.033435 
L 157.405091 134.033439 
L 161.162182 134.033444 
L 164.919273 134.033433 
L 168.676364 134.033408 
L 172.433455 134.033522 
L 176.190545 134.033489 
L 179.947636 232.512256 
L 183.704727 199.116054 
L 187.461818 134.033589 
L 191.218909 134.033651 
L 194.976 134.0335 
L 198.733091 134.033345 
L 202.490182 134.033215 
L 206.247273 134.033121 
L 210.004364 134.033069 
L 213.761455 134.033059 
L 217.518545 134.0329 
L 221.275636 134.032997 
L 225.032727 134.033101 
L 228.789818 134.033128 
L 232.546909 134.033317 
L 236.304 134.033491 
L 240.061091 134.033638 
L 243.818182 134.03375 
L 247.575273 134.033819 
L 251.332364 134.033839 
L 255.089455 134.033809 
L 258.846545 134.033728 
L 262.603636 134.033604 
L 266.360727 134.033472 
L 270.117818 134.033507 
L 273.874909 134.033392 
L 277.632 143.145711 
L 281.389091 134.034086 
L 285.146182 134.033279 
L 288.903273 134.033193 
L 292.660364 134.033143 
L 296.417455 134.032922 
L 300.174545 135.340282 
L 303.931636 134.033625 
L 307.688727 134.033036 
L 311.445818 134.033162 
L 315.202909 134.033172 
L 318.96 134.033342 
L 322.717091 134.033491 
L 326.474182 134.033607 
L 330.231273 134.033685 
L 333.988364 134.03372 
L 337.745455 134.033708 
L 341.502545 134.033653 
L 345.259636 133.659284 
L 349.016727 134.033791 
L 352.773818 134.03352 
L 356.530909 134.033425 
L 360.288 134.033318 
L 364.045091 134.03186 
L 367.802182 134.033112 
L 371.559273 117.189683 
L 375.316364 125.135061 
L 379.073455 134.032059 
L 382.830545 134.032932 
L 386.587636 134.033006 
L 390.344727 134.033286 
L 394.101818 134.033542 
L 397.858909 134.033709 
L 401.616 134.033899 
L 405.373091 134.033988 
L 409.130182 134.03401 
L 412.887273 134.033966 
L 416.644364 134.03386 
L 420.401455 134.0337 
L 424.158545 134.033723 
L 427.915636 134.033583 
L 431.672727 134.033417 
L 435.429818 134.033257 
L 439.186909 134.03312 
L 442.944 134.033018 
L 446.701091 134.032961 
L 450.458182 134.032952 
L 454.215273 134.03299 
L 457.972364 105.707295 
L 461.729455 133.98576 
L 465.486545 134.033068 
L 469.243636 134.033271 
L 473.000727 134.033567 
L 476.757818 134.033741 
L 480.514909 134.033898 
L 484.272 134.03401 
L 488.029091 134.034073 
L 491.786182 134.034143 
L 495.543273 134.03404 
L 499.300364 134.033875 
L 503.057455 134.033664 
L 506.814545 134.033659 
L 510.571636 134.033497 
L 514.328727 134.033322 
L 518.085818 134.033164 
L 521.842909 134.033038 
L 525.6 134.032956 
L 529.357091 134.032924 
L 533.114182 134.032944 
L 536.871273 134.033 
" clip-path="url(#p137fe52c66)" style="fill: none; stroke: #008000; stroke-opacity: 0.7; stroke-width: 1.5; stroke-linecap: round"/>
   </g>
   <g id="line2d_16">
    <path d="M 112.32 134.034578 
L 116.077091 134.034583 
L 119.834182 134.034579 
L 123.591273 134.034567 
L 127.348364 134.03455 
L 131.105455 134.034935 
L 134.862545 134.034886 
L 138.619636 134.034841 
L 142.376727 134.03481 
L 146.133818 134.0348 
L 149.890909 134.034816 
L 153.648 134.034866 
L 157.405091 134.034951 
L 161.162182 134.035018 
L 164.919273 134.035106 
L 168.676364 134.035206 
L 172.433455 134.03486 
L 176.190545 134.034921 
L 179.947636 227.604779 
L 183.704727 189.771435 
L 187.461818 134.040703 
L 191.218909 134.034629 
L 194.976 134.034759 
L 198.733091 134.034878 
L 202.490182 134.034952 
L 206.247273 134.03498 
L 210.004364 134.034959 
L 213.761455 134.03489 
L 217.518545 134.035304 
L 221.275636 134.035038 
L 225.032727 134.03471 
L 228.789818 134.03474 
L 232.546909 134.034367 
L 236.304 134.034082 
L 240.061091 134.033909 
L 243.818182 134.033861 
L 247.575273 134.033934 
L 251.332364 134.034116 
L 255.089455 134.034383 
L 258.846545 134.034708 
L 262.603636 134.035057 
L 266.360727 134.035432 
L 270.117818 134.035081 
L 273.874909 134.035307 
L 277.632 295.194336 
L 281.389091 134.032051 
L 285.146182 134.034929 
L 288.903273 134.034969 
L 292.660364 134.034958 
L 296.417455 134.035451 
L 300.174545 155.912924 
L 303.931636 134.032233 
L 307.688727 134.034722 
L 311.445818 134.034509 
L 315.202909 134.034627 
L 318.96 134.034365 
L 322.717091 134.034193 
L 326.474182 134.034123 
L 330.231273 134.034157 
L 333.988364 134.034287 
L 337.745455 134.034496 
L 341.502545 134.034759 
L 345.259636 135.314727 
L 349.016727 134.035096 
L 352.773818 134.035016 
L 356.530909 134.035221 
L 360.288 134.035335 
L 364.045091 134.044839 
L 367.802182 134.035523 
L 371.559273 167.738432 
L 375.316364 146.982664 
L 379.073455 134.038986 
L 382.830545 134.034714 
L 386.587636 134.034661 
L 390.344727 134.034108 
L 394.101818 134.033745 
L 397.858909 134.03359 
L 401.616 134.033379 
L 405.373091 134.033469 
L 409.130182 134.033719 
L 412.887273 134.034097 
L 416.644364 134.034563 
L 420.401455 134.035071 
L 424.158545 134.035014 
L 427.915636 134.035365 
L 431.672727 134.035615 
L 435.429818 134.035793 
L 439.186909 134.035889 
L 442.944 134.0359 
L 446.701091 134.035827 
L 450.458182 134.035677 
L 454.215273 134.035463 
L 457.972364 199.185546 
L 461.729455 134.141041 
L 465.486545 134.034758 
L 469.243636 134.034232 
L 473.000727 134.033716 
L 476.757818 134.033563 
L 480.514909 134.033447 
L 484.272 134.033459 
L 488.029091 134.033593 
L 491.786182 134.03367 
L 495.543273 134.034144 
L 499.300364 134.034696 
L 503.057455 134.035273 
L 506.814545 134.035245 
L 510.571636 134.035609 
L 514.328727 134.035855 
L 518.085818 134.036014 
L 521.842909 134.036078 
L 525.6 134.036046 
L 529.357091 134.035922 
L 533.114182 134.035717 
L 536.871273 134.035403 
" clip-path="url(#p137fe52c66)" style="fill: none; stroke: #0000ff; stroke-opacity: 0.7; stroke-width: 1.5; stroke-linecap: round"/>
   </g>
   <g id="line2d_17"/>
   <g id="line2d_18"/>
   <g id="line2d_19"/>
   <g id="patch_3">
    <path d="M 112.32 308.35782 
L 112.32 54.7956 
" style="fill: none; stroke: #cccccc; stroke-width: 1.25; stroke-linejoin: miter; stroke-linecap: square"/>
   </g>
   <g id="patch_4">
    <path d="M 525.6 308.35782 
L 525.6 54.7956 
" style="fill: none; stroke: #cccccc; stroke-width: 1.25; stroke-linejoin: miter; stroke-linecap: square"/>
   </g>
   <g id="patch_5">
    <path d="M 112.32 308.35782 
L 525.6 308.35782 
" style="fill: none; stroke: #cccccc; stroke-width: 1.25; stroke-linejoin: miter; stroke-linecap: square"/>
   </g>
   <g id="patch_6">
    <path d="M 112.32 54.7956 
L 525.6 54.7956 
" style="fill: none; stroke: #cccccc; stroke-width: 1.25; stroke-linejoin: miter; stroke-linecap: square"/>
   </g>
   <g id="legend_1">
    <g id="patch_7">
     <path d="M 454.661563 127.643725 
L 515.8 127.643725 
Q 518.6 127.643725 518.6 124.843725 
L 518.6 64.5956 
Q 518.6 61.7956 515.8 61.7956 
L 454.661563 61.7956 
Q 451.861562 61.7956 451.861562 64.5956 
L 451.861562 124.843725 
Q 451.861562 127.643725 454.661563 127.643725 
z
" style="fill: #ffffff; opacity: 0.6; stroke: #cccccc; stroke-linejoin: miter"/>
    </g>
    <g id="line2d_20">
     <path d="M 457.461563 73.133413 
L 471.461563 73.133413 
L 485.461563 73.133413 
" style="fill: none; stroke: #ff0000; stroke-opacity: 0.7; stroke-width: 1.5; stroke-linecap: round"/>
    </g>
    <g id="text_9">
     <!-- Fx -->
     <g style="fill: #262626" transform="translate(496.661563 78.033413) scale(0.14 -0.14)">
      <defs>
       <path id="DejaVuSans-78" d="M 3513 3500 
L 2247 1797 
L 3578 0 
L 2900 0 
L 1881 1375 
L 863 0 
L 184 0 
L 1544 1831 
L 300 3500 
L 978 3500 
L 1906 2253 
L 2834 3500 
L 3513 3500 
z
" transform="scale(0.015625)"/>
      </defs>
      <use xlink:href="#DejaVuSans-46"/>
      <use xlink:href="#DejaVuSans-78" x="57.519531"/>
     </g>
    </g>
    <g id="line2d_21">
     <path d="M 457.461563 93.682787 
L 471.461563 93.682787 
L 485.461563 93.682787 
" style="fill: none; stroke: #008000; stroke-opacity: 0.7; stroke-width: 1.5; stroke-linecap: round"/>
    </g>
    <g id="text_10">
     <!-- Fy -->
     <g style="fill: #262626" transform="translate(496.661563 98.582787) scale(0.14 -0.14)">
      <defs>
       <path id="DejaVuSans-79" d="M 2059 -325 
Q 1816 -950 1584 -1140 
Q 1353 -1331 966 -1331 
L 506 -1331 
L 506 -850 
L 844 -850 
Q 1081 -850 1212 -737 
Q 1344 -625 1503 -206 
L 1606 56 
L 191 3500 
L 800 3500 
L 1894 763 
L 2988 3500 
L 3597 3500 
L 2059 -325 
z
" transform="scale(0.015625)"/>
      </defs>
      <use xlink:href="#DejaVuSans-46"/>
      <use xlink:href="#DejaVuSans-79" x="48.394531"/>
     </g>
    </g>
    <g id="line2d_22">
     <path d="M 457.461563 114.232163 
L 471.461563 114.232163 
L 485.461563 114.232163 
" style="fill: none; stroke: #0000ff; stroke-opacity: 0.7; stroke-width: 1.5; stroke-linecap: round"/>
    </g>
    <g id="text_11">
     <!-- Fz -->
     <g style="fill: #262626" transform="translate(496.661563 119.132163) scale(0.14 -0.14)">
      <defs>
       <path id="DejaVuSans-7a" d="M 353 3500 
L 3084 3500 
L 3084 2975 
L 922 459 
L 3084 459 
L 3084 0 
L 275 0 
L 275 525 
L 2438 3041 
L 353 3041 
L 353 3500 
z
" transform="scale(0.015625)"/>
      </defs>
      <use xlink:href="#DejaVuSans-46"/>
      <use xlink:href="#DejaVuSans-7a" x="57.519531"/>
     </g>
    </g>
   </g>
  </g>
  <g id="axes_2">
   <g id="patch_8">
    <path d="M 112.32 616.71564 
L 525.6 616.71564 
L 525.6 363.15342 
L 112.32 363.15342 
z
" style="fill: #ffffff"/>
   </g>
   <g id="matplotlib.axis_3">
    <g id="xtick_7">
     <g id="line2d_23">
      <path d="M 112.32 616.71564 
L 112.32 363.15342 
" clip-path="url(#p96ebaec5ac)" style="fill: none; stroke: #cccccc; stroke-linecap: round"/>
     </g>
     <g id="text_12">
      <!-- 0 -->
      <g style="fill: #262626" transform="translate(107.86625 636.853453) scale(0.14 -0.14)">
       <use xlink:href="#DejaVuSans-30"/>
      </g>
     </g>
    </g>
    <g id="xtick_8">
     <g id="line2d_24">
      <path d="M 187.461818 616.71564 
L 187.461818 363.15342 
" clip-path="url(#p96ebaec5ac)" style="fill: none; stroke: #cccccc; stroke-linecap: round"/>
     </g>
     <g id="text_13">
      <!-- 20 -->
      <g style="fill: #262626" transform="translate(178.554318 636.853453) scale(0.14 -0.14)">
       <use xlink:href="#DejaVuSans-32"/>
       <use xlink:href="#DejaVuSans-30" x="63.623047"/>
      </g>
     </g>
    </g>
    <g id="xtick_9">
     <g id="line2d_25">
      <path d="M 262.603636 616.71564 
L 262.603636 363.15342 
" clip-path="url(#p96ebaec5ac)" style="fill: none; stroke: #cccccc; stroke-linecap: round"/>
     </g>
     <g id="text_14">
      <!-- 40 -->
      <g style="fill: #262626" transform="translate(253.696136 636.853453) scale(0.14 -0.14)">
       <defs>
        <path id="DejaVuSans-34" d="M 2419 4116 
L 825 1625 
L 2419 1625 
L 2419 4116 
z
M 2253 4666 
L 3047 4666 
L 3047 1625 
L 3713 1625 
L 3713 1100 
L 3047 1100 
L 3047 0 
L 2419 0 
L 2419 1100 
L 313 1100 
L 313 1709 
L 2253 4666 
z
" transform="scale(0.015625)"/>
       </defs>
       <use xlink:href="#DejaVuSans-34"/>
       <use xlink:href="#DejaVuSans-30" x="63.623047"/>
      </g>
     </g>
    </g>
    <g id="xtick_10">
     <g id="line2d_26">
      <path d="M 337.745455 616.71564 
L 337.745455 363.15342 
" clip-path="url(#p96ebaec5ac)" style="fill: none; stroke: #cccccc; stroke-linecap: round"/>
     </g>
     <g id="text_15">
      <!-- 60 -->
      <g style="fill: #262626" transform="translate(328.837955 636.853453) scale(0.14 -0.14)">
       <defs>
        <path id="DejaVuSans-36" d="M 2113 2584 
Q 1688 2584 1439 2293 
Q 1191 2003 1191 1497 
Q 1191 994 1439 701 
Q 1688 409 2113 409 
Q 2538 409 2786 701 
Q 3034 994 3034 1497 
Q 3034 2003 2786 2293 
Q 2538 2584 2113 2584 
z
M 3366 4563 
L 3366 3988 
Q 3128 4100 2886 4159 
Q 2644 4219 2406 4219 
Q 1781 4219 1451 3797 
Q 1122 3375 1075 2522 
Q 1259 2794 1537 2939 
Q 1816 3084 2150 3084 
Q 2853 3084 3261 2657 
Q 3669 2231 3669 1497 
Q 3669 778 3244 343 
Q 2819 -91 2113 -91 
Q 1303 -91 875 529 
Q 447 1150 447 2328 
Q 447 3434 972 4092 
Q 1497 4750 2381 4750 
Q 2619 4750 2861 4703 
Q 3103 4656 3366 4563 
z
" transform="scale(0.015625)"/>
       </defs>
       <use xlink:href="#DejaVuSans-36"/>
       <use xlink:href="#DejaVuSans-30" x="63.623047"/>
      </g>
     </g>
    </g>
    <g id="xtick_11">
     <g id="line2d_27">
      <path d="M 412.887273 616.71564 
L 412.887273 363.15342 
" clip-path="url(#p96ebaec5ac)" style="fill: none; stroke: #cccccc; stroke-linecap: round"/>
     </g>
     <g id="text_16">
      <!-- 80 -->
      <g style="fill: #262626" transform="translate(403.979773 636.853453) scale(0.14 -0.14)">
       <defs>
        <path id="DejaVuSans-38" d="M 2034 2216 
Q 1584 2216 1326 1975 
Q 1069 1734 1069 1313 
Q 1069 891 1326 650 
Q 1584 409 2034 409 
Q 2484 409 2743 651 
Q 3003 894 3003 1313 
Q 3003 1734 2745 1975 
Q 2488 2216 2034 2216 
z
M 1403 2484 
Q 997 2584 770 2862 
Q 544 3141 544 3541 
Q 544 4100 942 4425 
Q 1341 4750 2034 4750 
Q 2731 4750 3128 4425 
Q 3525 4100 3525 3541 
Q 3525 3141 3298 2862 
Q 3072 2584 2669 2484 
Q 3125 2378 3379 2068 
Q 3634 1759 3634 1313 
Q 3634 634 3220 271 
Q 2806 -91 2034 -91 
Q 1263 -91 848 271 
Q 434 634 434 1313 
Q 434 1759 690 2068 
Q 947 2378 1403 2484 
z
M 1172 3481 
Q 1172 3119 1398 2916 
Q 1625 2713 2034 2713 
Q 2441 2713 2670 2916 
Q 2900 3119 2900 3481 
Q 2900 3844 2670 4047 
Q 2441 4250 2034 4250 
Q 1625 4250 1398 4047 
Q 1172 3844 1172 3481 
z
" transform="scale(0.015625)"/>
       </defs>
       <use xlink:href="#DejaVuSans-38"/>
       <use xlink:href="#DejaVuSans-30" x="63.623047"/>
      </g>
     </g>
    </g>
    <g id="xtick_12">
     <g id="line2d_28">
      <path d="M 488.029091 616.71564 
L 488.029091 363.15342 
" clip-path="url(#p96ebaec5ac)" style="fill: none; stroke: #cccccc; stroke-linecap: round"/>
     </g>
     <g id="text_17">
      <!-- 100 -->
      <g style="fill: #262626" transform="translate(474.667841 636.853453) scale(0.14 -0.14)">
       <use xlink:href="#DejaVuSans-31"/>
       <use xlink:href="#DejaVuSans-30" x="63.623047"/>
       <use xlink:href="#DejaVuSans-30" x="127.246094"/>
      </g>
     </g>
    </g>
    <g id="text_18">
     <!-- Steps -->
     <g style="fill: #262626" transform="translate(296.57625 655.922515) scale(0.16 -0.16)">
      <defs>
       <path id="DejaVuSans-53" d="M 3425 4513 
L 3425 3897 
Q 3066 4069 2747 4153 
Q 2428 4238 2131 4238 
Q 1616 4238 1336 4038 
Q 1056 3838 1056 3469 
Q 1056 3159 1242 3001 
Q 1428 2844 1947 2747 
L 2328 2669 
Q 3034 2534 3370 2195 
Q 3706 1856 3706 1288 
Q 3706 609 3251 259 
Q 2797 -91 1919 -91 
Q 1588 -91 1214 -16 
Q 841 59 441 206 
L 441 856 
Q 825 641 1194 531 
Q 1563 422 1919 422 
Q 2459 422 2753 634 
Q 3047 847 3047 1241 
Q 3047 1584 2836 1778 
Q 2625 1972 2144 2069 
L 1759 2144 
Q 1053 2284 737 2584 
Q 422 2884 422 3419 
Q 422 4038 858 4394 
Q 1294 4750 2059 4750 
Q 2388 4750 2728 4690 
Q 3069 4631 3425 4513 
z
" transform="scale(0.015625)"/>
       <path id="DejaVuSans-74" d="M 1172 4494 
L 1172 3500 
L 2356 3500 
L 2356 3053 
L 1172 3053 
L 1172 1153 
Q 1172 725 1289 603 
Q 1406 481 1766 481 
L 2356 481 
L 2356 0 
L 1766 0 
Q 1100 0 847 248 
Q 594 497 594 1153 
L 594 3053 
L 172 3053 
L 172 3500 
L 594 3500 
L 594 4494 
L 1172 4494 
z
" transform="scale(0.015625)"/>
       <path id="DejaVuSans-70" d="M 1159 525 
L 1159 -1331 
L 581 -1331 
L 581 3500 
L 1159 3500 
L 1159 2969 
Q 1341 3281 1617 3432 
Q 1894 3584 2278 3584 
Q 2916 3584 3314 3078 
Q 3713 2572 3713 1747 
Q 3713 922 3314 415 
Q 2916 -91 2278 -91 
Q 1894 -91 1617 61 
Q 1341 213 1159 525 
z
M 3116 1747 
Q 3116 2381 2855 2742 
Q 2594 3103 2138 3103 
Q 1681 3103 1420 2742 
Q 1159 2381 1159 1747 
Q 1159 1113 1420 752 
Q 1681 391 2138 391 
Q 2594 391 2855 752 
Q 3116 1113 3116 1747 
z
" transform="scale(0.015625)"/>
       <path id="DejaVuSans-73" d="M 2834 3397 
L 2834 2853 
Q 2591 2978 2328 3040 
Q 2066 3103 1784 3103 
Q 1356 3103 1142 2972 
Q 928 2841 928 2578 
Q 928 2378 1081 2264 
Q 1234 2150 1697 2047 
L 1894 2003 
Q 2506 1872 2764 1633 
Q 3022 1394 3022 966 
Q 3022 478 2636 193 
Q 2250 -91 1575 -91 
Q 1294 -91 989 -36 
Q 684 19 347 128 
L 347 722 
Q 666 556 975 473 
Q 1284 391 1588 391 
Q 1994 391 2212 530 
Q 2431 669 2431 922 
Q 2431 1156 2273 1281 
Q 2116 1406 1581 1522 
L 1381 1569 
Q 847 1681 609 1914 
Q 372 2147 372 2553 
Q 372 3047 722 3315 
Q 1072 3584 1716 3584 
Q 2034 3584 2315 3537 
Q 2597 3491 2834 3397 
z
" transform="scale(0.015625)"/>
      </defs>
      <use xlink:href="#DejaVuSans-53"/>
      <use xlink:href="#DejaVuSans-74" x="63.476562"/>
      <use xlink:href="#DejaVuSans-65" x="102.685547"/>
      <use xlink:href="#DejaVuSans-70" x="164.208984"/>
      <use xlink:href="#DejaVuSans-73" x="227.685547"/>
     </g>
    </g>
   </g>
   <g id="matplotlib.axis_4">
    <g id="ytick_8">
     <g id="line2d_29">
      <path d="M 112.32 601.800215 
L 525.6 601.800215 
" clip-path="url(#p96ebaec5ac)" style="fill: none; stroke: #cccccc; stroke-linecap: round"/>
     </g>
     <g id="text_19">
      <!-- −0.3 -->
      <g style="fill: #262626" transform="translate(68.824062 607.119122) scale(0.14 -0.14)">
       <defs>
        <path id="DejaVuSans-2e" d="M 684 794 
L 1344 794 
L 1344 0 
L 684 0 
L 684 794 
z
" transform="scale(0.015625)"/>
        <path id="DejaVuSans-33" d="M 2597 2516 
Q 3050 2419 3304 2112 
Q 3559 1806 3559 1356 
Q 3559 666 3084 287 
Q 2609 -91 1734 -91 
Q 1441 -91 1130 -33 
Q 819 25 488 141 
L 488 750 
Q 750 597 1062 519 
Q 1375 441 1716 441 
Q 2309 441 2620 675 
Q 2931 909 2931 1356 
Q 2931 1769 2642 2001 
Q 2353 2234 1838 2234 
L 1294 2234 
L 1294 2753 
L 1863 2753 
Q 2328 2753 2575 2939 
Q 2822 3125 2822 3475 
Q 2822 3834 2567 4026 
Q 2313 4219 1838 4219 
Q 1578 4219 1281 4162 
Q 984 4106 628 3988 
L 628 4550 
Q 988 4650 1302 4700 
Q 1616 4750 1894 4750 
Q 2613 4750 3031 4423 
Q 3450 4097 3450 3541 
Q 3450 3153 3228 2886 
Q 3006 2619 2597 2516 
z
" transform="scale(0.015625)"/>
       </defs>
       <use xlink:href="#DejaVuSans-2212"/>
       <use xlink:href="#DejaVuSans-30" x="83.789062"/>
       <use xlink:href="#DejaVuSans-2e" x="147.412109"/>
       <use xlink:href="#DejaVuSans-33" x="179.199219"/>
      </g>
     </g>
    </g>
    <g id="ytick_9">
     <g id="line2d_30">
      <path d="M 112.32 571.969366 
L 525.6 571.969366 
" clip-path="url(#p96ebaec5ac)" style="fill: none; stroke: #cccccc; stroke-linecap: round"/>
     </g>
     <g id="text_20">
      <!-- −0.2 -->
      <g style="fill: #262626" transform="translate(68.824062 577.288272) scale(0.14 -0.14)">
       <use xlink:href="#DejaVuSans-2212"/>
       <use xlink:href="#DejaVuSans-30" x="83.789062"/>
       <use xlink:href="#DejaVuSans-2e" x="147.412109"/>
       <use xlink:href="#DejaVuSans-32" x="179.199219"/>
      </g>
     </g>
    </g>
    <g id="ytick_10">
     <g id="line2d_31">
      <path d="M 112.32 542.138516 
L 525.6 542.138516 
" clip-path="url(#p96ebaec5ac)" style="fill: none; stroke: #cccccc; stroke-linecap: round"/>
     </g>
     <g id="text_21">
      <!-- −0.1 -->
      <g style="fill: #262626" transform="translate(68.824062 547.457423) scale(0.14 -0.14)">
       <use xlink:href="#DejaVuSans-2212"/>
       <use xlink:href="#DejaVuSans-30" x="83.789062"/>
       <use xlink:href="#DejaVuSans-2e" x="147.412109"/>
       <use xlink:href="#DejaVuSans-31" x="179.199219"/>
      </g>
     </g>
    </g>
    <g id="ytick_11">
     <g id="line2d_32">
      <path d="M 112.32 512.307667 
L 525.6 512.307667 
" clip-path="url(#p96ebaec5ac)" style="fill: none; stroke: #cccccc; stroke-linecap: round"/>
     </g>
     <g id="text_22">
      <!-- 0.0 -->
      <g style="fill: #262626" transform="translate(80.555625 517.626573) scale(0.14 -0.14)">
       <use xlink:href="#DejaVuSans-30"/>
       <use xlink:href="#DejaVuSans-2e" x="63.623047"/>
       <use xlink:href="#DejaVuSans-30" x="95.410156"/>
      </g>
     </g>
    </g>
    <g id="ytick_12">
     <g id="line2d_33">
      <path d="M 112.32 482.476818 
L 525.6 482.476818 
" clip-path="url(#p96ebaec5ac)" style="fill: none; stroke: #cccccc; stroke-linecap: round"/>
     </g>
     <g id="text_23">
      <!-- 0.1 -->
      <g style="fill: #262626" transform="translate(80.555625 487.795724) scale(0.14 -0.14)">
       <use xlink:href="#DejaVuSans-30"/>
       <use xlink:href="#DejaVuSans-2e" x="63.623047"/>
       <use xlink:href="#DejaVuSans-31" x="95.410156"/>
      </g>
     </g>
    </g>
    <g id="ytick_13">
     <g id="line2d_34">
      <path d="M 112.32 452.645968 
L 525.6 452.645968 
" clip-path="url(#p96ebaec5ac)" style="fill: none; stroke: #cccccc; stroke-linecap: round"/>
     </g>
     <g id="text_24">
      <!-- 0.2 -->
      <g style="fill: #262626" transform="translate(80.555625 457.964874) scale(0.14 -0.14)">
       <use xlink:href="#DejaVuSans-30"/>
       <use xlink:href="#DejaVuSans-2e" x="63.623047"/>
       <use xlink:href="#DejaVuSans-32" x="95.410156"/>
      </g>
     </g>
    </g>
    <g id="ytick_14">
     <g id="line2d_35">
      <path d="M 112.32 422.815119 
L 525.6 422.815119 
" clip-path="url(#p96ebaec5ac)" style="fill: none; stroke: #cccccc; stroke-linecap: round"/>
     </g>
     <g id="text_25">
      <!-- 0.3 -->
      <g style="fill: #262626" transform="translate(80.555625 428.134025) scale(0.14 -0.14)">
       <use xlink:href="#DejaVuSans-30"/>
       <use xlink:href="#DejaVuSans-2e" x="63.623047"/>
       <use xlink:href="#DejaVuSans-33" x="95.410156"/>
      </g>
     </g>
    </g>
    <g id="ytick_15">
     <g id="line2d_36">
      <path d="M 112.32 392.984269 
L 525.6 392.984269 
" clip-path="url(#p96ebaec5ac)" style="fill: none; stroke: #cccccc; stroke-linecap: round"/>
     </g>
     <g id="text_26">
      <!-- 0.4 -->
      <g style="fill: #262626" transform="translate(80.555625 398.303176) scale(0.14 -0.14)">
       <use xlink:href="#DejaVuSans-30"/>
       <use xlink:href="#DejaVuSans-2e" x="63.623047"/>
       <use xlink:href="#DejaVuSans-34" x="95.410156"/>
      </g>
     </g>
    </g>
    <g id="ytick_16">
     <g id="line2d_37">
      <path d="M 112.32 363.15342 
L 525.6 363.15342 
" clip-path="url(#p96ebaec5ac)" style="fill: none; stroke: #cccccc; stroke-linecap: round"/>
     </g>
     <g id="text_27">
      <!-- 0.5 -->
      <g style="fill: #262626" transform="translate(80.555625 368.472326) scale(0.14 -0.14)">
       <use xlink:href="#DejaVuSans-30"/>
       <use xlink:href="#DejaVuSans-2e" x="63.623047"/>
       <use xlink:href="#DejaVuSans-35" x="95.410156"/>
      </g>
     </g>
    </g>
    <g id="text_28">
     <!-- Torque (N·m) -->
     <g style="fill: #262626" transform="translate(61.496562 541.68078) rotate(-90) scale(0.16 -0.16)">
      <defs>
       <path id="DejaVuSans-54" d="M -19 4666 
L 3928 4666 
L 3928 4134 
L 2272 4134 
L 2272 0 
L 1638 0 
L 1638 4134 
L -19 4134 
L -19 4666 
z
" transform="scale(0.015625)"/>
       <path id="DejaVuSans-71" d="M 947 1747 
Q 947 1113 1208 752 
Q 1469 391 1925 391 
Q 2381 391 2643 752 
Q 2906 1113 2906 1747 
Q 2906 2381 2643 2742 
Q 2381 3103 1925 3103 
Q 1469 3103 1208 2742 
Q 947 2381 947 1747 
z
M 2906 525 
Q 2725 213 2448 61 
Q 2172 -91 1784 -91 
Q 1150 -91 751 415 
Q 353 922 353 1747 
Q 353 2572 751 3078 
Q 1150 3584 1784 3584 
Q 2172 3584 2448 3432 
Q 2725 3281 2906 2969 
L 2906 3500 
L 3481 3500 
L 3481 -1331 
L 2906 -1331 
L 2906 525 
z
" transform="scale(0.015625)"/>
       <path id="DejaVuSans-75" d="M 544 1381 
L 544 3500 
L 1119 3500 
L 1119 1403 
Q 1119 906 1312 657 
Q 1506 409 1894 409 
Q 2359 409 2629 706 
Q 2900 1003 2900 1516 
L 2900 3500 
L 3475 3500 
L 3475 0 
L 2900 0 
L 2900 538 
Q 2691 219 2414 64 
Q 2138 -91 1772 -91 
Q 1169 -91 856 284 
Q 544 659 544 1381 
z
M 1991 3584 
L 1991 3584 
z
" transform="scale(0.015625)"/>
       <path id="DejaVuSans-b7" d="M 684 2619 
L 1344 2619 
L 1344 1825 
L 684 1825 
L 684 2619 
z
" transform="scale(0.015625)"/>
       <path id="DejaVuSans-6d" d="M 3328 2828 
Q 3544 3216 3844 3400 
Q 4144 3584 4550 3584 
Q 5097 3584 5394 3201 
Q 5691 2819 5691 2113 
L 5691 0 
L 5113 0 
L 5113 2094 
Q 5113 2597 4934 2840 
Q 4756 3084 4391 3084 
Q 3944 3084 3684 2787 
Q 3425 2491 3425 1978 
L 3425 0 
L 2847 0 
L 2847 2094 
Q 2847 2600 2669 2842 
Q 2491 3084 2119 3084 
Q 1678 3084 1418 2786 
Q 1159 2488 1159 1978 
L 1159 0 
L 581 0 
L 581 3500 
L 1159 3500 
L 1159 2956 
Q 1356 3278 1631 3431 
Q 1906 3584 2284 3584 
Q 2666 3584 2933 3390 
Q 3200 3197 3328 2828 
z
" transform="scale(0.015625)"/>
      </defs>
      <use xlink:href="#DejaVuSans-54"/>
      <use xlink:href="#DejaVuSans-6f" x="44.083984"/>
      <use xlink:href="#DejaVuSans-72" x="105.265625"/>
      <use xlink:href="#DejaVuSans-71" x="144.628906"/>
      <use xlink:href="#DejaVuSans-75" x="208.105469"/>
      <use xlink:href="#DejaVuSans-65" x="271.484375"/>
      <use xlink:href="#DejaVuSans-20" x="333.007812"/>
      <use xlink:href="#DejaVuSans-28" x="364.794922"/>
      <use xlink:href="#DejaVuSans-4e" x="403.808594"/>
      <use xlink:href="#DejaVuSans-b7" x="478.613281"/>
      <use xlink:href="#DejaVuSans-6d" x="510.400391"/>
      <use xlink:href="#DejaVuSans-29" x="607.8125"/>
     </g>
    </g>
   </g>
   <g id="line2d_38">
    <path d="M 112.32 512.307657 
L 116.077091 512.307657 
L 119.834182 512.307658 
L 123.591273 512.307658 
L 127.348364 512.307659 
L 131.105455 512.307655 
L 134.862545 512.307656 
L 138.619636 512.307656 
L 142.376727 512.307657 
L 146.133818 512.307657 
L 149.890909 512.307657 
L 153.648 512.307656 
L 157.405091 512.307654 
L 161.162182 512.307653 
L 164.919273 512.307651 
L 168.676364 512.307649 
L 172.433455 512.307651 
L 176.190545 512.307649 
L 179.947636 405.560599 
L 183.704727 441.439909 
L 187.461818 512.307649 
L 191.218909 512.307634 
L 194.976 512.307632 
L 198.733091 512.307631 
L 202.490182 512.30763 
L 206.247273 512.307631 
L 210.004364 512.307632 
L 213.761455 512.307634 
L 217.518545 512.307631 
L 221.275636 512.307636 
L 225.032727 512.307643 
L 228.789818 512.307645 
L 232.546909 512.30765 
L 236.304 512.307654 
L 240.061091 512.307656 
L 243.818182 512.307657 
L 247.575273 512.307657 
L 251.332364 512.307655 
L 255.089455 512.307651 
L 258.846545 512.307647 
L 262.603636 512.307642 
L 266.360727 512.307635 
L 270.117818 512.30764 
L 273.874909 512.307634 
L 277.632 594.573572 
L 281.389091 512.307689 
L 285.146182 512.307633 
L 288.903273 512.307633 
L 292.660364 512.307635 
L 296.417455 512.307631 
L 300.174545 524.229998 
L 303.931636 512.307692 
L 307.688727 512.307644 
L 311.445818 512.307647 
L 315.202909 512.307648 
L 318.96 512.307652 
L 322.717091 512.307655 
L 326.474182 512.307656 
L 330.231273 512.307656 
L 333.988364 512.307655 
L 337.745455 512.307653 
L 341.502545 512.30765 
L 345.259636 512.312566 
L 349.016727 512.307624 
L 352.773818 512.307646 
L 356.530909 512.307641 
L 360.288 512.30764 
L 364.045091 512.307579 
L 367.802182 512.307639 
L 371.559273 500.526222 
L 375.316364 505.772182 
L 379.073455 512.307615 
L 382.830545 512.307641 
L 386.587636 512.307645 
L 390.344727 512.307655 
L 394.101818 512.307661 
L 397.858909 512.307666 
L 401.616 512.307673 
L 405.373091 512.307675 
L 409.130182 512.307675 
L 412.887273 512.307672 
L 416.644364 512.307668 
L 420.401455 512.307662 
L 424.158545 512.307661 
L 427.915636 512.307653 
L 431.672727 512.307647 
L 435.429818 512.307643 
L 439.186909 512.30764 
L 442.944 512.307638 
L 446.701091 512.307638 
L 450.458182 512.30764 
L 454.215273 512.307643 
L 457.972364 491.861136 
L 461.729455 512.30679 
L 465.486545 512.307642 
L 469.243636 512.307657 
L 473.000727 512.307664 
L 476.757818 512.307668 
L 480.514909 512.307673 
L 484.272 512.307676 
L 488.029091 512.307678 
L 491.786182 512.30768 
L 495.543273 512.307676 
L 499.300364 512.307671 
L 503.057455 512.307664 
L 506.814545 512.307664 
L 510.571636 512.307655 
L 514.328727 512.30765 
L 518.085818 512.307646 
L 521.842909 512.307643 
L 525.6 512.307642 
L 529.357091 512.307642 
L 533.114182 512.307644 
L 536.871273 512.30765 
" clip-path="url(#p96ebaec5ac)" style="fill: none; stroke: #ff0000; stroke-opacity: 0.7; stroke-width: 1.5; stroke-linecap: round"/>
   </g>
   <g id="line2d_39">
    <path d="M 112.32 512.307703 
L 116.077091 512.307702 
L 119.834182 512.307701 
L 123.591273 512.307699 
L 127.348364 512.307697 
L 131.105455 512.30771 
L 134.862545 512.307707 
L 138.619636 512.307703 
L 142.376727 512.3077 
L 146.133818 512.307698 
L 149.890909 512.307697 
L 153.648 512.307697 
L 157.405091 512.307699 
L 161.162182 512.3077 
L 164.919273 512.307702 
L 168.676364 512.307705 
L 172.433455 512.307691 
L 176.190545 512.307694 
L 179.947636 386.621188 
L 183.704727 427.720135 
L 187.461818 512.307803 
L 191.218909 512.307715 
L 194.976 512.307719 
L 198.733091 512.307723 
L 202.490182 512.307725 
L 206.247273 512.307724 
L 210.004364 512.307721 
L 213.761455 512.307716 
L 217.518545 512.30773 
L 221.275636 512.307718 
L 225.032727 512.307703 
L 228.789818 512.307703 
L 232.546909 512.307686 
L 236.304 512.307673 
L 240.061091 512.307663 
L 243.818182 512.307659 
L 247.575273 512.30766 
L 251.332364 512.307665 
L 255.089455 512.307673 
L 258.846545 512.307685 
L 262.603636 512.307698 
L 266.360727 512.307712 
L 270.117818 512.3077 
L 273.874909 512.307708 
L 277.632 486.417376 
L 281.389091 512.307604 
L 285.146182 512.307712 
L 288.903273 512.307713 
L 292.660364 512.307711 
L 296.417455 512.307729 
L 300.174545 508.884805 
L 303.931636 512.30762 
L 307.688727 512.307711 
L 311.445818 512.3077 
L 315.202909 512.307702 
L 318.96 512.30769 
L 322.717091 512.30768 
L 326.474182 512.307675 
L 330.231273 512.307673 
L 333.988364 512.307675 
L 337.745455 512.307681 
L 341.502545 512.30769 
L 345.259636 512.326468 
L 349.016727 512.307699 
L 352.773818 512.307699 
L 356.530909 512.307707 
L 360.288 512.307711 
L 364.045091 512.307849 
L 367.802182 512.30772 
L 371.559273 563.886746 
L 375.316364 536.488042 
L 379.073455 512.307774 
L 382.830545 512.307715 
L 386.587636 512.307711 
L 390.344727 512.307686 
L 394.101818 512.307668 
L 397.858909 512.307658 
L 401.616 512.307646 
L 405.373091 512.307645 
L 409.130182 512.30765 
L 412.887273 512.30766 
L 416.644364 512.307676 
L 420.401455 512.307694 
L 424.158545 512.307691 
L 427.915636 512.307705 
L 431.672727 512.307716 
L 435.429818 512.307726 
L 439.186909 512.307732 
L 442.944 512.307734 
L 446.701091 512.307733 
L 450.458182 512.307728 
L 454.215273 512.30772 
L 457.972364 604.763413 
L 461.729455 512.312451 
L 465.486545 512.30771 
L 469.243636 512.307689 
L 473.000727 512.307665 
L 476.757818 512.307655 
L 480.514909 512.307646 
L 484.272 512.307641 
L 488.029091 512.307641 
L 491.786182 512.30764 
L 495.543273 512.307654 
L 499.300364 512.307673 
L 503.057455 512.307695 
L 506.814545 512.307694 
L 510.571636 512.307709 
L 514.328727 512.307722 
L 518.085818 512.307731 
L 521.842909 512.307737 
L 525.6 512.307738 
L 529.357091 512.307735 
L 533.114182 512.307729 
L 536.871273 512.307717 
" clip-path="url(#p96ebaec5ac)" style="fill: none; stroke: #008000; stroke-opacity: 0.7; stroke-width: 1.5; stroke-linecap: round"/>
   </g>
   <g id="line2d_40">
    <path d="M 112.32 512.307658 
L 116.077091 512.307657 
L 119.834182 512.307657 
L 123.591273 512.307656 
L 127.348364 512.307655 
L 131.105455 512.307655 
L 134.862545 512.307654 
L 138.619636 512.307653 
L 142.376727 512.307653 
L 146.133818 512.307652 
L 149.890909 512.307651 
L 153.648 512.307651 
L 157.405091 512.30765 
L 161.162182 512.30765 
L 164.919273 512.307649 
L 168.676364 512.307649 
L 172.433455 512.307648 
L 176.190545 512.307648 
L 179.947636 544.235953 
L 183.704727 532.764764 
L 187.461818 512.303207 
L 191.218909 512.307644 
L 194.976 512.307649 
L 198.733091 512.307649 
L 202.490182 512.307649 
L 206.247273 512.307649 
L 210.004364 512.307648 
L 213.761455 512.307648 
L 217.518545 512.307647 
L 221.275636 512.307647 
L 225.032727 512.307646 
L 228.789818 512.307646 
L 232.546909 512.307645 
L 236.304 512.307645 
L 240.061091 512.307645 
L 243.818182 512.307645 
L 247.575273 512.307646 
L 251.332364 512.307646 
L 255.089455 512.307646 
L 258.846545 512.307647 
L 262.603636 512.307647 
L 266.360727 512.307648 
L 270.117818 512.307647 
L 273.874909 512.307648 
L 277.632 505.84476 
L 281.389091 512.307529 
L 285.146182 512.307649 
L 288.903273 512.30765 
L 292.660364 512.30765 
L 296.417455 512.307649 
L 300.174545 507.329557 
L 303.931636 512.307562 
L 307.688727 512.307649 
L 311.445818 512.307649 
L 315.202909 512.307649 
L 318.96 512.307649 
L 322.717091 512.307649 
L 326.474182 512.30765 
L 330.231273 512.30765 
L 333.988364 512.30765 
L 337.745455 512.307651 
L 341.502545 512.307652 
L 345.259636 512.256006 
L 349.016727 512.307601 
L 352.773818 512.307653 
L 356.530909 512.307653 
L 360.288 512.307654 
L 364.045091 512.304765 
L 367.802182 512.307652 
L 371.559273 523.195535 
L 375.316364 516.350797 
L 379.073455 512.306317 
L 382.830545 512.307653 
L 386.587636 512.307654 
L 390.344727 512.307653 
L 394.101818 512.307654 
L 397.858909 512.307654 
L 401.616 512.307654 
L 405.373091 512.307654 
L 409.130182 512.307655 
L 412.887273 512.307656 
L 416.644364 512.307657 
L 420.401455 512.307657 
L 424.158545 512.307657 
L 427.915636 512.307658 
L 431.672727 512.307659 
L 435.429818 512.307659 
L 439.186909 512.307659 
L 442.944 512.30766 
L 446.701091 512.30766 
L 450.458182 512.30766 
L 454.215273 512.30766 
L 457.972364 534.440163 
L 461.729455 512.294412 
L 465.486545 512.307647 
L 469.243636 512.307658 
L 473.000727 512.307657 
L 476.757818 512.307659 
L 480.514909 512.30766 
L 484.272 512.30766 
L 488.029091 512.30766 
L 491.786182 512.30766 
L 495.543273 512.307661 
L 499.300364 512.307661 
L 503.057455 512.307662 
L 506.814545 512.307662 
L 510.571636 512.307663 
L 514.328727 512.307664 
L 518.085818 512.307664 
L 521.842909 512.307664 
L 525.6 512.307664 
L 529.357091 512.307664 
L 533.114182 512.307664 
L 536.871273 512.307664 
" clip-path="url(#p96ebaec5ac)" style="fill: none; stroke: #0000ff; stroke-opacity: 0.7; stroke-width: 1.5; stroke-linecap: round"/>
   </g>
   <g id="line2d_41"/>
   <g id="line2d_42"/>
   <g id="line2d_43"/>
   <g id="patch_9">
    <path d="M 112.32 616.71564 
L 112.32 363.15342 
" style="fill: none; stroke: #cccccc; stroke-width: 1.25; stroke-linejoin: miter; stroke-linecap: square"/>
   </g>
   <g id="patch_10">
    <path d="M 525.6 616.71564 
L 525.6 363.15342 
" style="fill: none; stroke: #cccccc; stroke-width: 1.25; stroke-linejoin: miter; stroke-linecap: square"/>
   </g>
   <g id="patch_11">
    <path d="M 112.32 616.71564 
L 525.6 616.71564 
" style="fill: none; stroke: #cccccc; stroke-width: 1.25; stroke-linejoin: miter; stroke-linecap: square"/>
   </g>
   <g id="patch_12">
    <path d="M 112.32 363.15342 
L 525.6 363.15342 
" style="fill: none; stroke: #cccccc; stroke-width: 1.25; stroke-linejoin: miter; stroke-linecap: square"/>
   </g>
   <g id="legend_2">
    <g id="patch_13">
     <path d="M 454.162813 436.001545 
L 515.8 436.001545 
Q 518.6 436.001545 518.6 433.201545 
L 518.6 372.95342 
Q 518.6 370.15342 515.8 370.15342 
L 454.162813 370.15342 
Q 451.362813 370.15342 451.362813 372.95342 
L 451.362813 433.201545 
Q 451.362813 436.001545 454.162813 436.001545 
z
" style="fill: #ffffff; opacity: 0.6; stroke: #cccccc; stroke-linejoin: miter"/>
    </g>
    <g id="line2d_44">
     <path d="M 456.962813 381.491233 
L 470.962813 381.491233 
L 484.962813 381.491233 
" style="fill: none; stroke: #ff0000; stroke-opacity: 0.7; stroke-width: 1.5; stroke-linecap: round"/>
    </g>
    <g id="text_29">
     <!-- Tx -->
     <g style="fill: #262626" transform="translate(496.162813 386.391233) scale(0.14 -0.14)">
      <use xlink:href="#DejaVuSans-54"/>
      <use xlink:href="#DejaVuSans-78" x="61.083984"/>
     </g>
    </g>
    <g id="line2d_45">
     <path d="M 456.962813 402.040608 
L 470.962813 402.040608 
L 484.962813 402.040608 
" style="fill: none; stroke: #008000; stroke-opacity: 0.7; stroke-width: 1.5; stroke-linecap: round"/>
    </g>
    <g id="text_30">
     <!-- Ty -->
     <g style="fill: #262626" transform="translate(496.162813 406.940607) scale(0.14 -0.14)">
      <use xlink:href="#DejaVuSans-54"/>
      <use xlink:href="#DejaVuSans-79" x="45.458984"/>
     </g>
    </g>
    <g id="line2d_46">
     <path d="M 456.962813 422.589983 
L 470.962813 422.589983 
L 484.962813 422.589983 
" style="fill: none; stroke: #0000ff; stroke-opacity: 0.7; stroke-width: 1.5; stroke-linecap: round"/>
    </g>
    <g id="text_31">
     <!-- Tz -->
     <g style="fill: #262626" transform="translate(496.162813 427.489982) scale(0.14 -0.14)">
      <use xlink:href="#DejaVuSans-54"/>
      <use xlink:href="#DejaVuSans-7a" x="61.083984"/>
     </g>
    </g>
   </g>
  </g>
 </g>
 <defs>
  <clipPath id="p137fe52c66">
   <rect x="112.32" y="54.7956" width="413.28" height="253.56222"/>
  </clipPath>
  <clipPath id="p96ebaec5ac">
   <rect x="112.32" y="363.15342" width="413.28" height="253.56222"/>
  </clipPath>
 </defs>
</svg>
