<?xml version="1.0" encoding="utf-8" standalone="no"?>
<!DOCTYPE svg PUBLIC "-//W3C//DTD SVG 1.1//EN"
  "http://www.w3.org/Graphics/SVG/1.1/DTD/svg11.dtd">
<svg xmlns:xlink="http://www.w3.org/1999/xlink" width="576pt" height="707.04pt" viewBox="0 0 576 707.04" xmlns="http://www.w3.org/2000/svg" version="1.1">
 <metadata>
  <rdf:RDF xmlns:dc="http://purl.org/dc/elements/1.1/" xmlns:cc="http://creativecommons.org/ns#" xmlns:rdf="http://www.w3.org/1999/02/22-rdf-syntax-ns#">
   <cc:Work>
    <dc:type rdf:resource="http://purl.org/dc/dcmitype/StillImage"/>
    <dc:date>2025-07-08T15:41:41.082757</dc:date>
    <dc:format>image/svg+xml</dc:format>
    <dc:creator>
     <cc:Agent>
      <dc:title>Matplotlib v3.7.5, https://matplotlib.org/</dc:title>
     </cc:Agent>
    </dc:creator>
   </cc:Work>
  </rdf:RDF>
 </metadata>
 <defs>
  <style type="text/css">*{stroke-linejoin: round; stroke-linecap: butt}</style>
 </defs>
 <g id="figure_1">
  <g id="patch_1">
   <path d="M 0 707.04 
L 576 707.04 
L 576 0 
L 0 0 
z
" style="fill: #ffffff"/>
  </g>
  <g id="axes_1">
   <g id="patch_2">
    <path d="M 77.94 324.26622 
L 547.605 324.26622 
L 547.605 17.676 
L 77.94 17.676 
z
" style="fill: #ffffff"/>
   </g>
   <g id="matplotlib.axis_1">
    <g id="xtick_1">
     <g id="line2d_1">
      <path d="M 77.94 324.26622 
L 77.94 17.676 
" clip-path="url(#p4ad3ba09ce)" style="fill: none; stroke: #cccccc; stroke-linecap: round"/>
     </g>
    </g>
    <g id="xtick_2">
     <g id="line2d_2">
      <path d="M 105.567353 324.26622 
L 105.567353 17.676 
" clip-path="url(#p4ad3ba09ce)" style="fill: none; stroke: #cccccc; stroke-linecap: round"/>
     </g>
    </g>
    <g id="xtick_3">
     <g id="line2d_3">
      <path d="M 133.194706 324.26622 
L 133.194706 17.676 
" clip-path="url(#p4ad3ba09ce)" style="fill: none; stroke: #cccccc; stroke-linecap: round"/>
     </g>
    </g>
    <g id="xtick_4">
     <g id="line2d_4">
      <path d="M 160.822059 324.26622 
L 160.822059 17.676 
" clip-path="url(#p4ad3ba09ce)" style="fill: none; stroke: #cccccc; stroke-linecap: round"/>
     </g>
    </g>
    <g id="xtick_5">
     <g id="line2d_5">
      <path d="M 188.449412 324.26622 
L 188.449412 17.676 
" clip-path="url(#p4ad3ba09ce)" style="fill: none; stroke: #cccccc; stroke-linecap: round"/>
     </g>
    </g>
    <g id="xtick_6">
     <g id="line2d_6">
      <path d="M 216.076765 324.26622 
L 216.076765 17.676 
" clip-path="url(#p4ad3ba09ce)" style="fill: none; stroke: #cccccc; stroke-linecap: round"/>
     </g>
    </g>
    <g id="xtick_7">
     <g id="line2d_7">
      <path d="M 243.704118 324.26622 
L 243.704118 17.676 
" clip-path="url(#p4ad3ba09ce)" style="fill: none; stroke: #cccccc; stroke-linecap: round"/>
     </g>
    </g>
    <g id="xtick_8">
     <g id="line2d_8">
      <path d="M 271.331471 324.26622 
L 271.331471 17.676 
" clip-path="url(#p4ad3ba09ce)" style="fill: none; stroke: #cccccc; stroke-linecap: round"/>
     </g>
    </g>
    <g id="xtick_9">
     <g id="line2d_9">
      <path d="M 298.958824 324.26622 
L 298.958824 17.676 
" clip-path="url(#p4ad3ba09ce)" style="fill: none; stroke: #cccccc; stroke-linecap: round"/>
     </g>
    </g>
    <g id="xtick_10">
     <g id="line2d_10">
      <path d="M 326.586176 324.26622 
L 326.586176 17.676 
" clip-path="url(#p4ad3ba09ce)" style="fill: none; stroke: #cccccc; stroke-linecap: round"/>
     </g>
    </g>
    <g id="xtick_11">
     <g id="line2d_11">
      <path d="M 354.213529 324.26622 
L 354.213529 17.676 
" clip-path="url(#p4ad3ba09ce)" style="fill: none; stroke: #cccccc; stroke-linecap: round"/>
     </g>
    </g>
    <g id="xtick_12">
     <g id="line2d_12">
      <path d="M 381.840882 324.26622 
L 381.840882 17.676 
" clip-path="url(#p4ad3ba09ce)" style="fill: none; stroke: #cccccc; stroke-linecap: round"/>
     </g>
    </g>
    <g id="xtick_13">
     <g id="line2d_13">
      <path d="M 409.468235 324.26622 
L 409.468235 17.676 
" clip-path="url(#p4ad3ba09ce)" style="fill: none; stroke: #cccccc; stroke-linecap: round"/>
     </g>
    </g>
    <g id="xtick_14">
     <g id="line2d_14">
      <path d="M 437.095588 324.26622 
L 437.095588 17.676 
" clip-path="url(#p4ad3ba09ce)" style="fill: none; stroke: #cccccc; stroke-linecap: round"/>
     </g>
    </g>
    <g id="xtick_15">
     <g id="line2d_15">
      <path d="M 464.722941 324.26622 
L 464.722941 17.676 
" clip-path="url(#p4ad3ba09ce)" style="fill: none; stroke: #cccccc; stroke-linecap: round"/>
     </g>
    </g>
    <g id="xtick_16">
     <g id="line2d_16">
      <path d="M 492.350294 324.26622 
L 492.350294 17.676 
" clip-path="url(#p4ad3ba09ce)" style="fill: none; stroke: #cccccc; stroke-linecap: round"/>
     </g>
    </g>
    <g id="xtick_17">
     <g id="line2d_17">
      <path d="M 519.977647 324.26622 
L 519.977647 17.676 
" clip-path="url(#p4ad3ba09ce)" style="fill: none; stroke: #cccccc; stroke-linecap: round"/>
     </g>
    </g>
    <g id="xtick_18">
     <g id="line2d_18">
      <path d="M 547.605 324.26622 
L 547.605 17.676 
" clip-path="url(#p4ad3ba09ce)" style="fill: none; stroke: #cccccc; stroke-linecap: round"/>
     </g>
    </g>
   </g>
   <g id="matplotlib.axis_2">
    <g id="ytick_1">
     <g id="line2d_19">
      <path d="M 77.94 307.23343 
L 547.605 307.23343 
" clip-path="url(#p4ad3ba09ce)" style="fill: none; stroke: #cccccc; stroke-linecap: round"/>
     </g>
     <g id="text_1">
      <!-- −14 -->
      <g style="fill: #262626" transform="translate(45.224844 311.412571) scale(0.11 -0.11)">
       <defs>
        <path id="DejaVuSans-2212" d="M 678 2272 
L 4684 2272 
L 4684 1741 
L 678 1741 
L 678 2272 
z
" transform="scale(0.015625)"/>
        <path id="DejaVuSans-31" d="M 794 531 
L 1825 531 
L 1825 4091 
L 703 3866 
L 703 4441 
L 1819 4666 
L 2450 4666 
L 2450 531 
L 3481 531 
L 3481 0 
L 794 0 
L 794 531 
z
" transform="scale(0.015625)"/>
        <path id="DejaVuSans-34" d="M 2419 4116 
L 825 1625 
L 2419 1625 
L 2419 4116 
z
M 2253 4666 
L 3047 4666 
L 3047 1625 
L 3713 1625 
L 3713 1100 
L 3047 1100 
L 3047 0 
L 2419 0 
L 2419 1100 
L 313 1100 
L 313 1709 
L 2253 4666 
z
" transform="scale(0.015625)"/>
       </defs>
       <use xlink:href="#DejaVuSans-2212"/>
       <use xlink:href="#DejaVuSans-31" x="83.789062"/>
       <use xlink:href="#DejaVuSans-34" x="147.412109"/>
      </g>
     </g>
    </g>
    <g id="ytick_2">
     <g id="line2d_20">
      <path d="M 77.94 273.16785 
L 547.605 273.16785 
" clip-path="url(#p4ad3ba09ce)" style="fill: none; stroke: #cccccc; stroke-linecap: round"/>
     </g>
     <g id="text_2">
      <!-- −12 -->
      <g style="fill: #262626" transform="translate(45.224844 277.346991) scale(0.11 -0.11)">
       <defs>
        <path id="DejaVuSans-32" d="M 1228 531 
L 3431 531 
L 3431 0 
L 469 0 
L 469 531 
Q 828 903 1448 1529 
Q 2069 2156 2228 2338 
Q 2531 2678 2651 2914 
Q 2772 3150 2772 3378 
Q 2772 3750 2511 3984 
Q 2250 4219 1831 4219 
Q 1534 4219 1204 4116 
Q 875 4013 500 3803 
L 500 4441 
Q 881 4594 1212 4672 
Q 1544 4750 1819 4750 
Q 2544 4750 2975 4387 
Q 3406 4025 3406 3419 
Q 3406 3131 3298 2873 
Q 3191 2616 2906 2266 
Q 2828 2175 2409 1742 
Q 1991 1309 1228 531 
z
" transform="scale(0.015625)"/>
       </defs>
       <use xlink:href="#DejaVuSans-2212"/>
       <use xlink:href="#DejaVuSans-31" x="83.789062"/>
       <use xlink:href="#DejaVuSans-32" x="147.412109"/>
      </g>
     </g>
    </g>
    <g id="ytick_3">
     <g id="line2d_21">
      <path d="M 77.94 239.10227 
L 547.605 239.10227 
" clip-path="url(#p4ad3ba09ce)" style="fill: none; stroke: #cccccc; stroke-linecap: round"/>
     </g>
     <g id="text_3">
      <!-- −10 -->
      <g style="fill: #262626" transform="translate(45.224844 243.281411) scale(0.11 -0.11)">
       <defs>
        <path id="DejaVuSans-30" d="M 2034 4250 
Q 1547 4250 1301 3770 
Q 1056 3291 1056 2328 
Q 1056 1369 1301 889 
Q 1547 409 2034 409 
Q 2525 409 2770 889 
Q 3016 1369 3016 2328 
Q 3016 3291 2770 3770 
Q 2525 4250 2034 4250 
z
M 2034 4750 
Q 2819 4750 3233 4129 
Q 3647 3509 3647 2328 
Q 3647 1150 3233 529 
Q 2819 -91 2034 -91 
Q 1250 -91 836 529 
Q 422 1150 422 2328 
Q 422 3509 836 4129 
Q 1250 4750 2034 4750 
z
" transform="scale(0.015625)"/>
       </defs>
       <use xlink:href="#DejaVuSans-2212"/>
       <use xlink:href="#DejaVuSans-31" x="83.789062"/>
       <use xlink:href="#DejaVuSans-30" x="147.412109"/>
      </g>
     </g>
    </g>
    <g id="ytick_4">
     <g id="line2d_22">
      <path d="M 77.94 205.03669 
L 547.605 205.03669 
" clip-path="url(#p4ad3ba09ce)" style="fill: none; stroke: #cccccc; stroke-linecap: round"/>
     </g>
     <g id="text_4">
      <!-- −8 -->
      <g style="fill: #262626" transform="translate(52.223594 209.215831) scale(0.11 -0.11)">
       <defs>
        <path id="DejaVuSans-38" d="M 2034 2216 
Q 1584 2216 1326 1975 
Q 1069 1734 1069 1313 
Q 1069 891 1326 650 
Q 1584 409 2034 409 
Q 2484 409 2743 651 
Q 3003 894 3003 1313 
Q 3003 1734 2745 1975 
Q 2488 2216 2034 2216 
z
M 1403 2484 
Q 997 2584 770 2862 
Q 544 3141 544 3541 
Q 544 4100 942 4425 
Q 1341 4750 2034 4750 
Q 2731 4750 3128 4425 
Q 3525 4100 3525 3541 
Q 3525 3141 3298 2862 
Q 3072 2584 2669 2484 
Q 3125 2378 3379 2068 
Q 3634 1759 3634 1313 
Q 3634 634 3220 271 
Q 2806 -91 2034 -91 
Q 1263 -91 848 271 
Q 434 634 434 1313 
Q 434 1759 690 2068 
Q 947 2378 1403 2484 
z
M 1172 3481 
Q 1172 3119 1398 2916 
Q 1625 2713 2034 2713 
Q 2441 2713 2670 2916 
Q 2900 3119 2900 3481 
Q 2900 3844 2670 4047 
Q 2441 4250 2034 4250 
Q 1625 4250 1398 4047 
Q 1172 3844 1172 3481 
z
" transform="scale(0.015625)"/>
       </defs>
       <use xlink:href="#DejaVuSans-2212"/>
       <use xlink:href="#DejaVuSans-38" x="83.789062"/>
      </g>
     </g>
    </g>
    <g id="ytick_5">
     <g id="line2d_23">
      <path d="M 77.94 170.97111 
L 547.605 170.97111 
" clip-path="url(#p4ad3ba09ce)" style="fill: none; stroke: #cccccc; stroke-linecap: round"/>
     </g>
     <g id="text_5">
      <!-- −6 -->
      <g style="fill: #262626" transform="translate(52.223594 175.150251) scale(0.11 -0.11)">
       <defs>
        <path id="DejaVuSans-36" d="M 2113 2584 
Q 1688 2584 1439 2293 
Q 1191 2003 1191 1497 
Q 1191 994 1439 701 
Q 1688 409 2113 409 
Q 2538 409 2786 701 
Q 3034 994 3034 1497 
Q 3034 2003 2786 2293 
Q 2538 2584 2113 2584 
z
M 3366 4563 
L 3366 3988 
Q 3128 4100 2886 4159 
Q 2644 4219 2406 4219 
Q 1781 4219 1451 3797 
Q 1122 3375 1075 2522 
Q 1259 2794 1537 2939 
Q 1816 3084 2150 3084 
Q 2853 3084 3261 2657 
Q 3669 2231 3669 1497 
Q 3669 778 3244 343 
Q 2819 -91 2113 -91 
Q 1303 -91 875 529 
Q 447 1150 447 2328 
Q 447 3434 972 4092 
Q 1497 4750 2381 4750 
Q 2619 4750 2861 4703 
Q 3103 4656 3366 4563 
z
" transform="scale(0.015625)"/>
       </defs>
       <use xlink:href="#DejaVuSans-2212"/>
       <use xlink:href="#DejaVuSans-36" x="83.789062"/>
      </g>
     </g>
    </g>
    <g id="ytick_6">
     <g id="line2d_24">
      <path d="M 77.94 136.90553 
L 547.605 136.90553 
" clip-path="url(#p4ad3ba09ce)" style="fill: none; stroke: #cccccc; stroke-linecap: round"/>
     </g>
     <g id="text_6">
      <!-- −4 -->
      <g style="fill: #262626" transform="translate(52.223594 141.084671) scale(0.11 -0.11)">
       <use xlink:href="#DejaVuSans-2212"/>
       <use xlink:href="#DejaVuSans-34" x="83.789062"/>
      </g>
     </g>
    </g>
    <g id="ytick_7">
     <g id="line2d_25">
      <path d="M 77.94 102.83995 
L 547.605 102.83995 
" clip-path="url(#p4ad3ba09ce)" style="fill: none; stroke: #cccccc; stroke-linecap: round"/>
     </g>
     <g id="text_7">
      <!-- −2 -->
      <g style="fill: #262626" transform="translate(52.223594 107.019091) scale(0.11 -0.11)">
       <use xlink:href="#DejaVuSans-2212"/>
       <use xlink:href="#DejaVuSans-32" x="83.789062"/>
      </g>
     </g>
    </g>
    <g id="ytick_8">
     <g id="line2d_26">
      <path d="M 77.94 68.77437 
L 547.605 68.77437 
" clip-path="url(#p4ad3ba09ce)" style="fill: none; stroke: #cccccc; stroke-linecap: round"/>
     </g>
     <g id="text_8">
      <!-- 0 -->
      <g style="fill: #262626" transform="translate(61.44125 72.953511) scale(0.11 -0.11)">
       <use xlink:href="#DejaVuSans-30"/>
      </g>
     </g>
    </g>
    <g id="ytick_9">
     <g id="line2d_27">
      <path d="M 77.94 34.70879 
L 547.605 34.70879 
" clip-path="url(#p4ad3ba09ce)" style="fill: none; stroke: #cccccc; stroke-linecap: round"/>
     </g>
     <g id="text_9">
      <!-- 2 -->
      <g style="fill: #262626" transform="translate(61.44125 38.887931) scale(0.11 -0.11)">
       <use xlink:href="#DejaVuSans-32"/>
      </g>
     </g>
    </g>
    <g id="text_10">
     <!-- Force (N) -->
     <g style="fill: #262626" transform="translate(38.729219 198.275797) rotate(-90) scale(0.12 -0.12)">
      <defs>
       <path id="DejaVuSans-46" d="M 628 4666 
L 3309 4666 
L 3309 4134 
L 1259 4134 
L 1259 2759 
L 3109 2759 
L 3109 2228 
L 1259 2228 
L 1259 0 
L 628 0 
L 628 4666 
z
" transform="scale(0.015625)"/>
       <path id="DejaVuSans-6f" d="M 1959 3097 
Q 1497 3097 1228 2736 
Q 959 2375 959 1747 
Q 959 1119 1226 758 
Q 1494 397 1959 397 
Q 2419 397 2687 759 
Q 2956 1122 2956 1747 
Q 2956 2369 2687 2733 
Q 2419 3097 1959 3097 
z
M 1959 3584 
Q 2709 3584 3137 3096 
Q 3566 2609 3566 1747 
Q 3566 888 3137 398 
Q 2709 -91 1959 -91 
Q 1206 -91 779 398 
Q 353 888 353 1747 
Q 353 2609 779 3096 
Q 1206 3584 1959 3584 
z
" transform="scale(0.015625)"/>
       <path id="DejaVuSans-72" d="M 2631 2963 
Q 2534 3019 2420 3045 
Q 2306 3072 2169 3072 
Q 1681 3072 1420 2755 
Q 1159 2438 1159 1844 
L 1159 0 
L 581 0 
L 581 3500 
L 1159 3500 
L 1159 2956 
Q 1341 3275 1631 3429 
Q 1922 3584 2338 3584 
Q 2397 3584 2469 3576 
Q 2541 3569 2628 3553 
L 2631 2963 
z
" transform="scale(0.015625)"/>
       <path id="DejaVuSans-63" d="M 3122 3366 
L 3122 2828 
Q 2878 2963 2633 3030 
Q 2388 3097 2138 3097 
Q 1578 3097 1268 2742 
Q 959 2388 959 1747 
Q 959 1106 1268 751 
Q 1578 397 2138 397 
Q 2388 397 2633 464 
Q 2878 531 3122 666 
L 3122 134 
Q 2881 22 2623 -34 
Q 2366 -91 2075 -91 
Q 1284 -91 818 406 
Q 353 903 353 1747 
Q 353 2603 823 3093 
Q 1294 3584 2113 3584 
Q 2378 3584 2631 3529 
Q 2884 3475 3122 3366 
z
" transform="scale(0.015625)"/>
       <path id="DejaVuSans-65" d="M 3597 1894 
L 3597 1613 
L 953 1613 
Q 991 1019 1311 708 
Q 1631 397 2203 397 
Q 2534 397 2845 478 
Q 3156 559 3463 722 
L 3463 178 
Q 3153 47 2828 -22 
Q 2503 -91 2169 -91 
Q 1331 -91 842 396 
Q 353 884 353 1716 
Q 353 2575 817 3079 
Q 1281 3584 2069 3584 
Q 2775 3584 3186 3129 
Q 3597 2675 3597 1894 
z
M 3022 2063 
Q 3016 2534 2758 2815 
Q 2500 3097 2075 3097 
Q 1594 3097 1305 2825 
Q 1016 2553 972 2059 
L 3022 2063 
z
" transform="scale(0.015625)"/>
       <path id="DejaVuSans-20" transform="scale(0.015625)"/>
       <path id="DejaVuSans-28" d="M 1984 4856 
Q 1566 4138 1362 3434 
Q 1159 2731 1159 2009 
Q 1159 1288 1364 580 
Q 1569 -128 1984 -844 
L 1484 -844 
Q 1016 -109 783 600 
Q 550 1309 550 2009 
Q 550 2706 781 3412 
Q 1013 4119 1484 4856 
L 1984 4856 
z
" transform="scale(0.015625)"/>
       <path id="DejaVuSans-4e" d="M 628 4666 
L 1478 4666 
L 3547 763 
L 3547 4666 
L 4159 4666 
L 4159 0 
L 3309 0 
L 1241 3903 
L 1241 0 
L 628 0 
L 628 4666 
z
" transform="scale(0.015625)"/>
       <path id="DejaVuSans-29" d="M 513 4856 
L 1013 4856 
Q 1481 4119 1714 3412 
Q 1947 2706 1947 2009 
Q 1947 1309 1714 600 
Q 1481 -109 1013 -844 
L 513 -844 
Q 928 -128 1133 580 
Q 1338 1288 1338 2009 
Q 1338 2731 1133 3434 
Q 928 4138 513 4856 
z
" transform="scale(0.015625)"/>
      </defs>
      <use xlink:href="#DejaVuSans-46"/>
      <use xlink:href="#DejaVuSans-6f" x="53.894531"/>
      <use xlink:href="#DejaVuSans-72" x="115.076172"/>
      <use xlink:href="#DejaVuSans-63" x="153.939453"/>
      <use xlink:href="#DejaVuSans-65" x="208.919922"/>
      <use xlink:href="#DejaVuSans-20" x="270.443359"/>
      <use xlink:href="#DejaVuSans-28" x="302.230469"/>
      <use xlink:href="#DejaVuSans-4e" x="341.244141"/>
      <use xlink:href="#DejaVuSans-29" x="416.048828"/>
     </g>
    </g>
   </g>
   <g id="line2d_28">
    <path d="M 77.94 68.773556 
L 174.635735 68.773506 
L 177.398471 75.844093 
L 180.161206 73.544425 
L 182.923941 68.77652 
L 193.974882 68.773464 
L 196.737618 70.813192 
L 199.500353 68.775424 
L 202.263088 68.773409 
L 205.025824 69.685668 
L 207.788559 68.8721 
L 210.551294 69.3374 
L 213.314029 69.041462 
L 216.076765 69.222749 
L 218.8395 69.097971 
L 221.602235 69.17685 
L 227.127706 69.153497 
L 235.415912 69.116029 
L 254.755059 69.108545 
L 274.094206 69.07558 
L 276.856941 69.128178 
L 279.619676 69.053583 
L 282.382412 69.169799 
L 285.145147 68.989238 
L 287.907882 69.297938 
L 290.670618 68.774603 
L 293.433353 69.812253 
L 296.196088 68.775507 
L 298.958824 68.773242 
L 301.721559 70.126311 
L 304.484294 68.776268 
L 310.009765 68.773004 
L 312.7725 70.781422 
L 315.535235 68.777251 
L 329.348912 68.773036 
L 332.111647 73.75049 
L 334.874382 68.773108 
L 351.450794 68.772656 
L 354.213529 81.71546 
L 356.976265 68.773317 
L 362.501735 68.772407 
L 365.264471 77.434434 
L 368.027206 68.772965 
L 379.078147 68.772529 
L 381.840882 81.79161 
L 384.603618 68.773368 
L 390.129088 68.772528 
L 392.891824 77.377153 
L 395.654559 68.773021 
L 406.7055 68.772424 
L 409.468235 70.835844 
L 412.230971 68.773349 
L 417.756441 68.772442 
L 420.519176 77.298106 
L 423.281912 68.772991 
L 434.332853 68.772539 
L 437.095588 81.402353 
L 439.858324 68.773271 
L 445.383794 68.772752 
L 448.146529 75.587325 
L 450.909265 68.772799 
L 467.485676 68.772505 
L 470.248412 80.6496 
L 473.011147 68.773318 
L 481.299353 68.772604 
L 484.062088 75.002446 
L 486.824824 68.77288 
L 506.163971 68.772912 
L 508.926706 83.305987 
L 511.689441 68.772896 
L 525.503118 68.772416 
L 528.265853 77.286877 
L 531.028588 68.776521 
L 577 68.772421 
L 577 68.772421 
" clip-path="url(#p4ad3ba09ce)" style="fill: none; stroke: #ff0000; stroke-opacity: 0.7; stroke-width: 1.5; stroke-linecap: round"/>
   </g>
   <g id="line2d_29">
    <path d="M 77.94 68.774419 
L 174.635735 68.774388 
L 177.398471 71.087281 
L 180.161206 70.340631 
L 182.923941 68.774642 
L 193.974882 68.774354 
L 196.737618 69.368237 
L 199.500353 68.774499 
L 310.009765 68.77414 
L 312.7725 68.411238 
L 315.535235 68.775405 
L 329.348912 68.773973 
L 332.111647 67.628337 
L 334.874382 68.774333 
L 351.450794 68.77378 
L 354.213529 76.209364 
L 356.976265 68.774187 
L 362.501735 68.773638 
L 365.264471 74.097349 
L 368.027206 68.774078 
L 379.078147 68.773664 
L 381.840882 76.717827 
L 384.603618 68.774194 
L 390.129088 68.77362 
L 392.891824 74.254896 
L 395.654559 68.774043 
L 406.7055 68.773451 
L 409.468235 61.510551 
L 412.230971 68.774029 
L 417.756441 68.773373 
L 420.519176 74.334877 
L 423.281912 68.773838 
L 434.332853 68.773399 
L 437.095588 77.180742 
L 439.858324 68.773941 
L 445.383794 68.773494 
L 448.146529 73.467896 
L 450.909265 68.773709 
L 467.485676 68.773259 
L 470.248412 76.631589 
L 473.011147 68.773881 
L 481.299353 68.773249 
L 484.062088 72.960467 
L 486.824824 68.773587 
L 506.163971 68.77332 
L 508.926706 80.845585 
L 511.689441 68.773544 
L 525.503118 68.773011 
L 528.265853 76.324252 
L 531.028588 68.776104 
L 577 68.772869 
L 577 68.772869 
" clip-path="url(#p4ad3ba09ce)" style="fill: none; stroke: #008000; stroke-opacity: 0.7; stroke-width: 1.5; stroke-linecap: round"/>
   </g>
   <g id="line2d_30">
    <path d="M 77.94 68.775126 
L 174.635735 68.776507 
L 177.398471 181.387567 
L 180.161206 160.021899 
L 182.923941 68.771647 
L 193.974882 68.776125 
L 196.737618 106.562437 
L 199.500353 68.773038 
L 202.263088 68.776137 
L 205.025824 87.579213 
L 207.788559 70.970051 
L 210.551294 80.946914 
L 213.314029 74.762275 
L 216.076765 78.723189 
L 218.8395 76.103679 
L 221.602235 77.894172 
L 224.364971 76.627921 
L 227.127706 77.551005 
L 229.890441 76.852821 
L 232.653176 77.401291 
L 235.415912 76.959395 
L 238.178647 77.322069 
L 240.941382 77.014451 
L 243.704118 77.287516 
L 246.466853 77.03704 
L 249.229588 77.279536 
L 251.992324 77.033007 
L 254.755059 77.30123 
L 257.517794 76.996341 
L 260.280529 77.331901 
L 263.043265 76.96071 
L 265.806 77.406747 
L 268.568735 76.846367 
L 271.331471 77.566053 
L 274.094206 76.621752 
L 276.856941 77.917294 
L 279.619676 76.045718 
L 282.382412 78.888504 
L 285.145147 74.385996 
L 287.907882 81.825123 
L 290.670618 68.78303 
L 293.433353 92.777462 
L 296.196088 68.772118 
L 298.958824 68.776313 
L 301.721559 99.235532 
L 304.484294 68.771767 
L 310.009765 68.776836 
L 312.7725 117.996613 
L 315.535235 68.770366 
L 329.348912 68.776817 
L 332.111647 202.286342 
L 334.874382 68.772877 
L 351.450794 68.77746 
L 354.213529 317.265609 
L 356.976265 68.773057 
L 362.501735 68.777723 
L 365.264471 231.083778 
L 368.027206 68.772782 
L 379.078147 68.77779 
L 381.840882 318.719391 
L 384.603618 68.773054 
L 390.129088 68.777738 
L 392.891824 230.505111 
L 395.654559 68.772791 
L 406.7055 68.777981 
L 409.468235 311.132105 
L 412.230971 68.773072 
L 417.756441 68.777821 
L 420.519176 229.774679 
L 423.281912 68.772836 
L 434.332853 68.777773 
L 437.095588 312.930595 
L 439.858324 68.773053 
L 445.383794 68.777245 
L 448.146529 196.404745 
L 450.909265 68.772688 
L 467.485676 68.778099 
L 470.248412 309.893926 
L 473.011147 68.77311 
L 481.299353 68.777696 
L 484.062088 190.657363 
L 486.824824 68.772813 
L 506.163971 68.777232 
L 508.926706 272.015471 
L 511.689441 68.772783 
L 525.503118 68.778174 
L 528.265853 244.676015 
L 531.028588 68.770834 
L 577 68.778547 
L 577 68.778547 
" clip-path="url(#p4ad3ba09ce)" style="fill: none; stroke: #0000ff; stroke-opacity: 0.7; stroke-width: 1.5; stroke-linecap: round"/>
   </g>
   <g id="line2d_31"/>
   <g id="line2d_32"/>
   <g id="line2d_33"/>
   <g id="patch_3">
    <path d="M 77.94 324.26622 
L 77.94 17.676 
" style="fill: none; stroke: #cccccc; stroke-width: 1.25; stroke-linejoin: miter; stroke-linecap: square"/>
   </g>
   <g id="patch_4">
    <path d="M 547.605 324.26622 
L 547.605 17.676 
" style="fill: none; stroke: #cccccc; stroke-width: 1.25; stroke-linejoin: miter; stroke-linecap: square"/>
   </g>
   <g id="patch_5">
    <path d="M 77.94 324.26622 
L 547.605 324.26622 
" style="fill: none; stroke: #cccccc; stroke-width: 1.25; stroke-linejoin: miter; stroke-linecap: square"/>
   </g>
   <g id="patch_6">
    <path d="M 77.94 17.676 
L 547.605 17.676 
" style="fill: none; stroke: #cccccc; stroke-width: 1.25; stroke-linejoin: miter; stroke-linecap: square"/>
   </g>
   <g id="legend_1">
    <g id="patch_7">
     <path d="M 509.06875 61.3035 
L 544.005 61.3035 
Q 545.605 61.3035 545.605 59.7035 
L 545.605 25.276 
Q 545.605 23.676 544.005 23.676 
L 509.06875 23.676 
Q 507.46875 23.676 507.46875 25.276 
L 507.46875 59.7035 
Q 507.46875 61.3035 509.06875 61.3035 
z
" style="fill: #4c4c4c; opacity: 0.5; stroke: #4c4c4c; stroke-linejoin: miter"/>
    </g>
    <g id="patch_8">
     <path d="M 507.06875 59.3035 
L 542.005 59.3035 
Q 543.605 59.3035 543.605 57.7035 
L 543.605 23.276 
Q 543.605 21.676 542.005 21.676 
L 507.06875 21.676 
Q 505.46875 21.676 505.46875 23.276 
L 505.46875 57.7035 
Q 505.46875 59.3035 507.06875 59.3035 
z
" style="fill: #ffffff; stroke: #cccccc; stroke-linejoin: miter"/>
    </g>
    <g id="line2d_34">
     <path d="M 508.66875 28.15475 
L 516.66875 28.15475 
L 524.66875 28.15475 
" style="fill: none; stroke: #ff0000; stroke-opacity: 0.7; stroke-width: 1.5; stroke-linecap: round"/>
    </g>
    <g id="text_11">
     <!-- Fx -->
     <g style="fill: #262626" transform="translate(531.06875 30.95475) scale(0.08 -0.08)">
      <defs>
       <path id="DejaVuSans-78" d="M 3513 3500 
L 2247 1797 
L 3578 0 
L 2900 0 
L 1881 1375 
L 863 0 
L 184 0 
L 1544 1831 
L 300 3500 
L 978 3500 
L 1906 2253 
L 2834 3500 
L 3513 3500 
z
" transform="scale(0.015625)"/>
      </defs>
      <use xlink:href="#DejaVuSans-46"/>
      <use xlink:href="#DejaVuSans-78" x="57.519531"/>
     </g>
    </g>
    <g id="line2d_35">
     <path d="M 508.66875 39.89725 
L 516.66875 39.89725 
L 524.66875 39.89725 
" style="fill: none; stroke: #008000; stroke-opacity: 0.7; stroke-width: 1.5; stroke-linecap: round"/>
    </g>
    <g id="text_12">
     <!-- Fy -->
     <g style="fill: #262626" transform="translate(531.06875 42.69725) scale(0.08 -0.08)">
      <defs>
       <path id="DejaVuSans-79" d="M 2059 -325 
Q 1816 -950 1584 -1140 
Q 1353 -1331 966 -1331 
L 506 -1331 
L 506 -850 
L 844 -850 
Q 1081 -850 1212 -737 
Q 1344 -625 1503 -206 
L 1606 56 
L 191 3500 
L 800 3500 
L 1894 763 
L 2988 3500 
L 3597 3500 
L 2059 -325 
z
" transform="scale(0.015625)"/>
      </defs>
      <use xlink:href="#DejaVuSans-46"/>
      <use xlink:href="#DejaVuSans-79" x="48.394531"/>
     </g>
    </g>
    <g id="line2d_36">
     <path d="M 508.66875 51.63975 
L 516.66875 51.63975 
L 524.66875 51.63975 
" style="fill: none; stroke: #0000ff; stroke-opacity: 0.7; stroke-width: 1.5; stroke-linecap: round"/>
    </g>
    <g id="text_13">
     <!-- Fz -->
     <g style="fill: #262626" transform="translate(531.06875 54.43975) scale(0.08 -0.08)">
      <defs>
       <path id="DejaVuSans-7a" d="M 353 3500 
L 3084 3500 
L 3084 2975 
L 922 459 
L 3084 459 
L 3084 0 
L 275 0 
L 275 525 
L 2438 3041 
L 353 3041 
L 353 3500 
z
" transform="scale(0.015625)"/>
      </defs>
      <use xlink:href="#DejaVuSans-46"/>
      <use xlink:href="#DejaVuSans-7a" x="57.519531"/>
     </g>
    </g>
   </g>
  </g>
  <g id="axes_2">
   <g id="patch_9">
    <path d="M 77.94 652.77468 
L 547.605 652.77468 
L 547.605 346.18446 
L 77.94 346.18446 
z
" style="fill: #ffffff"/>
   </g>
   <g id="matplotlib.axis_3">
    <g id="xtick_19">
     <g id="line2d_37">
      <path d="M 77.94 652.77468 
L 77.94 346.18446 
" clip-path="url(#pe08053a482)" style="fill: none; stroke: #cccccc; stroke-linecap: round"/>
     </g>
     <g id="text_14">
      <!-- 0 -->
      <g style="fill: #262626" transform="translate(74.440625 670.632961) scale(0.11 -0.11)">
       <use xlink:href="#DejaVuSans-30"/>
      </g>
     </g>
    </g>
    <g id="xtick_20">
     <g id="line2d_38">
      <path d="M 105.567353 652.77468 
L 105.567353 346.18446 
" clip-path="url(#pe08053a482)" style="fill: none; stroke: #cccccc; stroke-linecap: round"/>
     </g>
     <g id="text_15">
      <!-- 10 -->
      <g style="fill: #262626" transform="translate(98.568603 670.632961) scale(0.11 -0.11)">
       <use xlink:href="#DejaVuSans-31"/>
       <use xlink:href="#DejaVuSans-30" x="63.623047"/>
      </g>
     </g>
    </g>
    <g id="xtick_21">
     <g id="line2d_39">
      <path d="M 133.194706 652.77468 
L 133.194706 346.18446 
" clip-path="url(#pe08053a482)" style="fill: none; stroke: #cccccc; stroke-linecap: round"/>
     </g>
     <g id="text_16">
      <!-- 20 -->
      <g style="fill: #262626" transform="translate(126.195956 670.632961) scale(0.11 -0.11)">
       <use xlink:href="#DejaVuSans-32"/>
       <use xlink:href="#DejaVuSans-30" x="63.623047"/>
      </g>
     </g>
    </g>
    <g id="xtick_22">
     <g id="line2d_40">
      <path d="M 160.822059 652.77468 
L 160.822059 346.18446 
" clip-path="url(#pe08053a482)" style="fill: none; stroke: #cccccc; stroke-linecap: round"/>
     </g>
     <g id="text_17">
      <!-- 30 -->
      <g style="fill: #262626" transform="translate(153.823309 670.632961) scale(0.11 -0.11)">
       <defs>
        <path id="DejaVuSans-33" d="M 2597 2516 
Q 3050 2419 3304 2112 
Q 3559 1806 3559 1356 
Q 3559 666 3084 287 
Q 2609 -91 1734 -91 
Q 1441 -91 1130 -33 
Q 819 25 488 141 
L 488 750 
Q 750 597 1062 519 
Q 1375 441 1716 441 
Q 2309 441 2620 675 
Q 2931 909 2931 1356 
Q 2931 1769 2642 2001 
Q 2353 2234 1838 2234 
L 1294 2234 
L 1294 2753 
L 1863 2753 
Q 2328 2753 2575 2939 
Q 2822 3125 2822 3475 
Q 2822 3834 2567 4026 
Q 2313 4219 1838 4219 
Q 1578 4219 1281 4162 
Q 984 4106 628 3988 
L 628 4550 
Q 988 4650 1302 4700 
Q 1616 4750 1894 4750 
Q 2613 4750 3031 4423 
Q 3450 4097 3450 3541 
Q 3450 3153 3228 2886 
Q 3006 2619 2597 2516 
z
" transform="scale(0.015625)"/>
       </defs>
       <use xlink:href="#DejaVuSans-33"/>
       <use xlink:href="#DejaVuSans-30" x="63.623047"/>
      </g>
     </g>
    </g>
    <g id="xtick_23">
     <g id="line2d_41">
      <path d="M 188.449412 652.77468 
L 188.449412 346.18446 
" clip-path="url(#pe08053a482)" style="fill: none; stroke: #cccccc; stroke-linecap: round"/>
     </g>
     <g id="text_18">
      <!-- 40 -->
      <g style="fill: #262626" transform="translate(181.450662 670.632961) scale(0.11 -0.11)">
       <use xlink:href="#DejaVuSans-34"/>
       <use xlink:href="#DejaVuSans-30" x="63.623047"/>
      </g>
     </g>
    </g>
    <g id="xtick_24">
     <g id="line2d_42">
      <path d="M 216.076765 652.77468 
L 216.076765 346.18446 
" clip-path="url(#pe08053a482)" style="fill: none; stroke: #cccccc; stroke-linecap: round"/>
     </g>
     <g id="text_19">
      <!-- 50 -->
      <g style="fill: #262626" transform="translate(209.078015 670.632961) scale(0.11 -0.11)">
       <defs>
        <path id="DejaVuSans-35" d="M 691 4666 
L 3169 4666 
L 3169 4134 
L 1269 4134 
L 1269 2991 
Q 1406 3038 1543 3061 
Q 1681 3084 1819 3084 
Q 2600 3084 3056 2656 
Q 3513 2228 3513 1497 
Q 3513 744 3044 326 
Q 2575 -91 1722 -91 
Q 1428 -91 1123 -41 
Q 819 9 494 109 
L 494 744 
Q 775 591 1075 516 
Q 1375 441 1709 441 
Q 2250 441 2565 725 
Q 2881 1009 2881 1497 
Q 2881 1984 2565 2268 
Q 2250 2553 1709 2553 
Q 1456 2553 1204 2497 
Q 953 2441 691 2322 
L 691 4666 
z
" transform="scale(0.015625)"/>
       </defs>
       <use xlink:href="#DejaVuSans-35"/>
       <use xlink:href="#DejaVuSans-30" x="63.623047"/>
      </g>
     </g>
    </g>
    <g id="xtick_25">
     <g id="line2d_43">
      <path d="M 243.704118 652.77468 
L 243.704118 346.18446 
" clip-path="url(#pe08053a482)" style="fill: none; stroke: #cccccc; stroke-linecap: round"/>
     </g>
     <g id="text_20">
      <!-- 60 -->
      <g style="fill: #262626" transform="translate(236.705368 670.632961) scale(0.11 -0.11)">
       <use xlink:href="#DejaVuSans-36"/>
       <use xlink:href="#DejaVuSans-30" x="63.623047"/>
      </g>
     </g>
    </g>
    <g id="xtick_26">
     <g id="line2d_44">
      <path d="M 271.331471 652.77468 
L 271.331471 346.18446 
" clip-path="url(#pe08053a482)" style="fill: none; stroke: #cccccc; stroke-linecap: round"/>
     </g>
     <g id="text_21">
      <!-- 70 -->
      <g style="fill: #262626" transform="translate(264.332721 670.632961) scale(0.11 -0.11)">
       <defs>
        <path id="DejaVuSans-37" d="M 525 4666 
L 3525 4666 
L 3525 4397 
L 1831 0 
L 1172 0 
L 2766 4134 
L 525 4134 
L 525 4666 
z
" transform="scale(0.015625)"/>
       </defs>
       <use xlink:href="#DejaVuSans-37"/>
       <use xlink:href="#DejaVuSans-30" x="63.623047"/>
      </g>
     </g>
    </g>
    <g id="xtick_27">
     <g id="line2d_45">
      <path d="M 298.958824 652.77468 
L 298.958824 346.18446 
" clip-path="url(#pe08053a482)" style="fill: none; stroke: #cccccc; stroke-linecap: round"/>
     </g>
     <g id="text_22">
      <!-- 80 -->
      <g style="fill: #262626" transform="translate(291.960074 670.632961) scale(0.11 -0.11)">
       <use xlink:href="#DejaVuSans-38"/>
       <use xlink:href="#DejaVuSans-30" x="63.623047"/>
      </g>
     </g>
    </g>
    <g id="xtick_28">
     <g id="line2d_46">
      <path d="M 326.586176 652.77468 
L 326.586176 346.18446 
" clip-path="url(#pe08053a482)" style="fill: none; stroke: #cccccc; stroke-linecap: round"/>
     </g>
     <g id="text_23">
      <!-- 90 -->
      <g style="fill: #262626" transform="translate(319.587426 670.632961) scale(0.11 -0.11)">
       <defs>
        <path id="DejaVuSans-39" d="M 703 97 
L 703 672 
Q 941 559 1184 500 
Q 1428 441 1663 441 
Q 2288 441 2617 861 
Q 2947 1281 2994 2138 
Q 2813 1869 2534 1725 
Q 2256 1581 1919 1581 
Q 1219 1581 811 2004 
Q 403 2428 403 3163 
Q 403 3881 828 4315 
Q 1253 4750 1959 4750 
Q 2769 4750 3195 4129 
Q 3622 3509 3622 2328 
Q 3622 1225 3098 567 
Q 2575 -91 1691 -91 
Q 1453 -91 1209 -44 
Q 966 3 703 97 
z
M 1959 2075 
Q 2384 2075 2632 2365 
Q 2881 2656 2881 3163 
Q 2881 3666 2632 3958 
Q 2384 4250 1959 4250 
Q 1534 4250 1286 3958 
Q 1038 3666 1038 3163 
Q 1038 2656 1286 2365 
Q 1534 2075 1959 2075 
z
" transform="scale(0.015625)"/>
       </defs>
       <use xlink:href="#DejaVuSans-39"/>
       <use xlink:href="#DejaVuSans-30" x="63.623047"/>
      </g>
     </g>
    </g>
    <g id="xtick_29">
     <g id="line2d_47">
      <path d="M 354.213529 652.77468 
L 354.213529 346.18446 
" clip-path="url(#pe08053a482)" style="fill: none; stroke: #cccccc; stroke-linecap: round"/>
     </g>
     <g id="text_24">
      <!-- 100 -->
      <g style="fill: #262626" transform="translate(343.715404 670.632961) scale(0.11 -0.11)">
       <use xlink:href="#DejaVuSans-31"/>
       <use xlink:href="#DejaVuSans-30" x="63.623047"/>
       <use xlink:href="#DejaVuSans-30" x="127.246094"/>
      </g>
     </g>
    </g>
    <g id="xtick_30">
     <g id="line2d_48">
      <path d="M 381.840882 652.77468 
L 381.840882 346.18446 
" clip-path="url(#pe08053a482)" style="fill: none; stroke: #cccccc; stroke-linecap: round"/>
     </g>
     <g id="text_25">
      <!-- 110 -->
      <g style="fill: #262626" transform="translate(371.342757 670.632961) scale(0.11 -0.11)">
       <use xlink:href="#DejaVuSans-31"/>
       <use xlink:href="#DejaVuSans-31" x="63.623047"/>
       <use xlink:href="#DejaVuSans-30" x="127.246094"/>
      </g>
     </g>
    </g>
    <g id="xtick_31">
     <g id="line2d_49">
      <path d="M 409.468235 652.77468 
L 409.468235 346.18446 
" clip-path="url(#pe08053a482)" style="fill: none; stroke: #cccccc; stroke-linecap: round"/>
     </g>
     <g id="text_26">
      <!-- 120 -->
      <g style="fill: #262626" transform="translate(398.97011 670.632961) scale(0.11 -0.11)">
       <use xlink:href="#DejaVuSans-31"/>
       <use xlink:href="#DejaVuSans-32" x="63.623047"/>
       <use xlink:href="#DejaVuSans-30" x="127.246094"/>
      </g>
     </g>
    </g>
    <g id="xtick_32">
     <g id="line2d_50">
      <path d="M 437.095588 652.77468 
L 437.095588 346.18446 
" clip-path="url(#pe08053a482)" style="fill: none; stroke: #cccccc; stroke-linecap: round"/>
     </g>
     <g id="text_27">
      <!-- 130 -->
      <g style="fill: #262626" transform="translate(426.597463 670.632961) scale(0.11 -0.11)">
       <use xlink:href="#DejaVuSans-31"/>
       <use xlink:href="#DejaVuSans-33" x="63.623047"/>
       <use xlink:href="#DejaVuSans-30" x="127.246094"/>
      </g>
     </g>
    </g>
    <g id="xtick_33">
     <g id="line2d_51">
      <path d="M 464.722941 652.77468 
L 464.722941 346.18446 
" clip-path="url(#pe08053a482)" style="fill: none; stroke: #cccccc; stroke-linecap: round"/>
     </g>
     <g id="text_28">
      <!-- 140 -->
      <g style="fill: #262626" transform="translate(454.224816 670.632961) scale(0.11 -0.11)">
       <use xlink:href="#DejaVuSans-31"/>
       <use xlink:href="#DejaVuSans-34" x="63.623047"/>
       <use xlink:href="#DejaVuSans-30" x="127.246094"/>
      </g>
     </g>
    </g>
    <g id="xtick_34">
     <g id="line2d_52">
      <path d="M 492.350294 652.77468 
L 492.350294 346.18446 
" clip-path="url(#pe08053a482)" style="fill: none; stroke: #cccccc; stroke-linecap: round"/>
     </g>
     <g id="text_29">
      <!-- 150 -->
      <g style="fill: #262626" transform="translate(481.852169 670.632961) scale(0.11 -0.11)">
       <use xlink:href="#DejaVuSans-31"/>
       <use xlink:href="#DejaVuSans-35" x="63.623047"/>
       <use xlink:href="#DejaVuSans-30" x="127.246094"/>
      </g>
     </g>
    </g>
    <g id="xtick_35">
     <g id="line2d_53">
      <path d="M 519.977647 652.77468 
L 519.977647 346.18446 
" clip-path="url(#pe08053a482)" style="fill: none; stroke: #cccccc; stroke-linecap: round"/>
     </g>
     <g id="text_30">
      <!-- 160 -->
      <g style="fill: #262626" transform="translate(509.479522 670.632961) scale(0.11 -0.11)">
       <use xlink:href="#DejaVuSans-31"/>
       <use xlink:href="#DejaVuSans-36" x="63.623047"/>
       <use xlink:href="#DejaVuSans-30" x="127.246094"/>
      </g>
     </g>
    </g>
    <g id="xtick_36">
     <g id="line2d_54">
      <path d="M 547.605 652.77468 
L 547.605 346.18446 
" clip-path="url(#pe08053a482)" style="fill: none; stroke: #cccccc; stroke-linecap: round"/>
     </g>
     <g id="text_31">
      <!-- 170 -->
      <g style="fill: #262626" transform="translate(537.106875 670.632961) scale(0.11 -0.11)">
       <use xlink:href="#DejaVuSans-31"/>
       <use xlink:href="#DejaVuSans-37" x="63.623047"/>
       <use xlink:href="#DejaVuSans-30" x="127.246094"/>
      </g>
     </g>
    </g>
    <g id="text_32">
     <!-- Steps -->
     <g style="fill: #262626" transform="translate(295.984688 686.038742) scale(0.12 -0.12)">
      <defs>
       <path id="DejaVuSans-53" d="M 3425 4513 
L 3425 3897 
Q 3066 4069 2747 4153 
Q 2428 4238 2131 4238 
Q 1616 4238 1336 4038 
Q 1056 3838 1056 3469 
Q 1056 3159 1242 3001 
Q 1428 2844 1947 2747 
L 2328 2669 
Q 3034 2534 3370 2195 
Q 3706 1856 3706 1288 
Q 3706 609 3251 259 
Q 2797 -91 1919 -91 
Q 1588 -91 1214 -16 
Q 841 59 441 206 
L 441 856 
Q 825 641 1194 531 
Q 1563 422 1919 422 
Q 2459 422 2753 634 
Q 3047 847 3047 1241 
Q 3047 1584 2836 1778 
Q 2625 1972 2144 2069 
L 1759 2144 
Q 1053 2284 737 2584 
Q 422 2884 422 3419 
Q 422 4038 858 4394 
Q 1294 4750 2059 4750 
Q 2388 4750 2728 4690 
Q 3069 4631 3425 4513 
z
" transform="scale(0.015625)"/>
       <path id="DejaVuSans-74" d="M 1172 4494 
L 1172 3500 
L 2356 3500 
L 2356 3053 
L 1172 3053 
L 1172 1153 
Q 1172 725 1289 603 
Q 1406 481 1766 481 
L 2356 481 
L 2356 0 
L 1766 0 
Q 1100 0 847 248 
Q 594 497 594 1153 
L 594 3053 
L 172 3053 
L 172 3500 
L 594 3500 
L 594 4494 
L 1172 4494 
z
" transform="scale(0.015625)"/>
       <path id="DejaVuSans-70" d="M 1159 525 
L 1159 -1331 
L 581 -1331 
L 581 3500 
L 1159 3500 
L 1159 2969 
Q 1341 3281 1617 3432 
Q 1894 3584 2278 3584 
Q 2916 3584 3314 3078 
Q 3713 2572 3713 1747 
Q 3713 922 3314 415 
Q 2916 -91 2278 -91 
Q 1894 -91 1617 61 
Q 1341 213 1159 525 
z
M 3116 1747 
Q 3116 2381 2855 2742 
Q 2594 3103 2138 3103 
Q 1681 3103 1420 2742 
Q 1159 2381 1159 1747 
Q 1159 1113 1420 752 
Q 1681 391 2138 391 
Q 2594 391 2855 752 
Q 3116 1113 3116 1747 
z
" transform="scale(0.015625)"/>
       <path id="DejaVuSans-73" d="M 2834 3397 
L 2834 2853 
Q 2591 2978 2328 3040 
Q 2066 3103 1784 3103 
Q 1356 3103 1142 2972 
Q 928 2841 928 2578 
Q 928 2378 1081 2264 
Q 1234 2150 1697 2047 
L 1894 2003 
Q 2506 1872 2764 1633 
Q 3022 1394 3022 966 
Q 3022 478 2636 193 
Q 2250 -91 1575 -91 
Q 1294 -91 989 -36 
Q 684 19 347 128 
L 347 722 
Q 666 556 975 473 
Q 1284 391 1588 391 
Q 1994 391 2212 530 
Q 2431 669 2431 922 
Q 2431 1156 2273 1281 
Q 2116 1406 1581 1522 
L 1381 1569 
Q 847 1681 609 1914 
Q 372 2147 372 2553 
Q 372 3047 722 3315 
Q 1072 3584 1716 3584 
Q 2034 3584 2315 3537 
Q 2597 3491 2834 3397 
z
" transform="scale(0.015625)"/>
      </defs>
      <use xlink:href="#DejaVuSans-53"/>
      <use xlink:href="#DejaVuSans-74" x="63.476562"/>
      <use xlink:href="#DejaVuSans-65" x="102.685547"/>
      <use xlink:href="#DejaVuSans-70" x="164.208984"/>
      <use xlink:href="#DejaVuSans-73" x="227.685547"/>
     </g>
    </g>
   </g>
   <g id="matplotlib.axis_4">
    <g id="ytick_10">
     <g id="line2d_55">
      <path d="M 77.94 652.77468 
L 547.605 652.77468 
" clip-path="url(#pe08053a482)" style="fill: none; stroke: #cccccc; stroke-linecap: round"/>
     </g>
     <g id="text_33">
      <!-- −0.25 -->
      <g style="fill: #262626" transform="translate(34.730156 656.953821) scale(0.11 -0.11)">
       <defs>
        <path id="DejaVuSans-2e" d="M 684 794 
L 1344 794 
L 1344 0 
L 684 0 
L 684 794 
z
" transform="scale(0.015625)"/>
       </defs>
       <use xlink:href="#DejaVuSans-2212"/>
       <use xlink:href="#DejaVuSans-30" x="83.789062"/>
       <use xlink:href="#DejaVuSans-2e" x="147.412109"/>
       <use xlink:href="#DejaVuSans-32" x="179.199219"/>
       <use xlink:href="#DejaVuSans-35" x="242.822266"/>
      </g>
     </g>
    </g>
    <g id="ytick_11">
     <g id="line2d_56">
      <path d="M 77.94 618.7091 
L 547.605 618.7091 
" clip-path="url(#pe08053a482)" style="fill: none; stroke: #cccccc; stroke-linecap: round"/>
     </g>
     <g id="text_34">
      <!-- −0.20 -->
      <g style="fill: #262626" transform="translate(34.730156 622.888241) scale(0.11 -0.11)">
       <use xlink:href="#DejaVuSans-2212"/>
       <use xlink:href="#DejaVuSans-30" x="83.789062"/>
       <use xlink:href="#DejaVuSans-2e" x="147.412109"/>
       <use xlink:href="#DejaVuSans-32" x="179.199219"/>
       <use xlink:href="#DejaVuSans-30" x="242.822266"/>
      </g>
     </g>
    </g>
    <g id="ytick_12">
     <g id="line2d_57">
      <path d="M 77.94 584.64352 
L 547.605 584.64352 
" clip-path="url(#pe08053a482)" style="fill: none; stroke: #cccccc; stroke-linecap: round"/>
     </g>
     <g id="text_35">
      <!-- −0.15 -->
      <g style="fill: #262626" transform="translate(34.730156 588.822661) scale(0.11 -0.11)">
       <use xlink:href="#DejaVuSans-2212"/>
       <use xlink:href="#DejaVuSans-30" x="83.789062"/>
       <use xlink:href="#DejaVuSans-2e" x="147.412109"/>
       <use xlink:href="#DejaVuSans-31" x="179.199219"/>
       <use xlink:href="#DejaVuSans-35" x="242.822266"/>
      </g>
     </g>
    </g>
    <g id="ytick_13">
     <g id="line2d_58">
      <path d="M 77.94 550.57794 
L 547.605 550.57794 
" clip-path="url(#pe08053a482)" style="fill: none; stroke: #cccccc; stroke-linecap: round"/>
     </g>
     <g id="text_36">
      <!-- −0.10 -->
      <g style="fill: #262626" transform="translate(34.730156 554.757081) scale(0.11 -0.11)">
       <use xlink:href="#DejaVuSans-2212"/>
       <use xlink:href="#DejaVuSans-30" x="83.789062"/>
       <use xlink:href="#DejaVuSans-2e" x="147.412109"/>
       <use xlink:href="#DejaVuSans-31" x="179.199219"/>
       <use xlink:href="#DejaVuSans-30" x="242.822266"/>
      </g>
     </g>
    </g>
    <g id="ytick_14">
     <g id="line2d_59">
      <path d="M 77.94 516.51236 
L 547.605 516.51236 
" clip-path="url(#pe08053a482)" style="fill: none; stroke: #cccccc; stroke-linecap: round"/>
     </g>
     <g id="text_37">
      <!-- −0.05 -->
      <g style="fill: #262626" transform="translate(34.730156 520.691501) scale(0.11 -0.11)">
       <use xlink:href="#DejaVuSans-2212"/>
       <use xlink:href="#DejaVuSans-30" x="83.789062"/>
       <use xlink:href="#DejaVuSans-2e" x="147.412109"/>
       <use xlink:href="#DejaVuSans-30" x="179.199219"/>
       <use xlink:href="#DejaVuSans-35" x="242.822266"/>
      </g>
     </g>
    </g>
    <g id="ytick_15">
     <g id="line2d_60">
      <path d="M 77.94 482.44678 
L 547.605 482.44678 
" clip-path="url(#pe08053a482)" style="fill: none; stroke: #cccccc; stroke-linecap: round"/>
     </g>
     <g id="text_38">
      <!-- 0.00 -->
      <g style="fill: #262626" transform="translate(43.947812 486.625921) scale(0.11 -0.11)">
       <use xlink:href="#DejaVuSans-30"/>
       <use xlink:href="#DejaVuSans-2e" x="63.623047"/>
       <use xlink:href="#DejaVuSans-30" x="95.410156"/>
       <use xlink:href="#DejaVuSans-30" x="159.033203"/>
      </g>
     </g>
    </g>
    <g id="ytick_16">
     <g id="line2d_61">
      <path d="M 77.94 448.3812 
L 547.605 448.3812 
" clip-path="url(#pe08053a482)" style="fill: none; stroke: #cccccc; stroke-linecap: round"/>
     </g>
     <g id="text_39">
      <!-- 0.05 -->
      <g style="fill: #262626" transform="translate(43.947812 452.560341) scale(0.11 -0.11)">
       <use xlink:href="#DejaVuSans-30"/>
       <use xlink:href="#DejaVuSans-2e" x="63.623047"/>
       <use xlink:href="#DejaVuSans-30" x="95.410156"/>
       <use xlink:href="#DejaVuSans-35" x="159.033203"/>
      </g>
     </g>
    </g>
    <g id="ytick_17">
     <g id="line2d_62">
      <path d="M 77.94 414.31562 
L 547.605 414.31562 
" clip-path="url(#pe08053a482)" style="fill: none; stroke: #cccccc; stroke-linecap: round"/>
     </g>
     <g id="text_40">
      <!-- 0.10 -->
      <g style="fill: #262626" transform="translate(43.947812 418.494761) scale(0.11 -0.11)">
       <use xlink:href="#DejaVuSans-30"/>
       <use xlink:href="#DejaVuSans-2e" x="63.623047"/>
       <use xlink:href="#DejaVuSans-31" x="95.410156"/>
       <use xlink:href="#DejaVuSans-30" x="159.033203"/>
      </g>
     </g>
    </g>
    <g id="ytick_18">
     <g id="line2d_63">
      <path d="M 77.94 380.25004 
L 547.605 380.25004 
" clip-path="url(#pe08053a482)" style="fill: none; stroke: #cccccc; stroke-linecap: round"/>
     </g>
     <g id="text_41">
      <!-- 0.15 -->
      <g style="fill: #262626" transform="translate(43.947812 384.429181) scale(0.11 -0.11)">
       <use xlink:href="#DejaVuSans-30"/>
       <use xlink:href="#DejaVuSans-2e" x="63.623047"/>
       <use xlink:href="#DejaVuSans-31" x="95.410156"/>
       <use xlink:href="#DejaVuSans-35" x="159.033203"/>
      </g>
     </g>
    </g>
    <g id="ytick_19">
     <g id="line2d_64">
      <path d="M 77.94 346.18446 
L 547.605 346.18446 
" clip-path="url(#pe08053a482)" style="fill: none; stroke: #cccccc; stroke-linecap: round"/>
     </g>
     <g id="text_42">
      <!-- 0.20 -->
      <g style="fill: #262626" transform="translate(43.947812 350.363601) scale(0.11 -0.11)">
       <use xlink:href="#DejaVuSans-30"/>
       <use xlink:href="#DejaVuSans-2e" x="63.623047"/>
       <use xlink:href="#DejaVuSans-32" x="95.410156"/>
       <use xlink:href="#DejaVuSans-30" x="159.033203"/>
      </g>
     </g>
    </g>
    <g id="text_43">
     <!-- Torque (N·m) -->
     <g style="fill: #262626" transform="translate(28.234531 538.289257) rotate(-90) scale(0.12 -0.12)">
      <defs>
       <path id="DejaVuSans-54" d="M -19 4666 
L 3928 4666 
L 3928 4134 
L 2272 4134 
L 2272 0 
L 1638 0 
L 1638 4134 
L -19 4134 
L -19 4666 
z
" transform="scale(0.015625)"/>
       <path id="DejaVuSans-71" d="M 947 1747 
Q 947 1113 1208 752 
Q 1469 391 1925 391 
Q 2381 391 2643 752 
Q 2906 1113 2906 1747 
Q 2906 2381 2643 2742 
Q 2381 3103 1925 3103 
Q 1469 3103 1208 2742 
Q 947 2381 947 1747 
z
M 2906 525 
Q 2725 213 2448 61 
Q 2172 -91 1784 -91 
Q 1150 -91 751 415 
Q 353 922 353 1747 
Q 353 2572 751 3078 
Q 1150 3584 1784 3584 
Q 2172 3584 2448 3432 
Q 2725 3281 2906 2969 
L 2906 3500 
L 3481 3500 
L 3481 -1331 
L 2906 -1331 
L 2906 525 
z
" transform="scale(0.015625)"/>
       <path id="DejaVuSans-75" d="M 544 1381 
L 544 3500 
L 1119 3500 
L 1119 1403 
Q 1119 906 1312 657 
Q 1506 409 1894 409 
Q 2359 409 2629 706 
Q 2900 1003 2900 1516 
L 2900 3500 
L 3475 3500 
L 3475 0 
L 2900 0 
L 2900 538 
Q 2691 219 2414 64 
Q 2138 -91 1772 -91 
Q 1169 -91 856 284 
Q 544 659 544 1381 
z
M 1991 3584 
L 1991 3584 
z
" transform="scale(0.015625)"/>
       <path id="DejaVuSans-b7" d="M 684 2619 
L 1344 2619 
L 1344 1825 
L 684 1825 
L 684 2619 
z
" transform="scale(0.015625)"/>
       <path id="DejaVuSans-6d" d="M 3328 2828 
Q 3544 3216 3844 3400 
Q 4144 3584 4550 3584 
Q 5097 3584 5394 3201 
Q 5691 2819 5691 2113 
L 5691 0 
L 5113 0 
L 5113 2094 
Q 5113 2597 4934 2840 
Q 4756 3084 4391 3084 
Q 3944 3084 3684 2787 
Q 3425 2491 3425 1978 
L 3425 0 
L 2847 0 
L 2847 2094 
Q 2847 2600 2669 2842 
Q 2491 3084 2119 3084 
Q 1678 3084 1418 2786 
Q 1159 2488 1159 1978 
L 1159 0 
L 581 0 
L 581 3500 
L 1159 3500 
L 1159 2956 
Q 1356 3278 1631 3431 
Q 1906 3584 2284 3584 
Q 2666 3584 2933 3390 
Q 3200 3197 3328 2828 
z
" transform="scale(0.015625)"/>
      </defs>
      <use xlink:href="#DejaVuSans-54"/>
      <use xlink:href="#DejaVuSans-6f" x="44.083984"/>
      <use xlink:href="#DejaVuSans-72" x="105.265625"/>
      <use xlink:href="#DejaVuSans-71" x="144.628906"/>
      <use xlink:href="#DejaVuSans-75" x="208.105469"/>
      <use xlink:href="#DejaVuSans-65" x="271.484375"/>
      <use xlink:href="#DejaVuSans-20" x="333.007812"/>
      <use xlink:href="#DejaVuSans-28" x="364.794922"/>
      <use xlink:href="#DejaVuSans-4e" x="403.808594"/>
      <use xlink:href="#DejaVuSans-b7" x="478.613281"/>
      <use xlink:href="#DejaVuSans-6d" x="510.400391"/>
      <use xlink:href="#DejaVuSans-29" x="607.8125"/>
     </g>
    </g>
   </g>
   <g id="line2d_65">
    <path d="M 77.94 482.446767 
L 174.635735 482.446752 
L 177.398471 507.592685 
L 180.161206 502.268656 
L 182.923941 482.44674 
L 193.974882 482.446744 
L 196.737618 490.926476 
L 199.500353 482.446753 
L 202.263088 482.44674 
L 205.025824 487.219025 
L 207.788559 483.028564 
L 210.551294 485.583019 
L 213.314029 484.006868 
L 216.076765 485.003808 
L 218.8395 484.333366 
L 221.602235 484.774086 
L 224.364971 484.447026 
L 227.127706 484.66718 
L 229.890441 484.483006 
L 232.653176 484.607077 
L 235.415912 484.486015 
L 238.178647 484.561969 
L 240.941382 484.473401 
L 243.704118 484.52451 
L 246.466853 484.448439 
L 249.229588 484.489193 
L 251.992324 484.412771 
L 254.755059 484.455791 
L 257.517794 484.362579 
L 260.280529 484.418828 
L 263.043265 484.311352 
L 265.806 484.385922 
L 268.568735 484.236562 
L 271.331471 484.364886 
L 274.094206 484.135113 
L 276.856941 484.376762 
L 279.619676 483.960687 
L 282.382412 484.504026 
L 285.145147 483.576591 
L 287.907882 484.981152 
L 290.670618 482.448378 
L 293.433353 486.761471 
L 296.196088 482.446777 
L 298.958824 482.446693 
L 301.721559 487.443856 
L 304.484294 482.446686 
L 310.009765 482.446679 
L 312.7725 490.323093 
L 315.535235 482.446665 
L 329.348912 482.446673 
L 332.111647 499.706167 
L 334.874382 482.446645 
L 351.450794 482.44663 
L 354.213529 486.19982 
L 356.976265 482.446617 
L 362.501735 482.446618 
L 365.264471 482.008166 
L 368.027206 482.446606 
L 379.078147 482.446634 
L 381.840882 475.169031 
L 384.603618 482.446633 
L 390.129088 482.446638 
L 392.891824 474.878307 
L 395.654559 482.446624 
L 406.7055 482.446635 
L 409.468235 488.739933 
L 412.230971 482.446626 
L 417.756441 482.446634 
L 420.519176 467.901497 
L 423.281912 482.44662 
L 434.332853 482.446656 
L 437.095588 453.892277 
L 439.858324 482.446653 
L 445.383794 482.446671 
L 448.146529 465.170419 
L 450.909265 482.446651 
L 467.485676 482.446685 
L 470.248412 441.22871 
L 473.011147 482.446678 
L 481.299353 482.446688 
L 484.062088 459.772618 
L 486.824824 482.446668 
L 506.163971 482.446715 
L 508.926706 433.770821 
L 511.689441 482.446685 
L 525.503118 482.446712 
L 528.265853 580.488306 
L 531.028588 482.446707 
L 577 482.446732 
L 577 482.446732 
" clip-path="url(#pe08053a482)" style="fill: none; stroke: #ff0000; stroke-opacity: 0.7; stroke-width: 1.5; stroke-linecap: round"/>
   </g>
   <g id="line2d_66">
    <path d="M 77.94 482.446837 
L 174.635735 482.446839 
L 177.398471 528.926581 
L 180.161206 519.342392 
L 182.923941 482.446643 
L 193.974882 482.446851 
L 196.737618 498.062963 
L 199.500353 482.446718 
L 202.263088 482.446855 
L 205.025824 490.501531 
L 207.788559 483.408584 
L 210.551294 487.745424 
L 213.314029 485.081314 
L 216.076765 486.824541 
L 218.8395 485.69454 
L 221.602235 486.498373 
L 224.364971 485.956182 
L 227.127706 486.383358 
L 229.890441 486.089668 
L 232.653176 486.3532 
L 235.415912 486.171903 
L 238.178647 486.353899 
L 240.941382 486.231862 
L 243.704118 486.373969 
L 246.466853 486.275967 
L 249.229588 486.404362 
L 251.992324 486.306145 
L 254.755059 486.445894 
L 257.517794 486.316085 
L 260.280529 486.488323 
L 263.043265 486.326532 
L 265.806 486.548233 
L 268.568735 486.29429 
L 271.331471 486.644607 
L 274.094206 486.205791 
L 276.856941 486.829894 
L 279.619676 485.945883 
L 282.382412 487.310491 
L 285.145147 485.161532 
L 287.907882 488.723455 
L 290.670618 482.450937 
L 293.433353 493.882481 
L 296.196088 482.446697 
L 298.958824 482.446858 
L 301.721559 496.986321 
L 304.484294 482.446649 
L 310.009765 482.446875 
L 312.7725 506.844026 
L 315.535235 482.446581 
L 329.348912 482.44686 
L 332.111647 549.264691 
L 334.874382 482.446943 
L 351.450794 482.446866 
L 354.213529 599.173626 
L 356.976265 482.446899 
L 362.501735 482.446884 
L 365.264471 559.239628 
L 368.027206 482.446932 
L 379.078147 482.44687 
L 381.840882 601.085229 
L 384.603618 482.446895 
L 390.129088 482.446875 
L 392.891824 559.526244 
L 395.654559 482.44693 
L 406.7055 482.446868 
L 409.468235 620.545416 
L 412.230971 482.446885 
L 417.756441 482.44687 
L 420.519176 559.144267 
L 423.281912 482.446916 
L 434.332853 482.446857 
L 437.095588 598.050727 
L 439.858324 482.446888 
L 445.383794 482.44685 
L 448.146529 542.777461 
L 450.909265 482.446942 
L 467.485676 482.44687 
L 470.248412 586.223146 
L 473.011147 482.446892 
L 481.299353 482.446869 
L 484.062088 536.026844 
L 486.824824 482.446935 
L 506.163971 482.446844 
L 508.926706 566.790406 
L 511.689441 482.446944 
L 525.503118 482.446894 
L 528.265853 452.945006 
L 531.028588 482.446602 
L 577 482.446882 
L 577 482.446882 
" clip-path="url(#pe08053a482)" style="fill: none; stroke: #008000; stroke-opacity: 0.7; stroke-width: 1.5; stroke-linecap: round"/>
   </g>
   <g id="line2d_67">
    <path d="M 77.94 482.446759 
L 174.635735 482.446701 
L 177.398471 461.847656 
L 180.161206 471.404056 
L 182.923941 482.446305 
L 193.974882 482.446689 
L 196.737618 473.754086 
L 199.500353 482.446282 
L 202.263088 482.446684 
L 205.025824 477.985924 
L 207.788559 481.920354 
L 210.551294 479.541862 
L 213.314029 481.012496 
L 216.076765 480.066822 
L 218.8395 480.690295 
L 221.602235 480.261627 
L 224.364971 480.562802 
L 227.127706 480.340783 
L 229.890441 480.506566 
L 232.653176 480.373975 
L 235.415912 480.478716 
L 238.178647 480.390666 
L 240.941382 480.463332 
L 243.704118 480.396824 
L 246.466853 480.45617 
L 249.229588 480.397238 
L 251.992324 480.455886 
L 254.755059 480.391088 
L 257.517794 480.464286 
L 260.280529 480.383132 
L 263.043265 480.472436 
L 265.806 480.365439 
L 268.568735 480.50051 
L 271.331471 480.328022 
L 274.094206 480.55567 
L 276.856941 480.245157 
L 279.619676 480.69544 
L 282.382412 480.014272 
L 285.145147 481.095661 
L 287.907882 479.315687 
L 290.670618 482.444363 
L 293.433353 476.729465 
L 296.196088 482.446352 
L 298.958824 482.446617 
L 301.721559 475.259135 
L 304.484294 482.44631 
L 310.009765 482.44661 
L 312.7725 470.771866 
L 315.535235 482.446224 
L 329.348912 482.446595 
L 332.111647 457.529526 
L 334.874382 482.445722 
L 351.450794 482.446581 
L 354.213529 458.121866 
L 356.976265 482.445659 
L 362.501735 482.446577 
L 365.264471 457.87002 
L 368.027206 482.445634 
L 379.078147 482.446578 
L 381.840882 457.653846 
L 384.603618 482.445617 
L 390.129088 482.446581 
L 392.891824 457.864766 
L 395.654559 482.445621 
L 406.7055 482.446588 
L 409.468235 452.069355 
L 412.230971 482.445615 
L 417.756441 482.446594 
L 420.519176 459.077067 
L 423.281912 482.44567 
L 434.332853 482.446606 
L 437.095588 460.633831 
L 439.858324 482.445722 
L 445.383794 482.446613 
L 448.146529 461.053718 
L 450.909265 482.445757 
L 467.485676 482.446628 
L 470.248412 463.22961 
L 473.011147 482.445833 
L 481.299353 482.446637 
L 484.062088 463.657349 
L 486.824824 482.445878 
L 506.163971 482.446652 
L 508.926706 468.172884 
L 511.689441 482.445967 
L 525.503118 482.446666 
L 528.265853 461.632528 
L 531.028588 482.446019 
L 577 482.446699 
L 577 482.446699 
" clip-path="url(#pe08053a482)" style="fill: none; stroke: #0000ff; stroke-opacity: 0.7; stroke-width: 1.5; stroke-linecap: round"/>
   </g>
   <g id="line2d_68"/>
   <g id="line2d_69"/>
   <g id="line2d_70"/>
   <g id="patch_10">
    <path d="M 77.94 652.77468 
L 77.94 346.18446 
" style="fill: none; stroke: #cccccc; stroke-width: 1.25; stroke-linejoin: miter; stroke-linecap: square"/>
   </g>
   <g id="patch_11">
    <path d="M 547.605 652.77468 
L 547.605 346.18446 
" style="fill: none; stroke: #cccccc; stroke-width: 1.25; stroke-linejoin: miter; stroke-linecap: square"/>
   </g>
   <g id="patch_12">
    <path d="M 77.94 652.77468 
L 547.605 652.77468 
" style="fill: none; stroke: #cccccc; stroke-width: 1.25; stroke-linejoin: miter; stroke-linecap: square"/>
   </g>
   <g id="patch_13">
    <path d="M 77.94 346.18446 
L 547.605 346.18446 
" style="fill: none; stroke: #cccccc; stroke-width: 1.25; stroke-linejoin: miter; stroke-linecap: square"/>
   </g>
   <g id="legend_2">
    <g id="patch_14">
     <path d="M 508.78375 389.81196 
L 544.005 389.81196 
Q 545.605 389.81196 545.605 388.21196 
L 545.605 353.78446 
Q 545.605 352.18446 544.005 352.18446 
L 508.78375 352.18446 
Q 507.18375 352.18446 507.18375 353.78446 
L 507.18375 388.21196 
Q 507.18375 389.81196 508.78375 389.81196 
z
" style="fill: #4c4c4c; opacity: 0.5; stroke: #4c4c4c; stroke-linejoin: miter"/>
    </g>
    <g id="patch_15">
     <path d="M 506.78375 387.81196 
L 542.005 387.81196 
Q 543.605 387.81196 543.605 386.21196 
L 543.605 351.78446 
Q 543.605 350.18446 542.005 350.18446 
L 506.78375 350.18446 
Q 505.18375 350.18446 505.18375 351.78446 
L 505.18375 386.21196 
Q 505.18375 387.81196 506.78375 387.81196 
z
" style="fill: #ffffff; stroke: #cccccc; stroke-linejoin: miter"/>
    </g>
    <g id="line2d_71">
     <path d="M 508.38375 356.66321 
L 516.38375 356.66321 
L 524.38375 356.66321 
" style="fill: none; stroke: #ff0000; stroke-opacity: 0.7; stroke-width: 1.5; stroke-linecap: round"/>
    </g>
    <g id="text_44">
     <!-- Tx -->
     <g style="fill: #262626" transform="translate(530.78375 359.46321) scale(0.08 -0.08)">
      <use xlink:href="#DejaVuSans-54"/>
      <use xlink:href="#DejaVuSans-78" x="61.083984"/>
     </g>
    </g>
    <g id="line2d_72">
     <path d="M 508.38375 368.40571 
L 516.38375 368.40571 
L 524.38375 368.40571 
" style="fill: none; stroke: #008000; stroke-opacity: 0.7; stroke-width: 1.5; stroke-linecap: round"/>
    </g>
    <g id="text_45">
     <!-- Ty -->
     <g style="fill: #262626" transform="translate(530.78375 371.20571) scale(0.08 -0.08)">
      <use xlink:href="#DejaVuSans-54"/>
      <use xlink:href="#DejaVuSans-79" x="45.458984"/>
     </g>
    </g>
    <g id="line2d_73">
     <path d="M 508.38375 380.14821 
L 516.38375 380.14821 
L 524.38375 380.14821 
" style="fill: none; stroke: #0000ff; stroke-opacity: 0.7; stroke-width: 1.5; stroke-linecap: round"/>
    </g>
    <g id="text_46">
     <!-- Tz -->
     <g style="fill: #262626" transform="translate(530.78375 382.94821) scale(0.08 -0.08)">
      <use xlink:href="#DejaVuSans-54"/>
      <use xlink:href="#DejaVuSans-7a" x="61.083984"/>
     </g>
    </g>
   </g>
  </g>
 </g>
 <defs>
  <clipPath id="p4ad3ba09ce">
   <rect x="77.94" y="17.676" width="469.665" height="306.59022"/>
  </clipPath>
  <clipPath id="pe08053a482">
   <rect x="77.94" y="346.18446" width="469.665" height="306.59022"/>
  </clipPath>
 </defs>
</svg>
